/* XPM */
static char *sad_removebg_preview__1_1706311056[] = {
/* columns rows colors chars-per-pixel */
"50 50 230 2 ",
"   c #33342E",
".  c #333A2E",
"X  c #3A332B",
"o  c #333633",
"O  c #353A34",
"+  c #3A3C35",
"@  c #353C3B",
"#  c #3B3E3A",
"$  c #383535",
"%  c #3B2C27",
"&  c #462B1D",
"*  c #55341D",
"=  c #562F1E",
"-  c #643419",
";  c #783B1C",
":  c #4C2E23",
">  c #422F20",
",  c #542F23",
"<  c #4B342B",
"1  c #48382A",
"2  c #533223",
"3  c #5C3223",
"4  c #58392A",
"5  c #4A3631",
"6  c #423C34",
"7  c #4D3B34",
"8  c #423E3B",
"9  c #543C33",
"0  c #653C27",
"q  c #773D25",
"w  c #3C4136",
"e  c #37413A",
"r  c #3D423C",
"t  c #3E483F",
"y  c #364037",
"u  c #68431E",
"i  c #71471F",
"p  c #5A4129",
"a  c #41433D",
"s  c #4A443D",
"d  c #46463B",
"f  c #574736",
"g  c #52513F",
"h  c #6B4427",
"j  c #734B2A",
"k  c #764528",
"l  c #78532E",
"z  c #634A34",
"x  c #6D4B35",
"c  c #644635",
"v  c #744433",
"b  c #784C34",
"n  c #72513C",
"m  c #7C5637",
"M  c #67503E",
"N  c #3B3D44",
"B  c #433F40",
"V  c #3D4342",
"C  c #3E4841",
"Z  c #3F4749",
"A  c #424541",
"S  c #4A4542",
"D  c #444943",
"F  c #4A4B45",
"G  c #454B49",
"H  c #4B4D49",
"J  c #41464A",
"K  c #4D534C",
"L  c #485047",
"P  c #53544C",
"I  c #5E5848",
"U  c #545653",
"Y  c #545B53",
"T  c #5A5C53",
"R  c #525E59",
"E  c #5B5D5A",
"W  c #515058",
"Q  c #53504D",
"!  c #6B5B4B",
"~  c #685747",
"^  c #775B46",
"/  c #625D53",
"(  c #685B54",
")  c #5A625A",
"_  c #7C644D",
"`  c #74614A",
"'  c #6B635A",
"]  c #6E6A5D",
"[  c #686456",
"{  c #756355",
"}  c #746C5C",
"|  c #766957",
" . c #7C715B",
".. c #5E6462",
"X. c #646662",
"o. c #656A62",
"O. c #6B6D64",
"+. c #6A6C6A",
"@. c #686965",
"#. c #746E63",
"$. c #776D67",
"%. c #6D7266",
"&. c #6C736C",
"*. c #66716D",
"=. c #717066",
"-. c #7A7366",
";. c #73746C",
":. c #74796E",
">. c #7B7B6C",
",. c #7D736A",
"<. c #6F7974",
"1. c #737671",
"2. c #747A74",
"3. c #7B7C74",
"4. c #7B7E7A",
"5. c #787974",
"6. c #823F22",
"7. c #84431B",
"8. c #834323",
"9. c #884629",
"0. c #944D2C",
"q. c #994C29",
"w. c #995328",
"e. c #8B4A31",
"r. c #834936",
"t. c #914E35",
"y. c #87573A",
"u. c #9D5433",
"i. c #965738",
"p. c #A2592D",
"a. c #A35C33",
"s. c #AB5E3C",
"d. c #A55A37",
"f. c #9B673E",
"g. c #84623F",
"h. c #A6633A",
"j. c #AB633B",
"k. c #AB6738",
"l. c #B56C3C",
"z. c #BB6D3B",
"x. c #B56A37",
"c. c #BD7235",
"v. c #BB743B",
"b. c #B5733A",
"n. c #C4773C",
"m. c #C27A3E",
"M. c #C17436",
"N. c #885C41",
"B. c #876549",
"V. c #9A6746",
"C. c #917358",
"Z. c #A86A45",
"A. c #B36643",
"S. c #B46A44",
"D. c #BB6C43",
"F. c #BD6E48",
"G. c #B26C4A",
"H. c #A8724B",
"J. c #BD7442",
"K. c #B3754C",
"L. c #BD744B",
"P. c #BC7A4C",
"I. c #B77645",
"U. c #A47453",
"Y. c #BB7E53",
"T. c #B57852",
"R. c #857A6A",
"E. c #8A7D72",
"W. c #827C75",
"Q. c #897660",
"!. c #C37642",
"~. c #C47B44",
"^. c #CB7D44",
"/. c #C5754A",
"(. c #C9764B",
"). c #C57C4C",
"_. c #CB7E4C",
"`. c #D07F46",
"'. c #D07E4D",
"]. c #C77952",
"[. c #D07F50",
"{. c #7B8175",
"}. c #7C837B",
"|. c #758278",
" X c #BD8254",
".X c #848276",
"XX c #83847B",
"oX c #89857A",
"OX c #90867B",
"+X c #95806B",
"@X c #B68363",
"#X c #AC8D72",
"$X c #CC8146",
"%X c #C6814B",
"&X c #CC834C",
"*X c #D38444",
"=X c #D98547",
"-X c #D3844B",
";X c #D4894D",
":X c #DA8B4D",
">X c #D68947",
",X c #C28352",
"<X c #CE8552",
"1X c #CE8951",
"2X c #C38659",
"3X c #C98959",
"4X c #D28552",
"5X c #D48B53",
"6X c #DC8D53",
"7X c #D6885B",
"8X c #DB9154",
"9X c #DC935A",
"0X c #D89555",
"qX c #CE9057",
"wX c #E39455",
"eX c #E5975A",
"rX c #CD8F62",
"tX c #C99468",
"yX c #D39567",
"uX c #DA9D70",
"iX c #7D8783",
"pX c #848A82",
"aX c #8B8C84",
"sX c #848684",
"dX c #8B928A",
"fX c #84908E",
"gX c #92938C",
"hX c #AD9382",
"jX c #B8A295",
"kX c #C5AC98",
/* pixels */
"a A A t # e r A A t r V r r t A a d a r + d a 6 + + # d # r V V C C C t A t r r e t t e # # a A A r ",
"C A a t r r r a r a a r a a a A A D r w a a a a F A a A V A A C r A t r t r r t t t a r # # # A A A ",
"A A A A a r r e e r r a A A A A A D # # A a a F F S D F A a a A r r r # e r r a t a A r r r r r r r ",
"a C t a r r r r # # r r t A A t r A r t A # # r # a r + + # $ # a a A # + r r a a A A r # r r r # r ",
"r r r r r r r r r r r r r r A r # # t r # A X.) X.X.X.[ [ P + + d A A a a # 8 a A A a a r r r r r # ",
"# # r # r r r a r r e r r r r r A a a a a P aXaXaXaXaXXXoXO.d d A a A d a r 8 a a d A a r r t r r r ",
"r r r r r r t r r r r r r # r r a a s d d H 3.3.{.5.:.] ] T + d r a r a 8 r 8 N # A 8 a r t r t r r ",
"r r e r A A A # # # r r r r r t a a r a a A ;.3.3.{.{.%.o.P . a r e # r V # r 8 # B V # r V t a r # ",
"# e # # O O # O r e # r r t # r D L @ r a # X.5.4.4.2.<.2.G V C t y e t t w e r 8 # # a A a r r # # ",
"O O # O # # w # e a a e A r F C t e R +.2.U T 3.&.;.4.5.<.R <.iX) L e e t t t t A A a a A a a a # e ",
"# e w e r r r r a # O a G 2.2.K L R 5.4.;.X.H 3.;.3.W.5.+.X.iX<.{.%.Y ) |.|.K r V A a t a t r w e O ",
"r # r r r r # e # r r K 1.4.}.+.E aX{.>.3.$.~ R.E.E.E.E.#.3.{.+.%.>.T .XdXdX|.t r V r r e r # r # # ",
"# # # # # e O e @ r O &.}.1.5.5.1.P E.E.Q.~ 4 ^ B.^ B.^ M ^ | E.R./ #.aX.XpXpX&.r e t r r r a a a t ",
"r r # # # # # w O r O # &.4.5.5..X$.~ M n x y.y.i.y.U.B.N.n b n ~ #.aXE.{.XX{.a y y e e t t a a A A ",
"a t r # # # O y o O e r K 1.&.;.R.M * ^ g.f.h.Z.h.a.P.j.G.H.Z.N.c ( E.oXOX=.R r O e e C t a a a t r ",
"r r O O O O O O . # o &.}.Y =.R.z h b H.Z.Z.I.J.z.z.7X_.).L.P.i.V.n 4 { ] [ oX&.e e r C A A D A a t ",
"A # $   O o . @ # r R iX|.%.f 4 h i.i.K.I.J.%X&X!.m.eX6X&X[.7XZ.K.U.m : ! oXXXpXY C D S A r r a t r ",
"N # o . + y e t a D *.2.}.OXz u f.G.h.).&X5X1X1X~.^.eX:X-X-X7Xl.).,XZ.m x Q.oXXX&.H B 8 a e r r a r ",
"# o o # w w C C F U ..+..X| p f.H.T.k.%X&X;X5X5X%X$XeX:X;X-X5XJ.<X3X XH.m _ ,.%.+.H S S 8 # r C a t ",
"o o O a w d Z D F W.5.;.] n y.H.K.%Xl.5X1X;X5X0X$X$XeX>X*X&X5Xm.&X1XP.T.V.x / %.2./ S S r V V V A a ",
"@ o o O a A G D / O.5.oX_ n V.T.%X1Xc.0X>X8X5X;Xm.*XwX*X*X*X;Xv.&X-X^.P.Y.l ` .X&.<.E S a t V G D A ",
"@ o   y d D C t [ W.#.,.n y.I.J.,X1Xc.8X>X0X;X$Xm.m.wX*X*X*X0Xc.*X:X^.(.L.V.` %.&.4.' F S r Z J G A ",
"e y o w A t r H P $.@.' z V. X%X1X5Xc.eX>X:X;X5X$Xm.wX>X>X>X0Xc.-X:X`.`.!.T.l I o.) U a D # H J D A ",
"a r o O V r G &.oXW.gXR.u  X1X$X8X;XM.eX*X;X&X;X$X$XeX:X>X:X0Xm.;X:X=X=X'.Y.z } pXiXaX2.[ # G J D C ",
"a a d t A # *.3.|.] o. .i  X1X>X5X;Xn.wX=X-X-X5X$X;XwX:X:X:X8X!.0X5X*X=X-X3Xm } {.|.{.3.%.+ D D D A ",
"d a A a D V &.pX{.XX|.[ i  X%X;X;X:XM.wX;X-X<X1XJ.$X7X:X6X=X8Xv.0X5X*X*X-XrXm  .{.2.XX.X=.+ S a C C ",
"d t d A C @ R 3.|.{.|.| l  X$X;X;X-XM.wX=X-X<X4X%X~.wX:X9X*X;Xv.0X5X$X-X-XyXN.+X{.2.4.5.=.. d a a r ",
"r d D F G D K O.o.o.&.[ i  Xm.$X1X-XM.wX-X-X&X4X%X~.eX-X6X*X7Xb.9X;X$X$X-XyXm | =.&.;.O.) X d d A A ",
"a a A A V # o a L K R P u ,X<X_.5X&Xc.wX*X&X_.1X/.!.wX^.-X-X6Xl.5X6X&X~.&XuXl p [ Y H C r o a d A A ",
"t a A A G G a d F aXfX%.j )._.4X&X&Xx.6X$X^.~.&Xm.!.7X^.-X-X4Xz.4X_.^.^.%XyXl ` oX{.W N @ @ + w a A ",
"w w A C V A 8 + P dXfX] j 1X<X[.<X_.c.6X-X^.$X&X~.!.wX`.^.-X_.z.6X^.n.%X XqXl +XR.1.W N J D + + r r ",
"r r C A A N d 6 a 4.|.-.j %X4X4X<X4Xc.6X*X*X%X&X).m.-X^.`.`._.v.6X%XK. XK.tXl Q.R.1.W N V @ . w a a ",
"r r t w a 8 B B G 2.|.] j 2X%X&X[._.v.0X$X-X_.-X~.~.;X^.*X^.&Xv.4XH.C.kXjX#X_ |  .o.r V Z @ . w a a ",
"y r t w + B A B D &.*.~ j  X%X_.-X&Xx.1X$X^.&X4X!.J.-X^.;X%X<XI.qXV.> OX! Q.^ ! ] O.G V t O + O w + ",
"O r t w # $ $ B D U K d j 2X<X&X).%Xb.0X*X*X^.&X~.%X9X$X>X&X5XI.3XU.#X;.jXhXf f / E J B A $ + + + # ",
"V r w w B 8 E sXdXsXdX} j 2X_.(.m.%Xb.0X5X-X_.4XJ.v.wX$X%X%X4Xb.@XV.! % > #X5 >.W.4.4.4.+.6 $ + # $ ",
"$ N e a a + W sX{.:.{.} - Y.[.<X(.[.k.5X'.'.'.[.v.b.6X^.^._.<XZ.3Xm R.| ` _ . =.[ *.}.pX1.$ $ # # + ",
"# A r w a w X.4.}.}.&.{ l  X(./././.p.1X4X'.[.[.J.x.[.!._._.[.h.tXi h +X_ p p .X*.*.}.XX,.6 A # # # ",
"B A A $ # # +.sX3.}.;.[ x K./././.D.w.[.'.'.(.].L.l.7X!.(.(.].d.P.V.j * u +Xp {.pX|.{.>.} 6 B $ # $ ",
"J B V # + o X.sX{.:.&.! h T.].D.A.A.q.]./.!.].(.k.j.7Xl.D.L.P.d.L.h.@X@XH.#Xz | XX>..X{.' $ A # # $ ",
"B A r r # $ N Q Y T P g h T.G.d.s.s.0.2XA.D./.D.j.j.[.d.h.A.G.q.S.d.Z.i.e.U.z d T ) ) d X X r N # # ",
"S A r r a # # # F ;.}.} 0 i.V.d.d.u.9.P.s.s.A.A.d.d./.p.a.s.A.0.A.0.u.t.9.V.c / .X>.F   + d V N # # ",
"A B t r a A B $ d :.{.-.0 y.t.i.u.u.6.F.p.s.s.s.u.u.l.w.p.u.u.6.s.9.7.7.i f.z R.>.>.L . w O @ N r # ",
"B a a A r A J # H 3.;.-.4 r.r.r.q.6.6.s.w.q.u.d.0.t.j.9.0.0.0.q i.6.; k ; y.4 ,.>.{.K O . . e @ r w ",
"a # a A r r B # U {.&.O.2 v v k 6.q 3 N.6.6.6.t.9.e.i.6.k 8.r.; r.q q q q b 4 } -.>.P # w w d O # + ",
"a # w r V a 8 # H ;.O./ 4 x x q v q 3 N.N.r.r.N.v r.N.q q v v 0 q v h 0 0 v f ' .XaXE @ r + 6 a # $ ",
"a t r r A A A 8   H H a & , , 3 , , & q 3 3 3 3 4 0 0 3 2 , 4 : : : > : , 5 X 8 Q P N N A A 8 8 $ # ",
"r a t w a N # A 6 + # + 7 9 4 9 5 5 5 B 9 9 7 5 5 9 9 5 < < 9 < 5 7 5 6 9 5 8 # # # V Z V r 8 8 # # ",
"d t r r r r # a # r A F s s s F s s d d s s s s 8 s 8 8 8 8 a 8 B 8 a a 8 d 8 r a A V r # r r A # # ",
"A a r r e r # r # r A D A A D D A a A a a A A A A d d # 8 8 # r r V r a r r r # r V r e # r r r # # "
};
