/* XPM */
static char *pngwing_com__3__removebg_preview__1_1706310288[] = {
/* columns rows colors chars-per-pixel */
"50 50 242 2 ",
"   c #3C3C1D",
".  c #3B3715",
"X  c #32330A",
"o  c #3C3A23",
"O  c #323E2E",
"+  c #3A3C2B",
"@  c #393822",
"#  c #353D34",
"$  c #3B3D35",
"%  c #3C3E3A",
"&  c #353B3A",
"*  c #2F3C2B",
"=  c #670B00",
"-  c #6D1B00",
";  c #691600",
":  c #761C00",
">  c #433B1C",
",  c #483818",
"<  c #4F3107",
"1  c #632A00",
"2  c #7B2401",
"3  c #752800",
"4  c #643300",
"5  c #7B3900",
"6  c #433C23",
"7  c #433A2A",
"8  c #483B26",
"9  c #423E3A",
"0  c #463D33",
"q  c #3B442B",
"w  c #364134",
"e  c #3C4335",
"r  c #37413A",
"t  c #3D423C",
"y  c #3E4A3B",
"u  c #3C4B37",
"i  c #4C451D",
"p  c #464518",
"a  c #514213",
"s  c #595317",
"d  c #7A4305",
"f  c #67561A",
"g  c #6A4B0A",
"h  c #43442C",
"j  c #474425",
"k  c #534729",
"l  c #575626",
"z  c #424436",
"x  c #41443D",
"c  c #49453B",
"v  c #434A3C",
"b  c #494A3D",
"n  c #484834",
"m  c #52483A",
"M  c #4C5136",
"N  c #5C5A31",
"B  c #614C28",
"V  c #6A5B32",
"C  c #686526",
"Z  c #796D2E",
"A  c #3C3E42",
"S  c #413F41",
"D  c #4A3F50",
"F  c #3D4341",
"G  c #3F4943",
"H  c #3F4349",
"J  c #434542",
"K  c #494544",
"L  c #444943",
"P  c #4A4A45",
"I  c #44454A",
"U  c #4A454A",
"Y  c #444A4A",
"T  c #4A4A4B",
"R  c #524A42",
"E  c #514646",
"W  c #485144",
"Q  c #4B4953",
"!  c #565044",
"~  c #813200",
"^  c #843B00",
"/  c #8A3C00",
"(  c #883A0D",
")  c #943817",
"_  c #872E0A",
"`  c #9E3F21",
"'  c #8C4401",
"]  c #884803",
"[  c #984706",
"{  c #995505",
"}  c #9B4817",
"|  c #8E5916",
" . c #A45A04",
".. c #A64915",
"X. c #AA5C14",
"o. c #A85716",
"O. c #B25A18",
"+. c #B15C0C",
"@. c #986109",
"#. c #AA6705",
"$. c #A4740B",
"%. c #A66616",
"&. c #B4631B",
"*. c #BB631C",
"=. c #B76916",
"-. c #AB731A",
";. c #B37713",
":. c #BC761A",
">. c #BA7B19",
",. c #B77508",
"<. c #9D4625",
"1. c #985924",
"2. c #AB4E26",
"3. c #AA5526",
"4. c #B55824",
"5. c #AE5932",
"6. c #B65431",
"7. c #85782C",
"8. c #836D37",
"9. c #8A7736",
"0. c #967938",
"q. c #966D22",
"w. c #B86624",
"e. c #A77E28",
"r. c #B47727",
"t. c #B86A36",
"y. c #B87737",
"u. c #A9722E",
"i. c #C2671C",
"p. c #C37419",
"a. c #C1770C",
"s. c #C36928",
"d. c #C57927",
"f. c #C67B33",
"g. c #C36336",
"h. c #8A7947",
"j. c #967C48",
"k. c #937B54",
"l. c #B5920F",
"z. c #AC881D",
"x. c #BA8517",
"c. c #B99219",
"v. c #BB8E01",
"b. c #97843A",
"n. c #928D3C",
"m. c #B48728",
"M. c #BC9624",
"N. c #AA873C",
"B. c #B58839",
"V. c #B49233",
"C. c #BEA63D",
"Z. c #C5891E",
"A. c #C99313",
"S. c #D3A718",
"D. c #CDA50F",
"F. c #CB822D",
"G. c #C78924",
"H. c #D2872A",
"J. c #C99726",
"K. c #D39527",
"L. c #C78535",
"P. c #D98A3A",
"I. c #CD9834",
"U. c #D59939",
"Y. c #E39834",
"T. c #D8A72B",
"R. c #DBB528",
"E. c #CFA935",
"W. c #E9B92C",
"Q. c #E3AA39",
"!. c #E6BD37",
"~. c #F4BD3C",
"^. c #DEC32C",
"/. c #E7C834",
"(. c #EDD337",
"). c #F3D537",
"_. c #EACE2F",
"`. c #9E8948",
"'. c #9D9257",
"]. c #8D894E",
"[. c #B68C43",
"{. c #BC9848",
"}. c #AD9454",
"|. c #A8A45B",
" X c #B9A668",
".X c #B9B86D",
"XX c #8F9064",
"oX c #C6994A",
"OX c #D49547",
"+X c #D09251",
"@X c #CEA348",
"#X c #D8A647",
"$X c #D4B845",
"%X c #C7A55B",
"&X c #D4A857",
"*X c #D8B555",
"=X c #C8BA4A",
"-X c #E8A84A",
";X c #EAB757",
":X c #EAB64C",
">X c #D8B564",
",X c #CDB36C",
"<X c #E9B764",
"1X c #E4BC76",
"2X c #D8C54D",
"3X c #EAC94B",
"4X c #EBD448",
"5X c #F6D748",
"6X c #EBD658",
"7X c #F8D85A",
"8X c #F0C954",
"9X c #F8E55B",
"0X c #F3E654",
"qX c #D9C865",
"wX c #DED565",
"eX c #D6C773",
"rX c #E7C666",
"tX c #E9D669",
"yX c #F7DA67",
"uX c #E9D476",
"iX c #FAD877",
"pX c #F4CD72",
"aX c #EBE76A",
"sX c #FDEA6D",
"dX c #F8E766",
"fX c #EBE47F",
"gX c #F4E97C",
"hX c #FAE978",
"jX c #FAF279",
"kX c #FFF069",
"lX c #D9D687",
"zX c #E9C986",
"xX c #F8D586",
"cX c #EFD690",
"vX c #F7E787",
"bX c #F9F288",
"nX c #FFF898",
"mX c #EEE983",
"MX c #FFFDA7",
"NX c #FFF8B7",
"BX c #FFEEA0",
"VX c #FFFCC5",
/* pixels */
"F H H G G y t r t t t x J L J x F F A % A J J S A A S 9 A 9 x % z e x v J H J I H G t t t t t G t t ",
"F F F J t t t y t t G G J J J v t % 9 F % F A J I I I J J J x x x v x x J G t J e G t t t t G y t t ",
"t t % t A t t t G J I Y L J G t t G t t v t v J L P J J v x c v x x x x x x $ e t e e e t v J G t % ",
"e t 9 % 9 t x t x G H J G t e y e t t v x x v x x x v x x % z e $ % % x x % t $ $ t t y t v t J t G ",
"e t t t J x 9 t x x J t t w q q t t % x x x x x t % x t 9 % 9 % r u r y L t t t r t F % J J I J F v ",
"e e t F A A 9 $ $ x % J t t u u x J x F x x J v x x x t x 9 J t r r t L G H G H F F F A A A J J F t ",
"u u t F F F t % % 9 S S J J J L J J L v J t G y t e t t t F F F H F F G G t t t t t t r % % x x t t ",
"e e r r A % t t t x I A I A J t t t t G G t t r t e t t t t t A H F % t t t e t t t % t t t e t t t ",
"w w r F F A # w e z v % J Y J Y J x J L J G % t t G t v H J I J S U U 9 z x z x e t % % % G t r t t ",
"w # & F F % r e v e e L t G Y Y K I J I Y T I F L L L P J J A A I J K K x 0 z e v % t G F t J v J J ",
"% % % F F t t t u W W u w r J I J K K L I I L L J x x x x t J F G r y y w e v & & J G F L L e e t t ",
"9 9 9 t & F F F t e e v v t Y J x c K I U J A A v t e z x 9 S S t t y t e t G r A A F H t e z w t t ",
"9 9 $ $ % % A F & L e q v v S U K b K K A A A J P P P P c c x x S I I L L t r L A I A A % t t z t t ",
"% $ $ # & & A A & + * X . . . 8 8 8 8 8 7 0 0 0 @ o 6 > 6 6 8 @ @ 7 8 6 j h o u O # % % F t % # r t ",
"& # # O # r r & + X s n.7.7.9.9.0.j.j.j.k.k.k.h.].j.h.9.9.8.9.j.`.0.9.0.7.7.7.Z ].p   n e # F r t t ",
"# # * * # w w q . ].lXmXgXtXC.V.[.[.[.0.1.f u.%X1X1X>XoXu.q.[.&X%Xq.-.@X$X$X6XgXfXeXC X q e # H J t ",
"O O q w t G q l .XbXaXdX6X6XE.$.;.%.r.&X&X;XQ.U.L.B.f.F.U.#X*XpX<X-.M.J.D.E.8X7X0XaXfXn.. q L G L x ",
"# # v n M p C lXnXwXaXaX9XdX6XJ.;.#.;.#X-XZ.,.,.=.&.&.+.+.#.K.pXiX:XT.R.R.W.7XdXdX6XbXnX|.i j z c L ",
"U D T 6 s n.qXjXbXjXgXdX0X9X6X6X8XT.:XK.Z.H.#. .{ 5 3 / { >.J.T.J.T.W.S.^.4XjXjXaXgXmXbXaX2X7.i h v ",
"D U 8 h.eX6XsXyXbXfXgXjXkXkXjXjXsXyXhX8XK.H.K.U.OXy.1.+X-XQ.K.x.G.Z.T.R.4X9XaXhXhXmXmXbXaX6XtX.XN @ ",
"J M  XiXtX4X7XhXMXMXhXdXsXsXdXtXiXxXxXxX<XP.#X<XNXVXNXxX<X-XL.f.y.OX#X&XrXuXiXiXhXnXNXBXtX9X8XiXlXXX",
"b M .XuXM.l.M.z.>XxXiXyX8X3X2X!.E.g 4 d | X.%.B.,XzXcXN.^ ' / ~ 1 3 1 1 1 4 d r.rXiXzX{.z.l.l.$XcXXX",
"u u @ '.uX@Xz.>.%.' U.:X:X4X5X5X9X$.4 3.....O.*.t.X.| t.( ; 2 2 ) } ; ; ( } { d.-X-.' r.x.c.8XeXN O ",
"u y G   Z uX*Xr.d.[ ' #.$.x.Z.K.Q.-X] 2.s.s.i.i.F.{ / / t.3.2.w.g.5.= ) 6.4.*.d.+.^ &.d.G.iX%Xi + F ",
"u L e n q l eX>Xx.:./ ....[ 4.O.} 2.<.2.i.i.i.s.P.[ [ s.O.d.d.d.OX~ 2 2.4.s.f.X.^ %.>.I.iX'.. n x t ",
"L L v u y O p  X*Xx.w.[ 2.2...g.} ; _ 4.i.i.i.p.P.' [ s.d.p.K.Y.L.3 o.s.P.H.&.' o.r.@XrXZ   y t t v ",
"J L v J S P x j 0.*XB.O.} 4.O.o.g.) = ` s.*.p.d.P.[ O.O.a.H.S.Q.{ / p.Y.P.+.[ &.>.@X Xl e W K P J x ",
"A Y J L U I S c , C %XoX&.X.s.&.4.4._ : O.i.a.Y.U.X.w.+.a.K.T.G.^ 4.P.H.~ [ w.y.&Xb.> v L T x x x 9 ",
"T J T t x P x n u q k |.@X;.=.=.O.O.<.; ..:.A.W.Q.>.=.+.i.Z.K.@.' OXt.5 { I.#X%XZ   + L v x P J t t ",
"S J J J P $ x u u G M i `.rXU.:.p.*.5.: 5 >.A.W.~.W.U.:.#.p.H.] r.w.~ 1.#XiX{.s   v L # v v 9 J J v ",
"H G v $ $ v t r J % b n p Z tXpXd.=.f.} ; w.Z./.(.).).S.,.~.>.X.w.5 @.U.xXn., j c S $ x 9 J P % J J ",
"G r e L e % # % % L L P T 7 s uXxXr.w.+Xd d Z.R.5X(._.W.~.:X#.F. .%.U.rXZ p z J I I 9 c J J % F J J ",
"t t J L x % # & 9 x x J x c h i  XzXr.V.;X@.#.T.5X/.D.A.7XK.K.Z.%.%X%Xf , ! L Q Y I % x c J J F L J ",
"% t x J v % % & % x J J x x x n . `.*XV.$X7XA.T.5X^.D.v.!.!.K.>.V.`.a , R J Q I Y J c x v t G t L J ",
"% x x J x % % % % x J x x x J c m , V }.C.6X5X/.5X_./.D./.3XM.B.8., 8 m x I Y Y I v v v z v t t J J ",
"% % x x x x t 9 x 9 t x x x x x m k , B n.2X7X5X)._.R.R.5X$Xb.f , m R K I F F L J L b c c x t G x J ",
"x x % % x x x J J x 9 x J L J x 7 b R 0 l 0.tXdX5X(._.4XqX9.i 7 D D T L G G y r J K K K v J F J J x ",
"x x % % % % x J x x t J J P J v v e L K E k C wXtX/.2X*X9.8 z T D E H L G t y e v J L U S J J J x x ",
"x x % % $ % x x J x v J P L J x e u W L E R 8 V `.0.9.V 8 m v u c L y t u u u v v J I S J F F J % % ",
"% x x % & 9 x x t 9 x J L P P x v v r L L K T 7 , k k 0 m c v y e e e v u y v v J J J S A J e t % $ ",
"% % t % % % t 9 J J J P x J P L Y Y G F G t v n n m c J K J y t e t $ $ e v t x J J x x x e e e t % ",
"x x % % % % % x x J P L L x J L H H H t % e u z c K J v v J t t t t t % % t J x K x K x z z e e t % ",
"% x t % % % x % x J J J J x x J A A A 9 x z z v L J L t t x J 9 J S S % % A J S x x c x v v J t % % ",
"t 9 9 x % t % x x J L P J J x J J J J J x K L L H Y G t e $ S S J J S S A A S % x x L v J L J J 9 % ",
"x x 9 t 9 x t % x J J P P P J x x x x J K K I I Y H G G % $ S J J J % A % A 9 J t J L J J L I J % % ",
"t % x % x x J x J x J J J x x v x x x c K I I I J J G y % % 9 J J 9 9 % x t x t t t v J J Y I S J % ",
"x x t x x J x J P v J x J x x % x 9 x x K x J t 9 x G t t $ % x v e e t t t t t t L v G L x x c 9 t ",
"% % t 9 x x J x J x x J x J x J J J K K K c t x 9 v L G % % z v x t e t v t t G t y J v v x v c v t ",
"t t % % r t J L L t L L v J J x J 9 J % J J x x x x x x % % % x % t t x t t t t t t t t t t t J r t ",
"t t t % r v J L L J G L J J v x t J x x x J x J J x x 9 % % t % t % 9 x t t t t t t t t t t t t t % "
};
