/* XPM */
static char *_al_removebg_preview__1_1706311070[] = {
/* columns rows colors chars-per-pixel */
"50 50 206 2 ",
"   c #010101",
".  c #0C0301",
"X  c #070803",
"o  c #0B0A04",
"O  c #0B0B0A",
"+  c #080709",
"@  c #120501",
"#  c #130D06",
"$  c #1B0D06",
"%  c #160A06",
"&  c #0F100B",
"*  c #14110C",
"=  c #1C140E",
"-  c #141007",
";  c #131413",
":  c #1F1912",
">  c #1C1C1C",
",  c #1A1715",
"<  c #200F08",
"1  c #22140B",
"2  c #29190C",
"3  c #321B0E",
"4  c #3C1D0B",
"5  c #241B12",
"6  c #2B1C13",
"7  c #211B16",
"8  c #331D11",
"9  c #391F10",
"0  c #39200D",
"q  c #2B2014",
"w  c #2E251E",
"e  c #352314",
"r  c #3B2415",
"t  c #33241A",
"y  c #3D2819",
"u  c #1E1F23",
"i  c #242523",
"p  c #292724",
"a  c #2A2A29",
"s  c #272828",
"d  c #312D28",
"f  c #2F322C",
"g  c #32342E",
"h  c #3D3329",
"j  c #2F3430",
"k  c #333732",
"l  c #383736",
"z  c #353B35",
"x  c #3A3C36",
"c  c #363D39",
"v  c #3C3E3A",
"b  c #45250E",
"n  c #49240A",
"m  c #562A0D",
"M  c #592C0E",
"N  c #53270C",
"B  c #462717",
"V  c #442A16",
"C  c #492A14",
"Z  c #4B2B17",
"A  c #552D14",
"S  c #5C2E11",
"D  c #522E18",
"F  c #4B331C",
"G  c #4A3419",
"H  c #51321D",
"J  c #5B3317",
"K  c #62351A",
"L  c #683719",
"P  c #4A2D22",
"I  c #423123",
"U  c #4F3A21",
"Y  c #4B3D2C",
"T  c #483629",
"R  c #5A3921",
"E  c #563926",
"W  c #403F3A",
"Q  c #403A32",
"!  c #5E3E31",
"~  c #6C3B22",
"^  c #633926",
"/  c #773F24",
"(  c #37413B",
")  c #3D423C",
"_  c #3D463B",
"`  c #7E441F",
"'  c #41433E",
"]  c #474638",
"[  c #574838",
"{  c #5D412B",
"}  c #63402D",
"|  c #774428",
" . c #614536",
".. c #744A37",
"X. c #79573D",
"o. c #65553E",
"O. c #3B3F40",
"+. c #3E4340",
"@. c #3D4845",
"#. c #424641",
"$. c #454943",
"%. c #4A4B45",
"&. c #4B4D49",
"*. c #484742",
"=. c #544E4A",
"-. c #4E524B",
";. c #5B5344",
":. c #52544E",
">. c #5A594D",
",. c #4C4D51",
"<. c #4F5150",
"1. c #545552",
"2. c #555A53",
"3. c #595B55",
"4. c #5C5D5A",
"5. c #5A5657",
"6. c #6C5D4B",
"7. c #635C54",
"8. c #7E5843",
"9. c #5D625B",
"0. c #7F604C",
"q. c #6B6355",
"w. c #62655D",
"e. c #6C655A",
"r. c #686558",
"t. c #766A5B",
"y. c #5E6460",
"u. c #636662",
"i. c #666A63",
"p. c #6A6C65",
"a. c #6C6E69",
"s. c #686666",
"d. c #746D62",
"f. c #796E65",
"g. c #667169",
"h. c #6E726B",
"j. c #72746D",
"k. c #7C766B",
"l. c #7D7A6D",
"z. c #73776B",
"x. c #747671",
"c. c #757A73",
"v. c #7A7C75",
"b. c #7D7E79",
"n. c #777C78",
"m. c #834B29",
"M. c #8D522E",
"N. c #94592F",
"B. c #8D5A34",
"V. c #8A5935",
"C. c #945C35",
"Z. c #9A5D35",
"A. c #935E3A",
"S. c #8C623C",
"D. c #93633B",
"F. c #9B633C",
"G. c #A4612D",
"H. c #A56434",
"J. c #A5663A",
"K. c #AB6C3B",
"L. c #A5683A",
"P. c #B06E3A",
"I. c #AD713F",
"U. c #B5733F",
"Y. c #865B41",
"T. c #8E6142",
"R. c #986A42",
"E. c #97694D",
"W. c #8F6D54",
"Q. c #AC6D40",
"!. c #A26B44",
"~. c #B26F42",
"^. c #AE7240",
"/. c #B37344",
"(. c #BC7A46",
"). c #B57649",
"_. c #B67B4C",
"`. c #BC7B4A",
"'. c #B77747",
"]. c #847663",
"[. c #827E73",
"{. c #C17E4A",
"}. c #77817A",
"|. c #7D817B",
" X c #7A8176",
".X c #B88051",
"XX c #82837D",
"oX c #85867A",
"OX c #BA8960",
"+X c #C3814B",
"@X c #7E8481",
"#X c #848681",
"$X c #868983",
"%X c #8A8B85",
"&X c #8D8F8A",
"*X c #898586",
"=X c #928E8F",
"-X c #8D918A",
";X c #92938D",
":X c #969597",
">X c #9FA09B",
",X c #9E9FA1",
"<X c #A9A8A9",
"1X c #AEAEB0",
"2X c #B8B8B9",
"3X c #C4C1C1",
/* pixels */
"' #.#._ _ ( ) +.' $._ _ _ ( ( _ $.$._ _ ) ( ) ( c x c v v W W ' #.#.#.#.+.+.) ) ) _ ' ( x ) ) ' ' ' ",
"' #.#.#.@._ _ +.( ) ' _ _ _ +.#.$.' ) ( _ :.2.2.:.2.3.2.1.#.*.*.$.+.c @.+._ ' #.) ' ' ) x ) ' ) ' _ ",
"' #.#.#.#.( _ ( ' v v ' #.$.$.#._ ) ) ' 3.%X%X%X;X&XXX%Xx.' v #.) _ ' ( _ ) ) ( ' #.' ( ) ) ) ) _ ) ",
"' ' #.' +.) ) ) v v ' ' ) ' #.#.#.] ' ) -.XXb.b.c. Xa.j.w.v ' l ) #._ _ c ) ' #.' #.' ) ( ) ' ) _ ) ",
"( ) ) _ ) ) ) ' W W W ' #.#.+.+.W v #.v *.x.k.b.v.oXp.p.:.k _ z ' _ _ _ ) ) ) ) _ #.#.) v ) +.) ) ) ",
"_ _ ( x ) ' ' ' ' *.v v O.O.O.+.#.#.#.' ' s.v.v.oX Xp.z.-.) _ _ ' $.%.' ) ) ) ) _ #._ ) ) +.) _ ) ) ",
"( ( ) ) ) ' ] v x ' v v O.v +.@.O.&.1.5.=.w.v.x.d. X Xc.:.g.w.:.' ) z ( x l v ) ( ) ) ) ) +.#.+.) ( ",
"( ) ) W ' ' ] W v ' c #.y.u.&._ $.s.@X#X3.:.x.d.j.c.c.z.9.oX$Xc.i.$.$.i.h.-.c ) ) ) ' ) +.#.#.+.v ) ",
"c z z x x x x x ) ) _ i.}.}.9.9.#Xv.v.h.i.<.$Xb.XXv.b.h.a.x.a.a.XXw.j.;X%Xc.' _ v ( _ #.#.+.#.) ) c ",
"c ) v x v v W x v ) g.}.g. X}.9.a.[.XXv.c.5.u.[.v.j.x.s.x.b.n.x.p.3.-X$X|.-Xa.) #.) #.#.#.#.+.) ) ) ",
") x ) v W W ' v ( ( 9.}. Xz.z.l.>.d.l.;.d w 7 i 7 i i > a ,.a.n.3.XXXX$XXXXXh.' $._ ) ' ) ) ) x ) x ",
") ) ) ' W ' v ( _ ( ( 2. Xz.z.oX].Y I q 5 : O   +         + , l a.&X|.v.%Xp.#.) ' ) ) ) ( ( ( ( x ) ",
"( ( x ) v W O.c ( ( 2.9.r. Xk.t.R E U y t 8 * .     + +         p i.b.v.9.s.2.' ) ) ) ' _ ) _ _ _ ' ",
"_ ( ( ) v v c O.( ( oXoX>.6.6.{ X.V.R Z 9 8 $ @ +       +         O :.2.p.%X%X%.) c ) ) _ _ #.#.#.#.",
"_ _ ) ) v c v c ( g. Xz. X[ { o.E.T.K A 4 3 $ .   +             +   O 1.%X|.$Xh.' ( c ' ' ' #._ _ ' ",
"_ ( ( z l l l c ( i. XoXW.{ W.R.!.A.L A Z 8 < .       +               a x.#Xb.c.%.' ) ' #.$.$.' +._ ",
"' ) ( k k z z ( h.r.r.k.X.| OXL.Q.Z.L A B 2 $ .           +             $.h.i.p.2.' $.' ' v #.' ) x ",
"' z k k c ( k -. XoX Xo.S.L..XI.~.Z.K J B 6 $ . .                       ; 3.j.c.h.$.' ' ' v *.' ) ' ",
"v x k k ( ) _ h.z.c. Xo.S..X.XP.~.N.S D r 2 $                             &.v.j.c.p.2._ x v ' ' ' _ ",
"x k j c #.#.@.u.x.u. Xo.S..X.XK.~.Z.S Z r 6 $ .       + +                 z j.p.j.g.%.] ' ' x $.#.' ",
"z k k ( +.@.2.i.h.j.e.r S.I..XK.Q.F.K D y t 5 % +     +             +     & 3.h.u.9.:.:.) ) *.%.#._ ",
"v x z z v 5.n.|.v.&Xz.G F.H.U.P.~.Z.~ R e t p =         +                 X w.%X#X-XXXh.' ) *.#.#.' ",
"' z g k #.x.b.x.p.z.e.U F.K.{.U.).A.K H 8 6 p :       +           +         w. X X|.c.c.&.) ' &.#.#.",
"' ) ) ( v |.b.oX$Xv.e.G D.'.{.P.Q.A.J P t 6 1 ,                           X j.|.c.|.|.|.' ) &.' #._ ",
"' ' _ _ #.s.|.c.v.[.d.F D.'.+XP.J.B.M B e 5 = *                             c.$Xc. Xb.j.#.' #.%.#.#.",
"' ' @.$.$.2.i.i.u.d.7.E F.(.{.P.H.B.A B e 5 = *                           X p. Xw.h.p.w.v ' %.*.#._ ",
"#.$._ $.v v ' -.>.7.=.G D.(.(.H.J.A.A b 2 $ : *                           X %.2.9.-.v ' g v #.#.+._ ",
"' ' #.$.#.) ) 2.;X%Xe.F D.(.{.G.K.F.N b 2 1 5 * .                         X i.%X|.2.x ' W #.' v #.' ",
"' ' _ $.&.$.#.5.=X*Xd.V A.`.{.G.Q.C.N b e q 5 #                           X j. Xn.:.z ' ' ' ' $.#.#.",
"' #.' @.$.#.z :.#X[.f.F D.'.{.G.K.A.m B e q 5 o                             j. Xn.9.' ' x x x W @.#.",
") ) #.#.$.*.( :.b.[.e.G A.).+XP.I.F.S C 0 1 $ .                           X p.h.w.:.) ' ' W c x _ ' ",
"v ( ) ) #.#.v :.x.x.7.U D.`.(.H./.C.M n r q # .                           X 9.c.i.:._ ' v x v ' ' _ ",
"c +._ ) ' x v W 1.&.[ G C./.{.H.Q.M.S N 8 5 -                             O -.2.3.] ] ' v v x v ' v ",
"( ( ' ' l 3.v.XX@X[.q.D B.'.{.H.Z.M.N 4 y q o       + .                   X w.v.v.j.j.s.W x x x W v ",
"c c ' ' x i.|.#X@X#Xt.G D.'.{.Z.N.m.M b 0 5 -                 X             a.j.p.v.oXb.' g l W v x ",
"c c v ] c h.c.|.x.x.q.V F.~.'.Z.M./ m b e 1 -                             . z.j.p.oX*Xv.' x W g x x ",
"v v v W W v.|.#X Xg.r.G S.L..XC.m.| N 4 e = +                               j.$Xv.[.x.v.*.v v x x x ",
"c v W ] l j.|.|. Xg.r.G B.N.L.` / / B 9 2 @                 X             X p.$X[.oXXXv.%.x x W v x ",
"v O.#.W g :.a.h.9.2.o.G S.N.F.| ^ ^ B 3 . . +               X     O O O O ; -.p.4.a.w.&.g ' ' x v v ",
"O.*.#.W l g ) ] g.p.;.G S.m.m.| ^ ^ 3 @   . + + + O O + ; i f z v @.v %.) k *.w.h.1.x g k ' x x x v ",
") #.' W x ' l :. X$Xf.Z T.| | ~ ! 8 % . . + + ; ; u s s l ,.O.' #.v v $.#.x j.$X|.u.k ' #.' ' v v x ",
"@.#.' ' v ' x 1.v.k.f.I Y.| | R B 1 % % ; , u s l *.,.5.7.s.s.,.O.v #.W ' #.j.b.x.2.g ) W v ) v v v ",
"+.+.' *.] ' v 5.v.c.f.B 8...8.P < % , d O.,.5.y.a.*X*X:X=X:X<X&Xl v #.v ' *.s.v.n.w.l v x x v v ' v ",
"( ( ' #.' #.' 5.|.s.e.I 0.^ P w Q W ,.s.n.*X:X,X1X2X2X3X3X3X<X1.l v ' W #.#.3.v.XXs.x x x x x x v ' ",
") ) ) ' ' ' W *.j.9.:.h [ E Q *.*.&.4.@X:X<X1X2X<X,X=X*Xj.4.<.v #.v v v ' #.1.x.n.u.v x x v W v v v ",
") ' ' ' W O.W W O.) %.] T Y W #.#.v ' ,.y.y.5.&.*.*.' d f x ' #.v v W #.*.v k x x x x ' ' ' ' x x v ",
") ' ' W ' O.' v #.+.' ' Y ] *.$.#.#.#.O.v v ' ' ) ] #.) _ ' #._ ' ' W v ' #.*.*.*.$.#.W ) W v ' x ) ",
") ' ' ' ' ' #.O.+.$.+.' ' #.@.@.#.v ' $.$.%.' c ' ' ' ' ) ) $.x c ' ' #.#.' #.#.#.#.' ' ' v ) W x ) ",
"_ ' #.v v v ' v ) v +.#.$.$.$.@.' ' ' ' ' #.$.' #.' ' ' v ) W ) ' ) ) ) ) ) ) ) ) ) ) v ) ) ) ) z ) ",
"' ' _ _ ) ) ) ) ( v ' #.#.' $.#.$.' ' ' ' ' #.' ' ' ' v v v c ] ) ) ) ) ) v ) v ) ) ) c ) ) ) ) l ) "
};
