/* XPM */
static char *pngwing_com__2__removebg_preview__1_1706310064[] = {
/* columns rows colors chars-per-pixel */
"50 50 224 2 ",
"   c #010304",
".  c #0A0B0B",
"X  c #050B0C",
"o  c #120D00",
"O  c #0F110D",
"+  c #11150A",
"@  c #061713",
"#  c #151516",
"$  c #1B1614",
"%  c #161C1A",
"&  c #1C1C1A",
"*  c #141817",
"=  c #0C0F16",
"-  c #2C1909",
";  c #211E1D",
":  c #1C221C",
">  c #14211E",
",  c #22221C",
"<  c #362B1E",
"1  c #2B2206",
"2  c #011C23",
"3  c #021B29",
"4  c #1A1D20",
"5  c #001E3A",
"6  c #211F20",
"7  c #02232C",
"8  c #0A2329",
"9  c #1D2322",
"0  c #142626",
"q  c #1B3C39",
"w  c #242423",
"e  c #2B2522",
"r  c #242924",
"t  c #2A2926",
"y  c #2B2C2B",
"u  c #26282B",
"i  c #332B22",
"p  c #312C2C",
"a  c #392B2A",
"s  c #2F332E",
"d  c #33322E",
"f  c #3F3B2D",
"g  c #39362C",
"h  c #2F2F31",
"j  c #312F30",
"k  c #2D3332",
"l  c #223836",
"z  c #333432",
"x  c #3B3635",
"c  c #363B35",
"v  c #393C36",
"b  c #363B39",
"n  c #3B3E39",
"m  c #353739",
"M  c #4A2B0B",
"N  c #413B2C",
"B  c #463B25",
"V  c #423E3C",
"C  c #443C33",
"Z  c #523F31",
"A  c #503A2C",
"S  c #3C4137",
"D  c #3D423C",
"F  c #3D483C",
"G  c #39473A",
"H  c #2F443D",
"J  c #654518",
"K  c #49412D",
"L  c #5A4328",
"P  c #434335",
"I  c #4B4434",
"U  c #4C4932",
"Y  c #41443E",
"T  c #4A443D",
"R  c #434A3C",
"E  c #4D493B",
"W  c #534836",
"Q  c #54473B",
"!  c #59542E",
"~  c #6C5131",
"^  c #002849",
"/  c #00375A",
"(  c #3B3F41",
")  c #293C42",
"_  c #003863",
"`  c #413F40",
"'  c #114A4D",
"]  c #294648",
"[  c #3D4442",
"{  c #3E4944",
"}  c #3D4C4A",
"|  c #394746",
" . c #3E5251",
".. c #305352",
"X. c #02406D",
"o. c #085A6C",
"O. c #16557A",
"+. c #0A4E76",
"@. c #096570",
"#. c #327B78",
"$. c #256E74",
"%. c #434641",
"&. c #494542",
"*. c #454943",
"=. c #4A4A45",
"-. c #43464A",
";. c #444C4B",
":. c #4C4D4B",
">. c #524E4C",
",. c #534A41",
"<. c #43514E",
"1. c #4C514B",
"2. c #495142",
"3. c #56544E",
"4. c #485351",
"5. c #555554",
"6. c #494C51",
"7. c #6A5D4B",
"8. c #7A594A",
"9. c #41615C",
"0. c #696856",
"q. c #475C66",
"w. c #676764",
"e. c #706F6A",
"r. c #7A7966",
"t. c #6D7478",
"y. c #717274",
"u. c #976C37",
"i. c #947148",
"p. c #88775A",
"a. c #987B59",
"s. c #83604A",
"d. c #A27E5E",
"f. c #887A6D",
"g. c #9C835A",
"h. c #AD8B5D",
"j. c #B78F5B",
"k. c #8B877B",
"l. c #988C7A",
"z. c #9D947B",
"x. c #928768",
"c. c #A58B79",
"v. c #A79476",
"b. c #B29971",
"n. c #B7A17C",
"m. c #C08F54",
"M. c #D49758",
"N. c #CB9B6D",
"B. c #CBA97C",
"V. c #D2AD74",
"C. c #DAAD70",
"Z. c #E7AD72",
"A. c #EAB877",
"S. c #F0B476",
"D. c #FCCB7B",
"F. c #FFD07D",
"G. c #005A82",
"H. c #0A6F8A",
"J. c #28758B",
"K. c #217A99",
"L. c #2C6E86",
"P. c #157ABB",
"I. c #0A6CA9",
"U. c #237BA9",
"Y. c #027EC3",
"T. c #037AC5",
"R. c #058899",
"E. c #2F878F",
"W. c #1C87BF",
"Q. c #2888B8",
"!. c #479595",
"~. c #42BEBE",
"^. c #0284C9",
"/. c #0986CB",
"(. c #158ACA",
"). c #178CD2",
"_. c #1395D4",
"`. c #2292D4",
"'. c #09AADE",
"]. c #17A3DD",
"[. c #24B9D8",
"{. c #20ABD2",
"}. c #0DBDE9",
"|. c #11B5E8",
" X c #3BB3E5",
".X c #21AFE3",
"XX c #61B8D6",
"oX c #2BC7D5",
"OX c #0DC8E7",
"+X c #0CCBF1",
"@X c #0BD4F0",
"#X c #0ADAEA",
"$X c #20CDEF",
"%X c #24DCF8",
"&X c #28CAF0",
"*X c #3AE2EA",
"=X c #30E9FB",
"-X c #51E6ED",
";X c #909085",
":X c #A29B8B",
">X c #B7A48F",
",X c #9FA3A2",
"<X c #ACB2B2",
"1X c #C6B28C",
"2X c #C6B497",
"3X c #D5BD97",
"4X c #D2B386",
"5X c #DAC09D",
"6X c #F9C788",
"7X c #E4C797",
"8X c #F2CD8E",
"9X c #CFC2AF",
"0X c #D1C1A0",
"qX c #C8CBB4",
"wX c #DBCDB7",
"eX c #E8C9A4",
"rX c #EAD3AD",
"tX c #F5DCB3",
"yX c #FEE1AF",
"uX c #FEE7BA",
"iX c #EEE0D3",
"pX c #FFFEDD",
"aX c #EBE2C5",
"sX c #FEFAE3",
/* pixels */
"D D D G n D D D D D S D D D D [ F D D v D D Y D Y v Y n P n Y n %.*.F D n D D D F D F [ D Y D S [ %.",
"n S D D D n n G D D D D D D D D v n F *.Y Y *.F v *.S Y n D n Y %.%.%.D D D D [ [ D Y n Y D D D Y [ ",
"D D D D D D [ D D [ F D D [ D D *.F *.%.%.%.D %.*.n Y Y n %.Y Y [ F D D D D D D F D D D F [ D D F D ",
"D D D D D D D [ n D D S G n D D n *.v %.=.Y %.n Y n %.Y n P Y v D D D D D D D S D D D %.Y [ D F D n ",
"D D D D S S D D n D S b n D [ D [ Y =.b y Y %.s & =.n n %.n %.%.n D D D D D n D n D D %.[ D D b D n ",
"c D c c b v b b v n D b n F %.F %.%.5.z O n =.t w y %.[ :.%.%.=.%.F D D D D D D D D F %.%.F D n %.F ",
"b S c c S b v v c D F b D %.%.D w Y %.p z y :.& 1.y %.=.z %.[ D %.D D D D D Y F %.%.*.%.%.D D S [ Y ",
"D D D D D S D D v D [ S D %.*.D & w :.# 5.z z w 1.:.w %.. n %.( D F D D D [ %.*.[ Y F D S n n b D D ",
"G D D D S D D F c %.S n F n =.s m ` 6 6 5.m # u =.5.y m w y -.%.%.S [ S D D D [ D D n D n n n n v b ",
"b S S b v H b S n b D [ D F %.t p w.$ 6 >.` . z ( 5.m # n y n %.c [ D v D D [ F F D D D D D D D S n ",
"D D D b S b c S F c n v b b r : u w.6 w -.n # m n >.(   -.n z z * S %.D b b n D n D D Y F [ %.F Y [ ",
"%.F [ D D D D D b c c D S s + + j 6.V u V m y k h -.z . n -.& t y D %.%.F D S n n n n [ F %.D %.F F ",
"%.%.[ D n n S c S z c D c y r : u -.x w z z w p y ( y # x V . &.S k *.F %.[ D D b D [ Y F %.[ D %.%.",
"D F F n c c c k b v k b S r t s ; x u w y p y t y p y w m j 6 >.v 9 *.F %.S b S D F %.%.*.*.Y F %.D ",
"D %.n v z c z c s D D F 1.r : 9 w y w w y w y w j y k t d z m ` S s %.S F D D n F %.*.F Y %.R D n S ",
"D F D b z c S c S D *.%.;.: > 0 3 8 4 3 3 3 3 3 2 7 @ 7 7 2 7 8 0 k ;.-.%.D %.%.D %.%.n V [ F D D D ",
"P S G s m b n S R Y *.=.1.@ @ 3 5 ^ ^ / _ _ G.G.G.H.H.R.R.R.R.E.' q  .} =.%.*.Y Y *.%.V n Y Y D *.%.",
"P S c c m ( S D F =.1.1.| ' J.K.U.Q.Q.(.T.).`..X.X&X$X%X%X%X=X-X!.q | <.-.%.&.*.*.*.%.V V Y Y D Y F ",
"F S c s b [ { F 2.R R } ' J. X^.(.T.(.T.T./.^.].|.}.+X+X+X#X#X=XE.H  .| %.-.Y &.*.*.%.%.Y Y %.F F D ",
"F G g d x ` *.R R R R <.q K..XY.Y.T.).`.T.T.T._.'.'.}.OXOX#X#X*X#.q <.1.%.:.&.&.*.=.%.` Y Y *.*.[ %.",
"%.D v g x %.-.*.=.R R  .' L. XP.^._.(.Q.I.P.`.).`._.{.[.[.oXoX~...]  .<.Y =.*.*.[ *.*.%.%.*.=.R Y [ ",
"[ [ n c m n Y *.*.*.[ ;.) $.XXQ.Q.K.H.L.O.+._ O.o.o.o.@.@.o.$.#.q } } R &.%.D *.D { -.%.%.&.&.Y D S ",
"[ [ D b b S F *.%.-.-.6.1.l 9.H 1.f U p.x.f.,.7.:XqXqXqXr.3.r.0.:.{ Y =.&.R Y S S F [ [ *.=.&.Y n n ",
"F F | ( b D Y P =.-.-.-.2.g 0.1X4XN.J J J ~ a.d.i.h.uXa.~ s.8.W Y 1.:.Y =.Y P D n S [ D F %.*.Y %.F ",
"S F F | [ *.P D D R | [ P B ~ j.C.Z.B.n.>Xf.7.L L h.rXL p.Z f.3.&.:.&.R Y Y P Y %.F D [ *.=.*.T %.=.",
"P F F [ { *.R P R D F { P z.7Xj.M.S.8X4XpXsX9X- a.3XtXb.sXiXk.V >.>.=.=.%.P R =.%.Y [ [ *.&.Y Y Y %.",
"R R Y -.;.*.F [ F =.F *.N 2X7XA.Z.Z.D.Z.V.7X3Xc.4XyXuXB.2XwXl.C >.>.=.*.Y Y %.=.%.%.%.D F %.Y Y Y %.",
"R Y Y %.%.*.{ [ { %.=.T f x.tXV.6XS.D.D.D.V.4X5X0Xh.b.uX0XwX:XN >.:.:.;.R F %.&.%.&.[ D F [ %.Y D F ",
"-.%.V &.%.=.} | ;.-.&.V E K rXyXu.A.D.D.F.6X7Xc.A 1 1 p.aXsXk.j >.&.:.*.R %.%.&.%.V ( D D F %.Y Y D ",
"[ -.` T Y R } } -.&.T &.C K 7.p.M h.8X8XV.i.M - a &.E P C r.3.&.:.` %.*.F Y Y %.` &.%.[ [ D Y &.%.%.",
"H [ Y T E R %.[ R Y Y V -.[ c N U K x.! - o $ p p m D 1.w.v , >.V z D [ G [ Y &.` &.%.n b S n Y %.%.",
"H G D P P Y Y F Y C Y n ( | ;.1.R ;.1 + : 4 & u y j [ 1.[ u >.,.d t b [ F [ n &.&.&.-.[ S v V Y Y D ",
"S S n D Y Y %.Y V D Y n n D %.=.;.[ &.2.t * 4 = 6 6 h y u -.&.e e.Y Y D Y F Y Y Y Y Y n n n Y Y D D ",
"n n n Y Y Y Y Y Y Y Y n n V Y ;.D =.=.=.:.n 4 X & 6 & h ( %.e k.e.v *.*.Y V %.%.n &.Y D v n V Y n D ",
"n x n Y Y n V D Y %.Y n v n %.%.P Y R -.[ D u y y z p x &.p y.,X%.Y >.*.%.D %.%.Y %.%.n x v D Y v v ",
"D n n D Y D n V Y Y %.n v Y Y Y P P %.=.D F 9 4 # $ x i a Z <Xy.z *.1.Y %.Y Y Y n %.%.V c v n n n n ",
"%.n v V Y n n n n %.&.n n n Y Y N Y Y -.d d $ z & * u i ~ ;X!.Z -.Y Y %.*.Y %.Y Y &.%.n v c v v v v ",
"%.n v n Y Y n n V D Y Y Y Y Y Y &.*.F c N W i 6 9 l m y v.c.t ;.=.Y D Y =.%.%.Y Y Y %.n v v v v v v ",
"Y v v n V D n Y D n n Y V Y Y Y F H Y P n.tX>Xx q.q.q.t.;X< T >.n =.%.D =.=.Y &.%.Y %.Y x v v v c d ",
"Y v v n Y D Y Y %.n n D %.Y Y F { ;.R a 1XrXc.a ) ..) 6.T B &.=.=.D Y Y %.=.%.D %.%.Y Y Y v v n v v ",
"v n n Y Y n Y Y Y n n Y Y Y Y %.;.-.%.C W 7.e       9 ; B U Y ;.=.Y %.Y %.%.Y Y %.Y Y Y D n v v v n ",
"v v D Y V v n Y Y n v V Y Y Y %.=.-.&.T N T u X 0 * ` ,.W I %.| -.%.%.Y Y Y Y V Y Y V n n n v v v v ",
"n n Y %.D v v n Y n n Y %.D %.=.%.F &.&.W E $ = % X y -.&.Y -.( F %.%.%.Y Y Y n Y V n Y V n v v v v ",
"V Y Y %.V n n n V n n D D Y %.*.=.=.=.T E N     k r u n &.Y ( ( Y n Y Y &.Y Y Y n n D Y Y Y n v n n ",
"%.Y Y %.D n n D Y n n n Y %.%.=.&.%.%.&.Y n c s m v k v Y P b %.m n Y Y Y Y %.Y Y S n D Y Y n n Y n ",
"%.Y Y Y Y V %.V V n Y Y n %.%.%.Y %.-.n n [ D *.=.*.&.%.T V D F n Y V Y %.%.Y Y Y V n v v n D V n D ",
"D Y Y Y Y Y Y Y n Y n n Y %.&.*.Y Y *.b -.&.v &.=.%.Y Y n Y %.D n n D Y Y %.%.Y %.Y v v v n n n Y V ",
"n V Y Y Y Y Y Y n Y Y D V %.%.R Y Y [ -.D n :.&.%.*.Y n Y Y n %.n n n Y %.&.%.Y Y Y n x v n n n Y Y ",
"n n D Y Y Y Y D Y V D Y Y %.%.%.&.Y D %.Y =.%.=.%.*.Y Y n Y Y Y V D D Y Y %.%.%.Y Y n n n n n v Y V ",
"n n V Y V D V Y D D Y Y Y %.%.%.*.Y Y Y Y %.%.%.Y %.%.n v V Y Y Y n V Y %.%.*.&.Y Y n n D V n v D D "
};
