/* XPM */
static char *Brick2_Texture__1_1706309767[] = {
/* columns rows colors chars-per-pixel */
"50 50 61 1 ",
"  c #2F342E",
". c #313630",
"X c #323731",
"o c #353732",
"O c #333832",
"+ c #343933",
"@ c #363833",
"# c #373934",
"$ c #353A34",
"% c #363B35",
"& c #373C36",
"* c #383A35",
"= c #393B36",
"- c #383D37",
"; c #3A3C37",
": c #3B3D38",
"> c #393E38",
", c #3A3F39",
"< c #3C3E39",
"1 c #3D3F3A",
"2 c #3B403A",
"3 c #3C413B",
"4 c #3E403B",
"5 c #3F413C",
"6 c #3D423C",
"7 c #3E433D",
"8 c #3F443E",
"9 c #40423D",
"0 c #41433E",
"q c #40453F",
"w c #42443F",
"e c #434540",
"r c #414640",
"t c #424741",
"y c #444641",
"u c #454742",
"i c #434842",
"p c #444943",
"a c #464843",
"s c #474944",
"d c #454A44",
"f c #464B45",
"g c #474C46",
"h c #484A45",
"j c #494B46",
"k c #484D47",
"l c #4A4C47",
"z c #4B4D48",
"x c #494E48",
"c c #4A4F49",
"v c #4C4E49",
"b c #4D4F4A",
"n c #4B504A",
"m c #4E504B",
"M c #4F514C",
"N c #50524D",
"B c #51534E",
"V c #52544F",
"C c #535550",
"Z c #545651",
"A c #565853",
/* pixels */
"66qrq66,rrr86666dyww44ww;;1144w4rirrrq63r63,38qqrr",
"6qrir86388686qqryyw1114wyyyywyyw8qq88686rq323888qq",
"qqrrrq863336qqriywwwwwwyhhsyywww6632368qiq63666688",
"6qqqr88622366riiwww1wwwwwww411;;r632238qiq636862qq",
"366666666666668r111144ww41111;;;prq62368rr86683,rr",
"2223636688666666wwwwwywyw4w4wwwwdrq66666r8668862qq",
"3333366q66633668wyyyyyyywwwwwwww888666338868qq6366",
"666668qr3333366811w3w4514111111;,23666326666qq8322",
"2,&-&--&&36-,6q2yhhwwyw11wwwwyhl86663333,38rr62-68",
",--&&--,&36,3rrqwyhyyhhyhhhyw4wwq88668qrqripr832rr",
"63323366-2638idrwwyyyhhywwww414wq86368rp888663,&33",
"66333363,2336qrqwwyyww4114w4w4wwq62,238q632,,,-,&&",
"2,,----,,,,22,23wwwyy41;hhhywwwwrr62,,3666688qqr66",
"qq632,,,,%&,,%%-14whhywwwwww444wpir86633,268qrrrrr",
"ppr862,,,%+--%+,;=4shyws;4w414wyqrrrr632-,68qqw688",
"862-%+OX%O+,,%&3=o1yywwyzzzhww4w266qq8,,68iddpqwrr",
"3rq&XO+%+,qppipd1@@wsyyhzyw14shl1wwww1wwwwww4ww4,-",
"683%X%--28pgdppdy=@whsyhhswyshlhwwyyywyswww11ww4ry",
"86-XO,66pdkddpdgs1@wzhhzhhhlzlhywwyyywyyyyw114wwry",
"q3+ +6rqggddddkxh=owzzzzzzzzhywwweyyyyyyshy41www68",
"q6+ +6diddiipgxxh1=whhhlzllhsyyyhhhhhhhsshywwysyrq",
"q6%X+6ipprrrdxxnh44slswhhhsyyslmhhhshhywyyywwshy88",
"8r3%+2ridrrigxxxywwzzhszzlzhyhzNlsyysww11wwwwssw22",
"6r8%O,qpdpidxnng;;wmVzmANNNzhyslzlhshsw5=1wwysyw33",
"rr8qriq6r68qpgdd;smmzVZVzNVNzzzzzzhywwwyww1wyhyydd",
"rqqrirr6rr8rdddpwhlhzNZNhlzmmzlhmzzywwyhywwwyyywrr",
"rrqriirqirrrpddpsshyhNVNsyshNzhwzmzswwyhywwwwyww88",
"iqqrpdrqpprrrppplhshzNNzswwyzMhwzzhsywphww1wwwyy88",
"rq8riprriirqqrpdlhhzNNmhzy1whNzhyhyywwyyww119wwyrr",
"886rrprrrrr86qydhshNVzllNy14yzzlwwyy1wwwwyww111wir",
"6336rrrq686336rkyyszlhhzzs44yhzl1wwww1wwyyw1==1q88",
"3226rrr66662,3phyeyhywsmhywwysss1wwwwwwww1w1=1wy33",
"==1ww11wwww;=4yywwhlhshlzs4;1wyhwszhw4wy4yy1=;ww=;",
"3113w111wyw;=1wy1wysyshzhyw444wywshhwwwy5yy1o=11;1",
"w1=4w1111ww111wwwwwwyyhzyhhyw4wywyysyywwwww1@@==;1",
"y;=1w4111w4w4wwwwwwwwslzhzzlw4whywwwysywwww4====@=",
"w==;w44w414www4wsywwyhzMlzmhewyzyewwysywwwww1;=;@@",
"1==ww14ww114wwwwhswwylzzzzlswwshywwwyyy4ywwww;;1==",
"=;ww4;1ww;=ww4wwhywwshhhyyysyyywyyyyyww4ww1ww;=;1=",
"=1wy4@=wy1=wwwwyhywwysyywwwyhyw;yyyywww1w;;w4==1;@",
"www4111;11111wyhwshhywwwyyyyww41114wwww4111www1=;1",
"wwwwww1144114wyswwyw414wsywwww44;1wwwwwww111111;11",
"4wwwww4w44414wyswww411wwsyyw4w3w;1wwwywwww===1444w",
"444wwwww444wwwysyww4wwysysw114ww;14wwyyyy4=@=;11ww",
"114w4w4ww44wwwyysywwwyshyyy11www11wwyyysw41;11;;w3",
"1114w4w444wwwwyyyww4wyyywyw11ww1141wwyysww4441;=1w",
"44w44ww44wwwwyyww44wyyww4yy11ww1w14wwwyswww44w1=91",
"wwwwwwww44wwyywywwweyyw41yy11yw=wwwwwwyyyw4w44116w",
"6wrq63338,2rpiiprywwwwwwww1111193666633366,26q2&qq",
"6qrqw2336,2rpirpywwwwwwwww91111w3w636333w3,2682-qq"
};
