/* XPM */
static char *_781706309755[] = {
/* columns rows colors chars-per-pixel */
"50 50 137 2 ",
"   c #2C2B24",
".  c #2D2C2A",
"X  c #322E2A",
"o  c #2F322B",
"O  c #33322D",
"+  c #3A352F",
"@  c #353431",
"#  c #3B3631",
"$  c #3C3A34",
"%  c #3C3B39",
"&  c #433C35",
"*  c #483D37",
"=  c #433F3A",
"-  c #4A3F38",
";  c #494037",
":  c #45423B",
">  c #4B443D",
",  c #4C483F",
"<  c #55463F",
"1  c #464541",
"2  c #4A4641",
"3  c #4D4A44",
"4  c #4C4B49",
"5  c #514640",
"6  c #534B44",
"7  c #524E49",
"8  c #584F48",
"9  c #4F5048",
"0  c #545147",
"q  c #595047",
"w  c #56524C",
"e  c #5A534C",
"r  c #56584D",
"t  c #5C584F",
"y  c #565651",
"u  c #5C5651",
"i  c #5D5953",
"p  c #60564D",
"a  c #61594F",
"s  c #625751",
"d  c #635B54",
"f  c #6A5F56",
"g  c #655E5A",
"h  c #695F58",
"j  c #6C6257",
"k  c #65625B",
"l  c #6B635D",
"z  c #72655D",
"x  c #656461",
"c  c #6B6661",
"v  c #6E6963",
"b  c #706760",
"n  c #746C64",
"m  c #786E66",
"M  c #756E69",
"N  c #786F69",
"B  c #747167",
"V  c #797067",
"C  c #75726A",
"Z  c #7B736C",
"A  c #7C786F",
"S  c #7C7671",
"D  c #7E7A73",
"F  c #81766F",
"G  c #82796F",
"H  c #817771",
"J  c #837B74",
"K  c #8A7E77",
"L  c #847E79",
"P  c #887F79",
"I  c #858077",
"U  c #8A8077",
"Y  c #86827B",
"T  c #8C837B",
"R  c #8C887D",
"E  c #93857D",
"W  c #93887F",
"Q  c #8B8681",
"!  c #8F8B82",
"~  c #8F8B88",
"^  c #918781",
"/  c #948C84",
"(  c #998D85",
")  c #938E89",
"_  c #9A8F89",
"`  c #959087",
"'  c #999087",
"]  c #96918C",
"[  c #9C938B",
"{  c #9B9491",
"}  c #9E9993",
"|  c #A08F88",
" . c #A09287",
".. c #A2958D",
"X. c #A4998E",
"o. c #A89A8F",
"O. c #A29691",
"+. c #A49B93",
"@. c #AB9D94",
"#. c #A69D99",
"$. c #AB9F9A",
"%. c #B09F97",
"&. c #ADA196",
"*. c #A6A09A",
"=. c #ADA39A",
"-. c #ACA89F",
";. c #B1A396",
":. c #B3A59C",
">. c #B8A69E",
",. c #B5A99E",
"<. c #BAAB9F",
"1. c #A6A5A1",
"2. c #ACA7A0",
"3. c #AFA8A1",
"4. c #B3A7A1",
"5. c #B9A6A0",
"6. c #B5AAA2",
"7. c #BBADA3",
"8. c #B6AEA9",
"9. c #BBAEA9",
"0. c #B6B1A6",
"q. c #BDB1A5",
"w. c #BDB2AA",
"e. c #BEB6B3",
"r. c #C1AFA4",
"t. c #C0AEA9",
"y. c #C2B2A6",
"u. c #C3B4AB",
"i. c #C8B7AD",
"p. c #C5B9AE",
"a. c #C9BAAE",
"s. c #C1B7B0",
"d. c #C5BBB2",
"f. c #CABCB3",
"g. c #D0BEB0",
"h. c #CDC2B9",
"j. c #D0C2B7",
/* pixels */
"/ :.<.;.;.6.@.,.&.=.7.,.:./ d u.u.u.a.j.u.p.y.y.y.7.u.;.,.q.0 x u.7.=.:.6.=.$.:.;.=.6.0.6.=.@.;.6.d ",
"S :.:.,.,.0.0.,.:.6.,.w.e.D 7 e.7.y.u.q.;.y.u.7.y.7.7.:.7.0.d w 7.=.=.&.6.6.7.:.;.,.:.:.7.u.y.9.6.t ",
"i O.=.,.+.] ' U B v h l l : > e.y.y.7... .:.u.p.<.y.q.q.7.6.l : +.6.7.,.=.=.6.6.6.6.:.:.&.X.X.@.M $ ",
"# = * & % = $ * t j n V d : ; 6.q.,.,.@.@.;.5.7.y.y.q.w.7.4.v o q J l d 6 e 6 u u 1 > > ; : : , = @ ",
"*.[ / n 2 . 6 } ,.p.a.f.q.) > _ q.;.6.,.6.:.,.,.7.6.:.6.7.,.l X l +...+.O.+.n # o k Z D Y ` / Y ] ..",
"w.u.d.p.] % t 8.0.w.<.q.q.q.< J 7.6.:.:.,.:.%.$.;.:.5.:.:.,.c 7 u.p.w.p.p.d.w.M w d.f.u.p.y.f.p.u.p.",
"w.y.q.p.6.: d 0.&.<.u.q.;.=.= M :.:.:.4.,.6.@.o.:.6.6.:.;.:.c v u.:.<.y.<.,.d.Z e u.9.<.y.r.r.<.7.7.",
"<.r.<.u.w.> j p.,.y.u.u.w.+.$ L 6.;.=.;.:.:.$.,.9.u.$.@.:.6.l M i.y.y.y.7.7.d.h B q.w.,.;.q.<.q.u.q.",
",.7.u.y.w.6 c 8.:.,.5.;.q. .$ ` 6.' +.7.,.u.q.7.7.%.;.6.=.$.n g 7.,.7.;.:.9.6.f E u.q.7.y.u.y.u.y.<.",
"q.6.5.7.6.6 Z 2._ :.7.7.>.] & Y 9.:.,.5.:.>.;.,.:.:.,.:.,.=.M k ,.#.;.6.%.+.9.N [ w.,.,.<.r.u.5.w.q.",
":.,.>.7.3.3 v 0.9.u.,.,.w.` # 7 _ ;.9.9.9.9.6.6.3.6.6.6.6.) w y q.8.9.9.9.8.$.d  .,.@.=.,.;.=.6.:.;.",
"6.,.;.;.6.t ; R ( ( W ^ { l . X ; w l l l b Z B Z B b d 5 # . 2 U U H F l 7 $ 1 +.,.:.&.:.9.=.:.:.,.",
"$.@.;.:.2.w ; d z z p 6 e > 7 v B D D B i +   9 N Z Z b l v i o * F V a 6 l 7 X ..:.=.6.=.;.4.:.,.6.",
"$.;.:.:.$.w ) u.u.p.7.=.$.$.-.6.u.f.f.f.9.z = $.d.f.i.u.p.f.2.1 R h.u.q.q.w.*.# B w.,.6.,...$.6.:.:.",
"4.7.;.6.] 6 #.9.@.6.u.p.u.u.9.,.y.<.,.9.f.W - 9.7.y.u.u.7.6.w.i U a.<.u.,.%.9.y : #.4.;.,.,.,.:.:.;.",
"[ [ o.:.b s u.:.,.,.9.>.<.<.7.r.<.q.7.@.7.( * -.:.7.<.i.i.t.f.d K i.;.y.<.u.d.n X 3 H +.@.;.&.$.+.[ ",
": $ , > X 7 Q ) +.+.=.,.6.9.8.+.+.=.=.-.8.Q & =.u.<.d.y.r.u.a.j W y.;.u.u.5.u.K O 2 : 4 r u i 2 & & ",
"@ v $.' J v d q 2 q e d h g 7 6 > > 5 6 q > & ] 7.y.6.=.;.6.6.k / p.7.y.i.<.f.W > 3.6.[ ` ` / ( S 2 ",
"7 q.q.d.d.f.f.q.,.-.+.@.+.] 0 : U U J V J n > #.6.;.:.9.;.@.q.x R p.u.7.r.,.f.W j p.7.a.a.y.r.a.d.S ",
"l w.7.;.6.9.7.y.u.y.p.f.w.f.n Z u.u.f.p.d.=.6 =.;.;.&.&.<.@.7.n G p.w.u.7.q.f.( n y.;.<.;.<.q.:.9.E ",
"g 6.&.;.6.:.@.%.q.:.>.;.:.8.s ^ p.u.<.;.p.w.> T 7.6.w.q.7.9.:.g V w.7.q.7.7.p.W v 6.8.u.4.6.w.6.6.( ",
"y u.9.u.w.8.6.9.q.7.6.:.8.@.5 O.y.@.q.q.y.0.> O 3 x x c v c 4 . n 9.;.;.;.@.>.F 4 ) N e l v d z M 7 ",
"; k Z b L Q C v d l d s u > # 2.u.q.a.<.7.=.: g H S D J v b x @ m q.:.:.;.$.6.J X = N P J A J H c 7 ",
"] D Z z #   1 i S D L Q g @ @ Y q.q.y.,.7.6.: 1.g.u.f.i.y.i.p.g l 6.%.6.:.,.7./ X N f.f.a.p.u.u.i.y.",
"a.p.f.d.d 5 +.,.p.y.i.u.u.J X x 4.,.5.u.t.+.> { r.7.y.7.u.@.<.n v =.&.7.,.;.6.@.2 ^ u.:.7.q.y.<.u.r.",
",.,.7.d.t l h.<.y.y.y.:.u./   x 6.&.7.&.@.4.= ) u.7.p.7.r.u.j.m i e.;.9.u.$.:.7.d P i.:.;.p.u.7.u.5.",
"&.7.7.w.d n d.;.;.u.y.;.,.Z X x ;.=.<.<.@.$.3 ) u.,.7.7.>.;.7.T i 9.;.@.6.5.:.,.x J w.:.,.<.6.7.9.9.",
",.,.@.4.d B p.,.$.a.7.,.u.n X M r.5.>.:.,.:.6 D >.;.,.,.;.&.7.T d =.6.@.,.6.:.6.7 J 9.6.w.&.:.7.;.;.",
"4.,.-.w.3 D f.w.7.p.u.<.f.U X Y u.:.6.9.w.$.& M u.=.=.0.9.:.w.Z 2 2.9.,.w.9.9.=.# Z 4.=.:.*.:.,.7.6.",
"[ +._ U @ j 0.0.u.7.7.7.u.) + 3 Y Y J L D k . y +.,.0.,.6.,.} 9 $ D ' / Q U E G . 7 O.6.-.&.' ' / ' ",
"h j t > # 2 ,.q.;.@...>.q.{ $ $ k n w ; > 2 3 : < ; , 6 d k 3 O $ o & 6 t s q * = X u s q 6 > 5 e a ",
"2.6.6.8.D 2 &.;.:.,.;.:.7.] : { a.p.p.u.6.4.9.6.#./ ! ! W [ k $ $ Z [ 6.w.e.e.=.{ ~ T ^ ( +.-.7.0.9.",
"$.7.r.f.=.3 { 9.:.,.6.:.6.' q 0.u.;.7.u.y.r.q.u.u.a.u.a.g.t.7.d 3 6.u.7.=.;.u.u.f.i.f.f.5.<.u.i.9.,.",
"u.u.u.q.+.5  .6.=.6.,.:.6.+.5 6.w.:.6.u.w.q.<.q.0.:.o.;.0.7.w.D w q.u.<.<.y.f.p.9.d.q.y.0.<.7.u.i.u.",
"7.>.;.5.[ 5 ..,.,.;.@.:.7.[ & +.;.:.:.6.,.,.<.;.;.&.;.<.<.;.0.J 5 :.7.:.:.5.<.:.;.:.;.:.<.q.,.<.,.,.",
"$.;.;.u.Q 6 :.,.;.&.$.;.9.) > Q r.:.,.%.>.>.7.<.0.q.q.<.:.,.6.K : #.6.,.5.:.,.5.:.@.%.;.;.y.:.7.9.6.",
"6.6.6.9.S 1 [ 6.6.9.4.$.[ Z = 4 [ ;.u.6.6.6.:.{ / ( ..#.:.6.-.n : Q #.=.2.=.=.$.-.6.9.w.7.u.,.7.t.7.",
"J M d y % @ y j j u 6 & # X X X % 6 w y 7 0 2 : & $ $ $ = 2 , O @ 2 6 6 6 7 6 > 7 i k v D I J S L H ",
"6 f l 7 @ : / ( J n m Z Z F P P J K J Y i   d 1.} ..[ ! D Z J T / /  .} ) R G f 3 . : 0 t k l k r r ",
"s.u.d.:.c : 9.p.d.w.u.d.u.f.u.6.u.u.f.g.:.< E f.y.i.p.p.u.9.q.a.u.7.a.a.7.0.0.X.J * O.f.y.a.u.u.9.t.",
"7.,.7.d.' ; ,.,.7.y.t.u.y.7.y.y.7.<.q.w.q.a [ 0.@.7.7.9.w.;.$.u.w.u.u.q.<.7.q.u.A q u.7.@.r.u.r.6.u.",
";.%.7.9.=.w &.,.6.;.%.6.5.7.7.<.r.@.%.5.q.j U 6.o.7.,.;.:.7.5.,.7.;.<.y.q.,.,.<.C l 0.&.;.6.;.0.7.6.",
"=.6.9.4.*.0 O.9.6.9.9.=.-.9.,.6.q.6.6.q.6.t j w.u.7.;.7.:.:.:.:.&.+.&.:.<.,.0.q.J V 0.7.7.7.=.&.,.;.",
"-.#.O./ k O 6 d h h c M Z J D U A J J D Z = O B ) [ [ X.+.@.:.2.0.0.6.,.6.6.=.[ k g @.9.6.9.9.:.6.:.",
"3 = * + & t w d g l l d # X + & a k l k w 0 , : = > * * 6 > 7 c n b v z l g 6 & o   O : 3 u i y y y ",
"= Y [ [ &.0.p.e.q.f.w.w.] > + ) q.p.p.p.;.0.w.&.+.] / ) ) c X @ * a Z U R I Z z v D I D n y : $ @ @ ",
"R h.u.7.a.,.5.o.=.u.6.q.w.n & 9.y.y.>.q.u.u.y.y.u.p.u.u.d.2.y % =.p.h.f.u.p.d.p.9.7.a.f.f.f.7.| y O ",
"+.r.r.r.r.u.r.<.q.q.y.w.w./ q q.q.q.y.q.q.p.q.<.r.r.r.u.q.w.g 7 p.q.<.q.y.y.q.7.y.7.y.,.;.7.a.u.} = ",
"..7.:.7.w.r.q.u.9.7.7.@.6.] p 7.q.&.,.q.u.y.7.7.o.,.7.r.u.p.d d p.q.u.7.;.7.u.u.u.7.7.7.7.7.y.u.6.q ",
"..7.;.6.9.7.<.>.,.6.5.;.6...d q.7.;.7.y.i.y.7.7.<.q.y.7.u.w.d k p.7.q.7.7.w.r.6.q.t.y.q.q.y.q.7.w.g "
};
