/* XPM */
static char *close__1__removebg_preview__1_1706150157[] = {
/* columns rows colors chars-per-pixel */
"50 50 218 2 ",
"   c #060301",
".  c #0B0602",
"X  c #0E0A02",
"o  c #0D0909",
"O  c #110701",
"+  c #130B02",
"@  c #1A0D03",
"#  c #120E0B",
"$  c #180F08",
"%  c #1C1205",
"&  c #14110C",
"*  c #1D130A",
"=  c #1F190C",
"-  c #1B1507",
";  c #151413",
":  c #1C1613",
">  c #1D1813",
",  c #1C1B1A",
"<  c #151719",
"1  c #210F04",
"2  c #241304",
"3  c #2A1603",
"4  c #22150B",
"5  c #241A0D",
"6  c #2B1B0D",
"7  c #291906",
"8  c #311E0D",
"9  c #321C04",
"0  c #241B13",
"q  c #2B1D12",
"w  c #221E1B",
"e  c #291E18",
"r  c #301E11",
"t  c #32210E",
"y  c #3A240E",
"u  c #2D2114",
"i  c #23211D",
"p  c #2B231B",
"a  c #332414",
"s  c #3C2612",
"d  c #3D2A16",
"f  c #332619",
"g  c #342A1C",
"h  c #3C2C1C",
"j  c #372718",
"k  c #3F301D",
"l  c #1D1F21",
"z  c #252423",
"x  c #2A2624",
"c  c #2C2A25",
"v  c #2D2C2B",
"b  c #262628",
"n  c #332C24",
"m  c #3C2D21",
"M  c #322E2B",
"N  c #353026",
"B  c #3D3324",
"V  c #34322D",
"C  c #3B342C",
"Z  c #2D2E30",
"A  c #322F32",
"S  c #353433",
"D  c #3B3633",
"F  c #363836",
"G  c #3C3A35",
"H  c #383639",
"J  c #3C3C3B",
"K  c #353638",
"L  c #2F3130",
"P  c #462B0D",
"I  c #452C15",
"U  c #4A2E14",
"Y  c #422D1B",
"T  c #482F19",
"R  c #4C3115",
"E  c #45311C",
"W  c #4C331B",
"Q  c #4F3A1F",
"!  c #51351A",
"~  c #543A1E",
"^  c #553817",
"/  c #453322",
"(  c #4A3523",
")  c #4D3925",
"_  c #44392B",
"`  c #4C3B2A",
"'  c #463628",
"]  c #533A23",
"[  c #543D2A",
"{  c #593E23",
"}  c #423C34",
"|  c #423D3B",
" . c #3D403C",
".. c #54422C",
"X. c #5A432B",
"o. c #5B4125",
"O. c #4C4433",
"+. c #43413D",
"@. c #4A423C",
"#. c #4D4839",
"$. c #444037",
"%. c #524431",
"&. c #554B36",
"*. c #524C3C",
"=. c #5B4E39",
"-. c #5C4631",
";. c #5B513E",
":. c #62492D",
">. c #63472C",
",. c #644A32",
"<. c #6C4C33",
"1. c #62553F",
"2. c #423F40",
"3. c #454443",
"4. c #494543",
"5. c #4B4944",
"6. c #4C4C4B",
"7. c #474948",
"8. c #524C44",
"9. c #534E4A",
"0. c #4E504D",
"q. c #545144",
"w. c #595245",
"e. c #54524C",
"r. c #5B554C",
"t. c #5C584D",
"y. c #55584F",
"u. c #4F4E51",
"i. c #534E51",
"p. c #4E5151",
"a. c #545453",
"s. c #595653",
"d. c #5B5A56",
"f. c #595759",
"g. c #5C5C5B",
"h. c #575757",
"j. c #635C4E",
"k. c #605541",
"l. c #625D54",
"z. c #615E5C",
"x. c #605752",
"c. c #5F605A",
"v. c #67634D",
"b. c #6B6355",
"n. c #63625D",
"m. c #6A635B",
"M. c #6D6A5C",
"N. c #696454",
"B. c #726A5A",
"V. c #7A705C",
"C. c #5E5D60",
"Z. c #615F61",
"A. c #5F6160",
"S. c #636463",
"D. c #696663",
"F. c #6C6A64",
"G. c #6B6B6B",
"H. c #676769",
"J. c #736D63",
"K. c #716E6C",
"L. c #7B7365",
"P. c #75726D",
"I. c #7C766C",
"U. c #757063",
"Y. c #6F6F71",
"T. c #747474",
"R. c #797572",
"E. c #7C7B7B",
"W. c #797878",
"Q. c #6D7170",
"!. c #837B6D",
"~. c #837C74",
"^. c #89816D",
"/. c #94896D",
"(. c #9B8C6D",
"). c #96886A",
"_. c #9D916F",
"`. c #8E8572",
"'. c #85827D",
"]. c #8A8479",
"[. c #8F897D",
"{. c #958B73",
"}. c #9B8E73",
"|. c #958D7B",
" X c #9D9273",
".X c #9D937A",
"XX c #97907E",
"oX c #A3946E",
"OX c #A29575",
"+X c #A49975",
"@X c #A2967B",
"#X c #A59A7B",
"$X c #A99C7C",
"%X c #A8977B",
"&X c #AAA07E",
"*X c #A7A17F",
"=X c #7E7E80",
"-X c #807E81",
";X c #868687",
":X c #998F85",
">X c #938E83",
",X c #9C9484",
"<X c #9C9489",
"1X c #9E998C",
"2X c #9C9585",
"3X c #8F8F91",
"4X c #9F9892",
"5X c #A29683",
"6X c #A49B83",
"7X c #AA9D83",
"8X c #A1978E",
"9X c #A49C8B",
"0X c #A49B91",
"qX c #ACA184",
"wX c #ABA28B",
"eX c #A7A085",
"rX c #A6A194",
"tX c #ACA593",
/* pixels */
" XOXOX%X$X7XqX7X7X.XqX%X$X$X$X7X5X9X0X0XW.P.R.P.F.T.T.T.Y.G.>XrX8X9X5X5X6XOX$XoXOXoXOXoX_.OX X X_. X",
"OXOX X}. X@X$X$X*X#X$X$X@X X$XqX7X`.m.J.J.S.d.D.S.;X3X;XW.f.e.N.{.XXwX6XwX@X#X$XOXoXOXOX$X@X.X*XOXOX",
" XOXOX X X}. X}.$X+XqX X7XqX7X`.B.j.4.l.K.S.6.n.c.'.3X;X;XS.P.I.r.w.!.,X6X.X.X X@X+X+XOX&X$X+X$X+X+X",
"OX+X$X#X@X}./.)._.+X_.*X#XXXL.M.B.J.m.s.z.d.5.e.0.T.W.W.S.h.'.P.F.J.N.q.!.6X6X XOX%XOXOX+X@X X X@X$X",
"+X%X%X%X}.{.{.).).(._.+X{.*.| f.D.F.G.s.n.c.e.+.6.E.E.T.g.6.W.c.c.;X~.N.y.V.|.2X}.}..X+X X_.OXoX%X$X",
"+X%X%XOX}.).).(._._. X/.V.8.p 4.F.c.S.f.H.G.n.4.e.W.W.H.C.g.G.c.a.G.d.F.J.l.v.{.9X.X X.X X_.OX_.OX+X",
"+X+X%X%XOX(.).(.OX X Xb.N.J.2.A p.a.S.G.G.F.n.5.5.P.G.G.S.S.S.a.f.u.6.T.E.F.q.5.|.2X.X(. X(._.(.+X%X",
"#XOXOXOX%X%XoXOX X Xv.j.d.S.f.A H a.A.S.f.9.+.i n e.s.D.7.7.c.7.a.p.g.G.G.N.+.N t.|.,X{. X_.(._.OXOX",
".X#X@X$X_.+X+X_.{.v.O.#.5.f.g.J Z F 5.+.M > + O & 5 0 p z c V J 7.f.Y.H.f.a.H v G w.|.6X{.@XOX+X@X$X",
"@X$XOX$X*X+X+X.XM.v.$.F 6.f.f.7.z l i i & O O . . * % * * = 0 w M Z.Y.g.i.2.A 3.5. .t.1X.X@X#X X+X@X",
"6X%X+X$X+X+X+XB._ | 3.i.f.C.y. ., ; X & % % 4 4 2 j u u a q e * 0 4.s.a.6.H K C.P.y._ [.tX@X X$X+X$X",
"%XOX$X$X_.*X{.*.n x v 7.S.S.4.w & # O 0 f u f q q %.( ( ` / ' r * 0 n 3.2.H 7.Y.E.F.} q.,X9X.X.X%X+X",
"%X%XOX@X$X.Xv.#.q.3.Z K 6.3.i # O O @ Y ' h h 6 7 %.~ { X.) X.d q $ * p v J Z.W.G.g.@.G L.wXeX.X$X$X",
"$XOX}.%X.X^.;.5.D.S.g.7.K , X O + 2 7 ` ..h k 7 7 X.~ ~ o.! ,.] d a % O w 4.H.H.S.f.s.5.q..XwX6X#X$X",
"OXoX%X6X,XM.N.c.H.A.S.7.x ; # X * r t ....d Y 3 3 { ~ { ^ R <.[ Y d 6 O 0 | S.H.C.G.K.5.C I.wX@X@X@X",
"oX$X$X@XXX5.0.c.K.T.S.F ; o X 4 6 s a X.X.I / 3 3 ] ~ ~ ^ U <.] T Y j 4 4 v S.E.=XQ.n.5.N t.tXeX#X$X",
"&X+X@X5XF.@.5.e.h.g.i.x o X = t s I I X.X.E / 3 3 ) ] W ! R >.] W [ r r q q 4.R.R.H.d.d.N  .2XtX7X$X",
"oX$X6X,X8.| 5.s.d.f.2.: X # u a P T T :.-.T T 3 3 ) ) / W I >.~ W ] T T j 4 } x.Z.Z.h.3.i N [.wX7X$X",
"+X&X6X|.D C 3.0.h.0.S # O % g d T R W ,.[ T I 3 3 ` ( E E P o.~ W ] / ] / 4 q A 3.2.K z ; p P.tX6X$X",
"&X$X6X!.n i v L F S z # + 7 k E I W W >.[ I I 3 7 ` / I I y o.~ W ] T ] ' q $ : ; l l v L M n.tX%XOX",
"oX+X5XL.z , c x z i & O 2 6 ) Q I U ! >.X.T P 1 3 ) E Y s y ~ ! R ! U ) [ f $ & Z 6.C.C.p.K s.rX@XOX",
"oX#X5XU.V 4.u.u.+.z & O 5 8 o.~ U R ! >.[ T y 3 3 ) / Y s 9 ~ W U U U [ [ j 4 0 2.H.W.H.g.K h.rX#XOX",
"oX@X2XJ.4.C.S.S.d.M * $ 8 y :.~ R ! ! o.{ T s 1 3 ) / I s 9 ~ R P U U ] [ Y 4 0 2.G.Y.Z.p.v p.4X7X+X",
"OX.X9Xm.7.7.p.c.h.z O $ t y <.~ R ! ! { ] U P 1 3 ) E Y y 9 W R P R U ] [ / 6 4 | x.i.6.2.z e.rX7X@X",
"OX#XXXt.4.4.f.f.s.i o * j I :.~ U U W ! ] I P 3 3 [ ( Y 8 9 U R P ^ U ~ ..Y q e @.d.9.0.3.V 0.0XqX+X",
"#X.X|.l.d.Z.H.H.g.x + 5 h E :.W U T W ! E I s 1 3 ) ( Y s 3 W W P ! P ) [ E r r x.R.Y.S.f. .4.<XqX+X",
"#X.X{.y.9.u.p.g.f.w . * m ) -.W T T T ] W I d 3 2 [ ' j 8 6 ) E W Q E ] X./ q p w.D.z.a.4.F G [.7X%X",
"#X.XXX8.4.3.p.g.a.w o : n ' [ d j Y d / / h 8 @ 4 ' m f a 7 k d d E d ) ` h 0 e 8.i.0.@.3.+.F >XwX$X",
"6X@X|.} D 2.6.i.| ; . : n _ ` Y f Y / _ / m f % * _ p g f 5 h j h h f h m m 5 w | 2.4.4.7.J C [.wX7X",
"$X6X{.n : z z z < . # K z.].1X8X8X<X8X:X~.B.m.N n R.~.].I.J.I.L.I.!.!.~.I.z.} w x M H J K v G :XwX#X",
".XeXXXn # ; ; : < o # b 4.s.l.m.F.x.z.K.'.P.z.D S R.R.P.D.8.8.w.l.s.8.5.8.i.M ; < < l l , ; 3.4X7X%X",
"*X.X,XD $ , , l l ; # w M C ' | x.| M 5.'.g.D , w |  .F.R.+.i N 8.| n i ' 8.M & < < < l < ; e.1X6XOX",
" X.X2X+.l b H J Z ; o # + % 2 2 4 0 c 9.g.e.D # o , 3.a.g.5.= $ * - O O $ - X ; x K 7.p.2.b y.1X6XOX",
" X*X1X@.Z H 6.a.3.<   . @ % 3 @ @ O +.n.G 3.e.o   b D.3.G d.D $ O $ O + @ @ X ; K C.Q.Q.H.2.e.2X6X$X",
"OX#X,X@.N  .0.S.6.< o # u j m r 5 = #.M.e.c.n.: o c n.s.e.M.@.p 5 6 2 4 6 u 4 , J g.S.d.f.F q.9X$XOX",
"+X7X<X| v F 7.c. .# o : n / [ Y f p p q.J.F.@.= % p $.F.R.l._ h g f 4 q E B 0 > J 3.3.3.2.x 8.2X6XOX",
"+X#XXX| N J  .@.F # X * j h ..h 8 u - 6 C B p $ $ g - i N u g m j j 2 q Y h 6 0 N F V S H c q.9X6X$X",
"*X.X2Xq.5.d.d.y.M & X = a h ) d 8 u - + X @ 5 - o g = + X - g j j a 3 r h Y q 0 5.n.c.d.n.+.r.,X@XOX",
"+X.XXXG x S S c z &   * u d E a 7 8 6 u u 0 0 @ % u = - + - B f a t 3 6 I k 6 0 +.y.e.4.5.N w.,X%X%X",
"_.*X2XG w v G S i ; X * 6 j Y a 7 6 t u f f u + @ u 0 5 2 2 / a t t 7 6 d h u p N S  .J K i q.9X%X%X",
"%X5X<X| J f.S.g.e.>   & 6 a Y a 6 6 6 r f m e @ @ e 6 6 * 2 f a a y 2 6 a j e w x x L c b < q.eXqX%X",
"@X7X<X2.| a.d.y.3.; . % 4 6 h r 3 6 4 r r f e @ O 0 6 4 1 4 f u u u 1 7 t r 5 0 v 7.7. .L < e.1XqX%X",
"$XeX<X| A H J 3.F & X & 4 q m q 4 0 2 r r n q $ O e 0 4 $ 1 u u 6 u - 5 8 5 * : S a.7. .J v d.rXwX7X",
"6XeX8X9.i.Z.H.T.6.,   o $ 5 j 6 4 4 4 q e e 4 O O 0 0 0 1 $ 0 5 6 u 4 u 6 6 = : 3.Q.Q.H.H.a.c.2XwXqX",
"&X6X,X5.6.d.c.c.y.i   X $ 4 p 4 4 4 - 6 q p 5 X O 0 q 0 @ @ 5 4 5 u 4 0 8 5 = > K c.A.a.h.3.e.tX7X7X",
"qXeX:X8.7.c.y.a.3.<   # * 4 e 5 * 4 % 6 q u = X O 0 5 4 @ @ 0 4 = u 4 6 u 6 = : K g.A.s.p.H q.rX7XqX",
"$XqX:X8. .0.0.7.F <   X + % 6 * - - 4 6 6 q = X O 0 4 $ @ + 0 = 4 5 * 6 r 6 4 : S 3.0.7.3.V t.2X7XqX",
"&XwX.X| u C  .V p # . + - 4 6 % - 4 2 q 6 5 - X X 5 $ @ + O 5 = % 4 2 7 a 6 4 = c G G G D p m.5X%X7X",
"+XqX6XM.O.#.*.*.*.#.O.&.;.;.w.=.&.&.;.;.%.` B g u f p 5 5 u %.=...%.%.=.1.=.&.%.#.*.*.*.O.*.L.@X@XOX",
"OX X7X6X6X5X2X9X6X6X6X@X6X@X6X@X#X@X.X@X{.`.`.L.U.L.U.B.B.V.@X@X@X6X@X$X6X%X.X{.|.|.|.|.{.{..X@X X X"
};
