/* XPM */
static char *_9ab657c62cd4de7b5e562f9b1c82b315AWvO6zNirSmTGur[] = {
/* columns rows colors chars-per-pixel */
"50 50 248 2 ",
"   c #0F293C",
".  c #27413E",
"X  c #0A364C",
"o  c #042E53",
"O  c #053758",
"+  c #17375C",
"@  c #0E2F48",
"#  c #253E4A",
"$  c #063A65",
"%  c #0B3D6F",
"&  c #1A445C",
"*  c #0A465F",
"=  c #294349",
"-  c #264252",
";  c #335558",
":  c #3A4F4D",
">  c #034769",
",  c #154569",
"<  c #17546C",
"1  c #0B4B74",
"2  c #094776",
"3  c #1B4D7C",
"4  c #154A74",
"5  c #08567B",
"6  c #15547B",
"7  c #185678",
"8  c #06516E",
"9  c #284B6A",
"0  c #265566",
"q  c #245C7C",
"w  c #245778",
"e  c #345A77",
"r  c #335067",
"t  c #176378",
"y  c #376463",
"u  c #2B677B",
"i  c #36677B",
"p  c #2D7273",
"a  c #485959",
"s  c #50574F",
"d  c #4E6959",
"f  c #646C5A",
"g  c #71765B",
"h  c #4D5967",
"j  c #5D6B6B",
"k  c #586868",
"l  c #4B6775",
"z  c #487378",
"x  c #5A7773",
"c  c #4D6C6B",
"v  c #767965",
"b  c #677C75",
"n  c #6A746F",
"m  c #857E6D",
"M  c #5B827F",
"N  c #7A877B",
"B  c #6E816D",
"V  c #8A896D",
"C  c #938C6C",
"Z  c #9B8D6C",
"A  c #988966",
"S  c #92916D",
"D  c #9D926D",
"F  c #9D9366",
"G  c #878978",
"H  c #938D74",
"J  c #9D8E71",
"K  c #968B79",
"L  c #8A9279",
"P  c #959273",
"I  c #9D9373",
"U  c #9D9975",
"Y  c #94957D",
"T  c #9C957A",
"R  c #9D997B",
"E  c #959A7B",
"W  c #A18E6D",
"Q  c #A1946E",
"!  c #A8996E",
"~  c #A18E73",
"^  c #A39574",
"/  c #AA9575",
"(  c #A59975",
")  c #AA9A75",
"_  c #A4967A",
"`  c #AA967B",
"'  c #A2997A",
"]  c #A69979",
"[  c #A59A7D",
"{  c #A69C7D",
"}  c #A59A7B",
"|  c #AA9B7C",
" . c #B1997A",
".. c #A6A17D",
"X. c #ABA27D",
"o. c #B1A07C",
"O. c #074A86",
"+. c #0B5687",
"@. c #125283",
"#. c #145C83",
"$. c #135C8A",
"%. c #1D5D8A",
"&. c #1B5984",
"*. c #115293",
"=. c #295A86",
"-. c #365F84",
";. c #255E94",
":. c #09658C",
">. c #1A6585",
",. c #096A96",
"<. c #1B6593",
"1. c #176796",
"2. c #18799A",
"3. c #0C7698",
"4. c #226483",
"5. c #2A628C",
"6. c #286689",
"7. c #376A89",
"8. c #2C7187",
"9. c #3A748D",
"0. c #37768B",
"q. c #246B93",
"w. c #266796",
"e. c #346B95",
"r. c #267699",
"t. c #377898",
"y. c #185BA2",
"u. c #1978A5",
"i. c #1C68A2",
"p. c #286AA1",
"a. c #2C7AA6",
"s. c #3778A5",
"d. c #2668B6",
"f. c #3879B5",
"g. c #477A98",
"h. c #53778B",
"j. c #627B8A",
"k. c #4F7DA1",
"l. c #28879E",
"z. c #398A9E",
"x. c #2D8F96",
"c. c #1B86AA",
"v. c #1990B2",
"b. c #2887AA",
"n. c #3B86A8",
"m. c #3992AC",
"M. c #2B86B5",
"N. c #3888B4",
"B. c #359BBA",
"V. c #2B96B7",
"C. c #36A2AF",
"Z. c #4B8899",
"A. c #578A99",
"S. c #4B8F92",
"D. c #6F8484",
"F. c #758984",
"G. c #739291",
"H. c #468AA7",
"J. c #548BA2",
"K. c #5788AA",
"L. c #4A95AB",
"P. c #5896AA",
"I. c #468BB7",
"U. c #4997B5",
"Y. c #589CB8",
"T. c #558AB3",
"R. c #6796A7",
"E. c #6294B5",
"W. c #7196AE",
"Q. c #5AA4B9",
"!. c #4BA4B9",
"~. c #68A4B8",
"^. c #78A6BA",
"/. c #77A1AD",
"(. c #3698C6",
"). c #358AC2",
"_. c #37A8C9",
"`. c #3EBBDB",
"'. c #4A9AC6",
"]. c #48A8C8",
"[. c #56A5C5",
"{. c #57B6C9",
"}. c #48B8D7",
"|. c #4BB0D1",
" X c #77B4CB",
".X c #72B1CC",
"XX c #4AB3E2",
"oX c #5FC5DC",
"OX c #6FC6DC",
"+X c #52C5EA",
"@X c #74C0E2",
"#X c #878C86",
"$X c #928D83",
"%X c #899585",
"&X c #9C9582",
"*X c #9D9984",
"=X c #979785",
"-X c #889C93",
";X c #A49C82",
":X c #AB9D82",
">X c #A29C8B",
",X c #AA9A86",
"<X c #B29D84",
"1X c #9AA28B",
"2X c #94A497",
"3X c #ADA283",
"4X c #A3A28A",
"5X c #ABA48B",
"6X c #A7A587",
"7X c #B2A384",
"8X c #B5A988",
"9X c #A7A895",
"0X c #B3A897",
"qX c #83A9A5",
"wX c #92B1B5",
"eX c #9CADAC",
"rX c #ABC9BD",
"tX c #C9CDBC",
"yX c #9AB7C8",
"uX c #8ABCD7",
"iX c #89B7CB",
"pX c #A4BAC6",
"aX c #98C1CD",
"sX c #8BC5DB",
"dX c #94C4D8",
"fX c #8EC4C6",
"gX c #A8C5D8",
"hX c #ACCFD3",
"jX c #99CEE9",
"kX c #AAD6E8",
"lX c #B8DAE7",
"zX c #BDC7E2",
"xX c #B9E4FB",
"cX c #BFF9FF",
"vX c #B6E7F1",
"bX c #E0E8DD",
"nX c #D4FDFF",
"mX c #DCFEFF",
"MX c #D5F4FF",
"NX c #CFEEF7",
"BX c #E4FEFF",
"VX c #ECFEFF",
"CX c #ECF6FB",
"ZX c #F3FFFE",
"AX c #FAFFFC",
"SX c #F6F9F6",
"DX c #EBF2EE",
"FX c #CFDADC",
/* pixels */
"R T T ^ W W W Q ] [ [ ' { :X:X] ( ..) ] { ..} ] ) ! ! ! ` | ] ] U ( ) ) } U U U ^ ^ ^ ^ { { ' [ [ ] ",
"' } ] ] ^ Z A A I T ' ' [ :X:X{ ( X.) ] { ^ } X.] ) ) ) | | ] ] U { | | } I I I ^ ^ ^ ^ } R ' ] ] ] ",
"} { | ] W A A Z Z I T } [ | | | { T { | | | ` | ;XR ] ] ` | | [ { | | ` ' I P D Z ^ ^ ^ I I I ^ ] ] ",
"} ] ] ^ Z A Z Z Z I T ^ ] | | ] ] [ ' [ ^ ^ | :XT Y R ] ` ] | [ :X,X .` R I P Z Z ^ D D D D D Q ^ ^ ",
"^ ] ] ^ ~ Z Z Z I I ^ ( ] ) ] ) ] [ [ R | | ^ ( I I T ' U ( { [ | | ` / I I I D Z D D D D D F D ^ ^ ",
"] ] ] ^ ^ ^ J J I I ^ ^ ^ ^ / ^ ^ I [ ;XR R } I I I ] ] ( U } [ ` ` ` ^ D D I D Z Z C C D D D D ^ ] ",
"] ] ^ ^ ^ ] ] ^ I I I I Q Q Q Q Q | _ ,XG v &X' U Q /  .^ ^ ] ] / ] [ ^ D D D D Z Z C C D I I ^ ] ] ",
"^ ] ] ] | ] ^ I D D D D D F Z Z ^ ^ <XK 2X-Xa %XE U  . ./ ^ ] ] ] | ;XR D F D Z Z Z S S I ^ ] [ ] ] ",
"^ ^ ] ] | ' ^ I D I ^ A Q A Z D I :X&X$XCXqXp y F.*X;X/ ^ ^ ^ | :X;XG Y ( F Z Z I C S P ^ ] ] ] ] ] ",
"^ ^ ] ] [ [ ' ^ D D D Q Z A Z C P T v DXVXR.x.x.i D.=X[ ] ] ^ 8X>Xv B N I ) ^ Z ^ I P P ^ ^ ^ ^ ^ ^ ",
") / ^ ] [ [ ' I D Z Q Z A I C V H v FXZXBXA.l._.oXu #X[ ] ^ 3XV f FXhXx P Q ^ | ] I I I Q Q ^ ^ ] ] ",
") ^ ^ ] [ ] ^ I ^ A Q D C C H H g tXSXVXnXL.B.`.+X!.F.R Z { g V DXVXR.y f ] I ^ | ( I I Q Q ^ ^ ] ] ",
") ^ ^ ' [ } ^ Z A D Z Z C V Y v 0XAXSXZXvXL.}.+XXXH.b 4X*XV 0XAXZXkX0.p g ] ,X:X:X{ ] ( Q Q ^ ` ] ] ",
") ^ ^ ' [ } ^ D Z D A A C Y G 9XAXSXZXNX.X{.c.c.(.>.F.9XF.F.AXZXBX^.z.~.G :X:X,X:X| | ( ( ( ` | ] ] ",
"] ] } ] [ [ ^ ^ ^ A Z Z H L G bXZXVXlXY.]._.c.3.M.< a 2XA.J.yXVXxXP.OXQ.%X] [ :X:X:X:X] ( ] | ` | ] ",
"] ] ] ] ] | ] ] Q Q D I H =X%XD.qXdXg.r.c.v.V.2.n.< c ; u t.g.xXsXL.{.S.%X| :X[ | | :X| ] { ,X,X| | ",
"] ] ] ( ( ) | ` J ^ D Z ' G F.z p !.2.u.b.3.2.l.i kXsX* X 4.N.'.].r.S.G.1X] 3X] ^ | / | <X:X[ ^ | | ",
"| { | ] ! ) ] [ ' C Z ^ H $XG.0.C.}.3.M.2.:.5 6.lXBXQ.m.L.O N.|.(.r.A.F.9X:X^ ] ] | | | ` [ | | ] ] ",
"{ | | ) ( ( } } R I D I m ZXvX0.|.}.u.u.1.$.2 g.VXmXU.|.{.8 >.@X:.m.A.N 9X3X:X) 3X3X' { ;X:X3X| ] ] ",
"[ ] ] ^ ( ( ( R H I D m FXVXA.P.B._.(.u.+.2 2 g.lXnXn.|.V.b.t n.5 t.x 1X4X:X ./ { *X{ ;X;X3X7X] ^ ^ ",
"^ ^ ^ ^ ( ] ( I R P I v yX^.u H.>.[.b.1.1.1 7 R.aXlXq.(._.V.].:.> g.x 4X;X:X/ / ^ { { 3X} ' ] Q ^ ^ ",
"^ ^ ^ ^ ^ ] ^ I V L %XG.R.q 6.t.>.Y.a.5 +.1 < ~.iXuX:.(.,.u.|.U.5 J.b 5X5X>XK T ^ ) ' } ^ ^ ^ Z ^ ^ ",
"I I ^ ^ ^ ^ I P g d y 0 P.t.q t.r.[.r.t.7 o 6.7 P.U.,.(.c.(.'.I.p.w x #XG j a j T ) ^ T ^ ^ / Q ^ ^ ",
"I ( ( I W Z Z H B qXS.z.L.H.=.e.U.OX0.0.7 8 z.t.n.a.u.M.M.+.+.I.1 ~.eXn D.l h.j.G ^ T I ^ ~ ^ ) ^ ^ ",
"U I R I W A I v 2XfXz.m.H.9.e.5.Q..Xh.dXY.5 2.r.1.r.1.1.+.$ q.9.^.VXCXSXNX& < i N [ T C ^ ] ] | ] ] ",
"] ( I C Z A I v hXkX[.b.4.q , , E.h.mXjXU.B.u.:.1.a.O.w.;.2 H.Z.mXmXBXMXh.< o & j *XC I ^ I :X] ] ] ",
"( ^ T H Z Z I v hXuXL.>.< 8.g.@ # lXmX.Xa.M.M.i.a.p.;.6 7 w 7.7.J.~..Xn.<.s.7.kXqXf { A I ^ ^ } ^ ^ ",
") ^ R I ^ ^ ( V z J.g.9. XZ.P.X gXVXdXt.1.O.).1.f.w.4 o A.kXu 4.q.a.b.M.+.I.W.MXhXk P ) ^ { ' ' } ] ",
"| ] ' I ^ ] X.1Xc z e yXcXP.q R.BXgXq #.O.% ).y.p.;.O yXVXnXsX4.q.<.u.N.> & wXZX/.c V o.| ] ..' { | ",
"] ] [ ' ] ] X.6XF.; l MXmXR.i P.~.J.6 %.2 % s.$.@.5., h.NXnX7.n.#.>.n.4.& qXZXBXi & N 7X<X] ' { | | ",
"] ] | | :X:X{ ;X0Xs = lXBX/.0 9.< U.%.&., O u u , w e.e.Z.cX7.4 e.q 9.R.MXAXCXNX%.6 a 0X,X| ] { ] ] ",
"' [ ] ] [ :X' R ,XG # h.nX^.> 6.8 U.s.&.O < 0.0.9.7 #.n.U.[.q.7 6.u xXBXCXSXZXkX<.w.- $X,X~ I I T ^ ",
"R } ( ] ] } R Y K >X: l iXY.> q.5 U.[.> 0.t.8 8 8 n..Xq.8 a.w.w.t.9.aXBXCXCXZXyXw.1 X j >XJ I I T ^ ",
"R U ( ( ^ ] T T K >Xb @ P.t.$.<.#.[.H.8.H.>.r.r.N.N.N.n.5 <.O.;.e.Z.A.kXVXVXVX^.&.1 X k >XJ Z Z ^ ^ ",
"^ ^ ) ) ) / ^ I ' V j # 9.s.w.#.#.H.A. X4.5 a.N.N.@.$.<.$.@.% ;.;.6 >.0.xXmXnXT.@.> r b &X~ ^ Q ^ ] ",
"/ ) ] ) / / ! ^ V f bXpXX 5.5.1 1 1 iXdX1 5 1.I.s.7 %.%.w.&.$ 3 6 5 5 #.T.E.I.p.O.2 j.$XK ^ / / ^ ^ ",
"*X*XR ( ^ ^ Q I s rXVXmXe $ 5.2 , 4 jXL.7 >.'.%., e 9 + e.4 k.MXg.6 1.N.f.f.y.d.O.=.D.Y _ ^ ^ ^ ^ ^ ",
"*X*XR T I I D E M G.wXmXuXO w , O , 7.t.t.I.>.O J.kXxXK.3 7.MXVXg.q.$.a.f.y.O.d.O.g.N I T J | I ] ] ",
"[ ] ^ ] T I ^ =XM S.t L.uXo 4 9 W.yXe 4 %.2 #.>.8.U.I.T.o W.AXBXk.1 q.#.a.+.+.s., j.G U Z Z ..U ( ^ ",
"( ^ / / ^ T ^ =Xb y < 8.g.9 O  XNXdXK.3 2 @.%.O r.[.r.5.@ zXAXNX-.@.=.1 >.#.%.3 & G.Y D ^ | D { } ^ ",
"( ^ / / ^ ^ ^ R G f d : h - w t.H.> <.w.2 2 3 s.'.<.=.-.r VXVXh.3 w.5.5.6 4 ;.+ r #X;X] | ] ,X[ ] ^ ",
"( ( ] ` ` ^ ^ ^ ^ 3XE L =Xb r w E.4.e.6 o + + 7.4 O   #   pXyX@ =.3 =.i e -.e 9 h $X[ ) | ] ,X,X[ ] ",
"( ( ' ;X| ] ^ J W A C R P 4XG j k j.r = . a N n k a s s v #X=   + 9 r ; x j : j V I ]  .X.{ :X,X| | ",
"{ ' ' ;X[ _ I I Z / J C U ( ^ ,X$X#X#X%X1X4X;X6X4X5X5X,X5X*X#Xk h h b N Y Y =XY U ( | <XX.3X:X,X:X| ",
"[ [ ] ^ ^ ^ I I ^ A J ] ' { | ' 4X4X>X>X>X' ..U U I [ | J | R &X=X=XL L T ^ ' ' ..( X.7X6X5X5X:X:X| ",
",X| ] ^ W J I I I ] | 7X{ { | | I T ;X| ] ] { ( I ( { ] ) ) ^ ^ I I H I | | ` :X3XX.7X7X5X5X3X3X| | ",
":X:X) Q I I ^ ^ I ] ^ ] :X3X] ( o.) | ^ D ) ) / ` | ] ( 8XU ,X| ^ Z T ' ) o.7X8X8X8X3X:X:X| ) ) | | ",
":X:X] Q I I ^ ^ { ] ] ] [ ' ] ) / / ^ ] ] ^ ) ` / ` 3X....X.3X[ ^ ] ' | ) ) 8X7X7X7X] ^ ] Z Z ! | :X",
":X:X] ] ] ^ ^ ^ ^ ^ ^ ^ [ | ] ] | ] ] ] ] ) ] ] | | | | | | :X| ] ] | | | | ] :X8X] I ^ ] ] ^ ^ | 3X",
"3X| | ] ] ] ^ ] ^ ] ^ ^ ] ] ] ] | ] ] ] ] ] ] ] ] ] ] ] | ] ] ] ] ] ] ] ] ^ J ^ 7X] I I ] ] ] ^ ] | "
};
