/* XPM */
static char *down_plyr1706149854__1___1_1706302852[] = {
/* columns rows colors chars-per-pixel */
"50 50 218 2 ",
"   c #271D0C",
".  c #2D230E",
"X  c #262116",
"o  c #2E2914",
"O  c #25241B",
"+  c #2D251B",
"@  c #2B2A1E",
"#  c #282719",
"$  c #322B13",
"%  c #3A2C16",
"&  c #31251B",
"*  c #39271F",
"=  c #31291D",
"-  c #3B2A1E",
";  c #342711",
":  c #3A321A",
">  c #35301D",
",  c #2B2621",
"<  c #2C2B22",
"1  c #2F2B28",
"2  c #332C23",
"3  c #3C2C21",
"4  c #332E2A",
"5  c #392F28",
"6  c #2E3223",
"7  c #2E3129",
"8  c #343325",
"9  c #3B3224",
"0  c #3F3923",
"q  c #34342B",
"w  c #3C342B",
"e  c #3B3B2D",
"r  c #373829",
"t  c #3A3631",
"y  c #3D3C32",
"u  c #363731",
"i  c #432D1F",
"p  c #42331E",
"a  c #432D23",
"s  c #433322",
"d  c #493322",
"f  c #453A23",
"g  c #4C3C25",
"h  c #45342B",
"j  c #4B3429",
"k  c #443B2D",
"l  c #4C3A2E",
"z  c #503C27",
"x  c #513729",
"c  c #553C2D",
"v  c #583E2D",
"b  c #433E34",
"n  c #4C3D31",
"m  c #413F38",
"M  c #543E32",
"N  c #583F31",
"B  c #3B402F",
"V  c #3E4132",
"C  c #3E4239",
"Z  c #4A432C",
"A  c #4B4A2E",
"S  c #444229",
"D  c #52442D",
"F  c #5A422F",
"G  c #444435",
"H  c #4A4234",
"J  c #4C4C33",
"K  c #454239",
"L  c #4A443A",
"P  c #4C4C3B",
"I  c #474838",
"U  c #5D4332",
"Y  c #53473A",
"T  c #534C3C",
"R  c #574A38",
"E  c #4E5134",
"W  c #4F5239",
"Q  c #515335",
"!  c #555937",
"~  c #53543B",
"^  c #5B543D",
"/  c #565839",
"(  c #5A5B3B",
")  c #644D3A",
"_  c #634835",
"`  c #63543C",
"'  c #5F613F",
"]  c #4C4C41",
"[  c #534D40",
"{  c #5E4E40",
"}  c #555443",
"|  c #5A5443",
" . c #5B5B43",
".. c #5B5B49",
"X. c #614F41",
"o. c #625544",
"O. c #6B5A43",
"+. c #61564C",
"@. c #635D4C",
"#. c #6A5D4E",
"$. c #735E45",
"%. c #775F48",
"&. c #675F53",
"*. c #6C5F54",
"=. c #5F6143",
"-. c #636344",
";. c #696947",
":. c #64624C",
">. c #6A644C",
",. c #6B6B4B",
"<. c #676846",
"1. c #75634B",
"2. c #7B6A4F",
"3. c #78654E",
"4. c #666353",
"5. c #6C6453",
"6. c #6E6B54",
"7. c #6D6A58",
"8. c #6A6559",
"9. c #726453",
"0. c #7B6C53",
"q. c #7A6E5B",
"w. c #726959",
"e. c #737252",
"r. c #74725C",
"t. c #7B745E",
"y. c #7A785A",
"u. c #7B7563",
"i. c #7E7B65",
"p. c #757468",
"a. c #757264",
"s. c #757B72",
"d. c #83725A",
"f. c #89765B",
"g. c #887E5F",
"h. c #907B5F",
"j. c #846D55",
"k. c #827D64",
"l. c #8B7B65",
"z. c #847A6A",
"x. c #8B7E6B",
"c. c #847766",
"v. c #917B65",
"b. c #807C71",
"n. c #848464",
"m. c #8C8465",
"M. c #87836C",
"N. c #8C826D",
"B. c #8F886B",
"V. c #928467",
"C. c #918768",
"Z. c #968C6A",
"A. c #9A8E6D",
"S. c #978767",
"D. c #97906B",
"F. c #9B916E",
"G. c #8C8371",
"H. c #868478",
"J. c #948671",
"K. c #948B73",
"L. c #9A8E71",
"P. c #948C79",
"I. c #9E9271",
"U. c #97927D",
"Y. c #9D937B",
"T. c #A38C73",
"R. c #A88F70",
"E. c #A29575",
"W. c #A59877",
"Q. c #A3967A",
"!. c #AC967D",
"~. c #A69979",
"^. c #A99B7C",
"/. c #AC9476",
"(. c #B49B7C",
"). c #A18869",
"_. c #8B8C86",
"`. c #938F82",
"'. c #9C9481",
"]. c #9D9C8A",
"[. c #A49A82",
"{. c #AB9E81",
"}. c #A89B89",
"|. c #B49D83",
" X c #A09F94",
".X c #AEA182",
"XX c #B2A385",
"oX c #BBA284",
"OX c #B4A58A",
"+X c #BBA289",
"@X c #A3A59C",
"#X c #AAA89D",
"$X c #B9A897",
"%X c #A5A9A2",
"&X c #C2A589",
"*X c #C3A98A",
"=X c #C0A384",
"-X c #CAAD93",
";X c #C6AD95",
":X c #CBB29B",
">X c #D6BA9B",
",X c #D5B89A",
"<X c #E2BD9C",
"1X c #D4BAA1",
"2X c #DFC29E",
"3X c #ECC69F",
"4X c #E1C39F",
"5X c #DEC2A1",
"6X c #DAC2AA",
"7X c #E3C3A2",
"8X c #ECC6A2",
"9X c #ECC9A4",
"0X c #E6C7AA",
"qX c #EBCAAA",
"wX c #E6CAA7",
"eX c #F1C6A2",
"rX c #F2C9A5",
"tX c #F4CAA8",
/* pixels */
"E.E.E.W.^.{.{.{.^.^.^.^.~.~.^.{.~.^.^.^.^.^.^.^.W.^.^.^.^.E.^.W.W.E.E.W.^.W.W.~.E.E.E.I.E.E.I.E.I.I.",
"E.I.E.L.I.~.{.{.^.~.^.~.~.~.^.^.~.^.^.~.^.W.^.W.W.^.W.^.^.W.^.W.^.E.^.W.W.W.W.W.W.Q.E.~.~.~.~.~.E.I.",
"E.E.E.E.A.T.L.L.W.^.^.~.~.^.~.~.~.^.^.^.W.^.W.^.^.^.^.^.^.W.^.W.W.^.^.W.W.W.Q.E.W.W.W.W.~.~.~.~.~.~.",
"W.W.W.~.W.L.Z.Z.F.E.W.W.~.XX{.^.^.^.~.^.^.^.^.^.^.W.^.W.W.^.^.W.W.^.^.W.W.I.I.I.A.E.~.W.E.W.E.W.~.~.",
"~.!.~.W.A.Z.Z.A.D.I.E.W.^.^.(.^.~.~.W.W.W.Q.E.^.I.Y.Y.Q.E.Y.^.^.Q.^.^.^.E.I.F.A.F.E.E.E.E.I.E.W.~.~.",
"~.~.W.W.A.A.Z.A.F.F.E.W.^.^.^.^.~.~.^.E.B.y.n.n.n.n.M.i.r.u.P.[.~.^.^.W.I.F.A.F.A.F.F.I.I.F.F.I.~.~.",
"~.W.W.W.E.A.A.Z.F.E.E.W.E.^.~.~.~.W.W.E.K.n.n.n.n.n.n.n.M.M.K.M.i.Y.W.E.F.F.F.F.F.F.F.D.F.F.F.F.E.~.",
"~.W.W.W.E.E.E.F.F.E.F.E.E.I.E.E.E.E.A.m.y.e.e.,.;.,.<.,.e.e.y.i.i.a.i.Z.F.I.I.F.F.D.Z.Z.F.D.F.E.~.~.",
"~.~.~.~.~.~.W.A.A.F.F.I.F.F.F.F.D.n.y.e.<.<.<.=.' ' ' ' ! ' =.<.6.r.7.4.m.I.F.D.D.D.Z.A.A.E.E.E.~.~.",
"E.~.~.~.~.~.W.E.F.F.I.F.D.D.A.C.e.,.-.! / ' ( / Q Q Q Q Q ! ! ' =. .:.4.=.Z.F.F.D.D.Z.D.F.E.E.~.W.W.",
"W.~.~.^.~.~.W.E.D.F.F.A.Z.Z.n.,.( Q E W W ~ ~ W W ~ ~ E ! ! E ! / (  . ...4.C.F.F.F.D.F.E.W.E.E.~.~.",
"~.~.~.~.W.~.W.E.F.F.F.I.F.m.>.( W E W W W P P ~ W J W P J E E ! E / ^ | =...i.Y.E.I.F.F.E.E.E.E.~.~.",
"~.~.W.W.W.W.E.I.F.D.F.A.m.:.Q J W / A P ^ S S ^ R k ^ ^ B J ^ A E A ! / } } ~ K.~.W.E.I.E.E.W.~.~.~.",
"W.W.E.W.~.W.E.A.F.A.S.M.-.J J A E | 0 : Z p p Z z g z f : f k : A Q E ! } W P 7.W.^.W.E.E.E.~.~.~.~.",
"W.W.W.W.~.~.E.L.F.S.y.r.~ J ( A > f f R 1.f.S.S.R./.T.S.f.3.` f S S S =.W I G I Y.^.^.~.E.~.W.W.~.~.",
"W.~.~.~.~.~.W.E.W.F.6. .T J f $ : O.S.(.,X<X<X8X8X7X5X7X1X,X-XT.` > $ J A P I } Y..X(.^.~.~.^.^.^.~.",
"~.~.~.~.^.~.~.~.E.A.} P I H . % 2.(.5XqXtXeXeXtX8X9X9X9XwXqXqX5X!.` ; ; 0 W y C U.^.^.{.^.^.^.W.^.^.",
"^.^.~.~.~.~.~.~.E.C.w 4 2 #   ` (.4X9X9XtXrXeXtXqX8X9X3X3X9XrXqX1XT.x . + q @ V '..X^.^.^.^.^.~.!.^.",
"~.^.^.~.~.~.~.W.E.S.[ @ + $ % 1.,X9XrXrXtXrXrXrX3X3X9X9X3XrXrXrXqX:XO.% $ # @ 4.[..X^.^.^.^.^..X^.W.",
"^.^.~.~.W.~.~.E.I.Z.| 9 w s p f.2XrX9X9XeXrXrX9XrX9X3X3X3XrXrXrXqX1X%.% s 3 h 8.{.{.^.^.^.{.XX^.E.W.",
"~.W.W.W.W.W.~.E.I.Z.@.e k i D !.7X3X3XeXqXtXrXrXeXrXrXrX3XeX9X9X0X6Xv.d a j h +.[.{.^.^.W.^.^.E.E.~.",
"W.E.E.E.W.W.W.I.Z.C.w.k s d 3.+X+X(.=X,X7X9XqX3XeXeXeXeX9X3X,X=X(.|.T.O.d a h +.[.^..XW.Q.I.I.E.E.Q.",
"E.E.E.E.W.E.F.D.F.A.k.k a c T.|.j.1.` V.+X5XwX9XeXeXeXeX7X*XV.$.$.3.J.l.x a h *.~.W.I.Q.E.E.E.E.E.E.",
"E.E.E.E.F.D.D.Z.Z.F.C.H a _ |.|.d.6.` ` 0.(.>X8XeXeXeX<X(.j.` ^ #.0.[.|.x a n c.~.W.E.I.E.E.E.E.~.W.",
"W.E.E.E.Z.Z.Z.Z.D.F.A.1.3 ) ;X}.z.s.G > D f.*X7XrXeX8X-Xv.T 8 e r.k.Y.$Xo.3 h '.W.E.E.I.E.E.W.W.~.~.",
"W.E.E.A.S.Z.D.F.E.I.A.6.s 9.:X}.P._.] G :.0.(.7XrX9X8X+Xq.8.e C H.U.K.$X5.3 [ [.~.E.I.I.I.Q.~.^.~.W.",
"W.W.E.A.D.F.E.I.E.F.F.C.Z R Q.}.b.%Xs.p.].m.~.7X9XqX0X|.z. Xs.s.].G.`.'.[ n G.~.^.W.I.L.E.E.W.W.E.W.",
"~.W.E.L.I.W.W.E.E.I.E.I.l.Y ^ c.p._.@X#X'.l.;X0X9XwX0X,XN.`.@X%X`.w.c.[ b P.[.^.W.E.E.E.W.W.W.^.W.~.",
"^.W.E.I.W.^.^.~.W.E.E.E.S.| n P &.8.w.p.J.+X1X>X&X=X;X,X$XG.a.8.[ [ n b &.[.{.~.^.W.~.^.^.^.W.^.^.^.",
"^.^.^.W.~.^..X(.^.^.W.W.F.l.^ l b M +.q.x.J.x.%._ _ _ %.0.9.#.Y n M b b `.{.^.{.{.^.^.{..X^.^.^.^.^.",
"W.W.^.^.^.^.^.^.{..X.XW.F.Z.>.n x F v v c U v v U U U v F v c F U n h &.~.^.^.{.{.^.^.^.W.Q.E.~.W.W.",
"~.W.^.E.^.^.^.I.I.W.^.W.F.A.m.#.j d j v c M c _ _ x v ) _ U N j a M 8.Q.!.~.~.{.{.^.~.E.E.T.A.L.E.~.",
"W.W.W.W.W.W.E.E.I.F.W.W.E.A.F.S.q.T 3 3 a a j x x x x c j j a * n G.~.~.E.L.E.^.^.^.E.A.E.L.A.F.E.Q.",
"Q.W.W.W.^.W.W.E.I.A.F.E.W.E.E.I.Z.u.w X & & * 3 3 - a * & + + 5 &.[.^.E.I.E.W.^.W.~.E.I.A.I.L.W.~.~.",
"~.W.~.^.W.W.W.I.A.A.E.E.~.W.W.I.B.} y O + < @ & , + + < 8 @ X e [ P.~.E.L.I.E.^.^.E.W.I.F.T.E.W.~.E.",
"~.W.W.Q.E.E.E.E.F.A.I.W.^.{.^.E.u.} r q < q y m 4 O q e 6 @ 6 8 K { C.E.E.E.E.W.~.E.E.L.E.E.E.W.E.~.",
"~.W.E.E.E.E.I.E.E.E.Q.W.^.{..XQ.5.Y 8 y K 4 q u < , 7 7 7 V G 6 r | x.L.E.W.E.~.W.E.E.E.I.E.W.W.~.W.",
"W.~.E.W.E.E.E.E.W.E.E.W.{..XXXW.C.q.3 9 K m 1 , u u O , y V r 8 w.L.Q.W.W.W.W.W.W.E.E.L.F.W.W.~.~.~.",
"~.W.W.W.E.E.E.E.I.E.E.E.E.^..XW.L.l.a 3 w 5 2 O 4 4 , 2 8 2 2 2 c.Y.W.W.W.E.E.E.E.~.~.~.W.~.~.~.W.W.",
"W.~.Q.E.E.E.E.E.I.E.I.I.E.E.E.E.L.q.3 & , 2 2 @ , 2 , = @ 3 & = 9.I.I.I.I.L.A.I.E.W.~.~.^.~.~.~.W.W.",
"W.W.E.W.^.W.W.I.I.F.A.T.E.E.I.E.K.5.w e 2 = @ # X X @ < , 5 5 2 | K.D.Z.A.F.F.D.F.I.W.^.^.^.^.^.^.~.",
"^.^.^.^.W.W.I.F.I.A.A.A.E.E.E.E.W.G.H y G G V B r 8 r e t t 5 b x.F.D.S.Z.F.F.D.F.I.^..X^.^.^..X^.^.",
"^.^.^.W.E.E.I.F.A.A.E.E.W.^.W.W.^.I.G 7 r B B B r r q y b t t m K.L.D.A.I.E.E.W.W.^.^..XOX.X.X.X{.^.",
"^.^.^.E.I.F.I.I.E.E.W.~.{.^.^.^.W.^.N.q O @ O 6 W } , , , , t x.I.A.D.I.~.W.^.^.(..X.XOXOX.X.X.X{.{.",
"^.^.^.E.F.F.F.W.I.~.^.(.(.^.^.W.~.~.L.L 7 7 7 q P.U.q 1 q 1 m L.~.L.E.W.^.^.XX.XXXOXOXXX.X^..X.X^.^.",
"^.^.^.E.F.I.W.I.^.~.~.^.^.W.~.~.~.^.I.&.b u q y '.[.K t t t ] L.W.E.~.~.^..XOXOXXXXX^.E.E.I.I.W.{.{.",
".X^.^.E.W.I.I.W.W.W.Y.E.~.~.^.^.^.W.~.I.C.J.L.I.^.^.Y.Y.Y.L.I.~.~.~.~.^.^.^.^..XOX.XI.I.[.W.E.W.^..X",
".X.X^.^.^.^.W.~.I.~.W.W.^.^.W.W.^.~.W.^.W.^.^.W.^.^.^.^.^.~.~.^.~.~.~.~.W.Y.I.E.^.E.I.E.W.W.W.W.~.W.",
"W.^.^.^.^.^.^.W.W.^.^.W.W.^.W.W.^.W.W.^.^.^.~.^.^.~.^.~.Q.~.W.^.^.^.~.~.~.~.W.I.A.F.E.E.E.T.E.W.W.W.",
"E.Y.^.^..X^.^.^.^.^.^.^.W.~.^.[.^.^.W.W.~.^.^.^.^.^.^.^.!.~.~.W.^.{.^.^.~.~.E.E.I.E.E.F.L.E.E.E.E.T."
};
