/* XPM */
static char *Hole_PNG_Photo_removebg_preview__1_1706307153[] = {
/* columns rows colors chars-per-pixel */
"50 50 207 2 ",
"   c #010101",
".  c #0A0402",
"X  c #0B0807",
"o  c #040609",
"O  c #0D0B0A",
"+  c #05090A",
"@  c #120600",
"#  c #130E0C",
"$  c #190E0A",
"%  c #160A04",
"&  c #15110D",
"*  c #1C130E",
"=  c #161313",
"-  c #1B1512",
";  c #1F1915",
":  c #1F1D1C",
">  c #261A0D",
",  c #251809",
"<  c #231B15",
"1  c #2A1E15",
"2  c #241D1B",
"3  c #2B1E1B",
"4  c #221713",
"5  c #30240E",
"6  c #2D2215",
"7  c #26211C",
"8  c #2C231D",
"9  c #242017",
"0  c #312414",
"q  c #32241D",
"w  c #35291C",
"e  c #3A2C1D",
"r  c #262422",
"t  c #2B2523",
"y  c #2E2925",
"u  c #2A2529",
"i  c #2D2B29",
"p  c #332521",
"a  c #392721",
"s  c #342A24",
"d  c #3A2C24",
"f  c #342D2B",
"g  c #3B2D2A",
"h  c #3C3024",
"j  c #35312D",
"k  c #3C322C",
"l  c #363534",
"z  c #3B3533",
"x  c #3E3B39",
"c  c #3C3838",
"v  c #423426",
"b  c #42342C",
"n  c #45392D",
"m  c #4A3C2D",
"M  c #48372F",
"N  c #413432",
"B  c #443A35",
"V  c #4B3C33",
"C  c #403738",
"Z  c #433C3A",
"A  c #4B3E39",
"S  c #503F36",
"D  c #3F413E",
"F  c #4C402A",
"G  c #4D4135",
"H  c #45433F",
"J  c #4D423A",
"K  c #524435",
"L  c #53443B",
"P  c #56483D",
"I  c #5A4C3D",
"U  c #584C36",
"Y  c #5F533C",
"T  c #60513E",
"R  c #453F41",
"E  c #464243",
"W  c #4B4442",
"Q  c #4C4B4A",
"!  c #494748",
"~  c #524543",
"^  c #554A44",
"/  c #5C4D44",
"(  c #504748",
")  c #544D4B",
"_  c #5B4D4B",
"`  c #594745",
"'  c #5E5143",
"]  c #52504E",
"[  c #5D524D",
"{  c #584D51",
"}  c #565351",
"|  c #5C5353",
" . c #5C5A57",
".. c #5D5B59",
"X. c #5E5558",
"o. c #604E46",
"O. c #614F4E",
"+. c #625545",
"@. c #665946",
"#. c #63544C",
"$. c #6A5B4C",
"%. c #67574E",
"&. c #645653",
"*. c #655953",
"=. c #6B5C54",
"-. c #645A5B",
";. c #6A5D5A",
":. c #715F57",
">. c #6D614D",
",. c #73664E",
"<. c #6E6255",
"1. c #6F6159",
"2. c #67625E",
"3. c #746455",
"4. c #756956",
"5. c #72635C",
"6. c #78665D",
"7. c #74685C",
"8. c #7B6D5E",
"9. c #786954",
"0. c #7F735C",
"q. c #695F60",
"w. c #656362",
"e. c #6C6564",
"r. c #6F6B64",
"t. c #6D6A69",
"y. c #736562",
"u. c #7A6760",
"i. c #756A63",
"p. c #7B6B63",
"a. c #746C6B",
"s. c #7B6D6B",
"d. c #7E7064",
"f. c #75716D",
"g. c #7E726C",
"h. c #7B7372",
"j. c #797572",
"k. c #81755D",
"l. c #816E66",
"z. c #826F68",
"x. c #827165",
"c. c #857963",
"v. c #84746B",
"b. c #88766C",
"n. c #86796A",
"m. c #8A7B6C",
"M. c #8A7E66",
"N. c #837672",
"B. c #857B74",
"V. c #8A7B73",
"C. c #8B7D79",
"Z. c #887977",
"A. c #917E74",
"S. c #927F79",
"D. c #8E836A",
"F. c #92846D",
"G. c #968E6B",
"H. c #9A8E6D",
"J. c #9D926E",
"K. c #8C817B",
"L. c #928373",
"P. c #958A74",
"I. c #9A8D73",
"U. c #93837C",
"Y. c #98867E",
"T. c #95887C",
"R. c #9B8D7C",
"E. c #9E9273",
"W. c #9D927C",
"Q. c #A29574",
"!. c #A59976",
"~. c #A89B76",
"^. c #A2957B",
"/. c #A6997A",
"(. c #A99C7C",
"). c #ADA17D",
"_. c #877C80",
"`. c #958781",
"'. c #958983",
"]. c #9B8B84",
"[. c #9B8E8A",
"{. c #998A85",
"}. c #9E9184",
"|. c #9F908B",
" X c #9F9492",
".X c #A08D86",
"XX c #A39583",
"oX c #A59A81",
"OX c #AA9C83",
"+X c #A3938B",
"@X c #A6998A",
"#X c #AB9D8B",
"$X c #A39691",
"%X c #AA9792",
"&X c #AB9B94",
"*X c #ADA183",
"=X c #ADA28A",
"-X c #B2A586",
";X c #B1A389",
":X c #B4A988",
">X c #AEA191",
",X c #B3A493",
"<X c #B3A49E",
"1X c #B6A998",
"2X c #BEB1A9",
"3X c #B9ABA8",
"4X c #C8B6AA",
/* pixels */
"Q.Q.Q.Q.(.(.*X(.(./.(.oX/.!.).(.OX^.(.OXOX(./././.~.~.(.~.!.~././.E.E.).Q.).!.!.!.J.J.Q.E.W.W.E.E.E.",
"E.E.Q.Q.E.Q.*X(.OXoX^.(.(./.Q.*X(.XX^.(././.(.~.~./.~.~.~./.~./.W.).!.!.).J./.Q.J.Q.!.~.!.).).W.Q.E.",
"/.Q.I.Q.H.H.I.Q.W./.OX^.oX(.*XQ.(.#X;X#X/.Q.(.*X~././.~.~./.~.!.).!.).!.Q.Q.^.Q.Q.!.!./.).!.!.!./.Q.",
"Q./.(.(.E.R.I.M.F U P.=X^.;X*X(.OXk.k.I.=X*XW./.(.(./././././.Q.E.E./.).Q.Q.E.Q.E.Q.Q.!.J.!.J.)./.).",
"(.(.(.W.I.^.L.@.v m @.=XXXXX=X=X@.0 e T P.=XoX=XW.XX/.oX=XoX*XoX=X*XE.W.E.E.I.I.I.E.J.J.Q.J.J.E.~./.",
"Q.~.^.^.^.:.b 0 V n e d.>X=XW.>.w e v 3 K n.W.R.L.P.P.P.P.P.P.R.P.c.=X*XW.W.I.G.J.E.J.J.J.J.J.J.Q./.",
"Q.~.Q.OX].=.o.p./ [ *.G G G w > w 3 b S L s e N e w w d d w d k G m T.=XG.E.G.J.J.J.G.J.J.G.J.J.Q./.",
"~.Q./.oXL.+X$Xz.y.N.<.*.q > > 1 3 a N b g 3 b k s s d b h h n P n ^ ' D.}.W.E.J.G.G.G.G.G.J.J.E.Q.Q.",
"~.Q./.#X+.{.3X Xh.s.[.) 3 s 1 1 3 p g g 3 3 N p 8 p g b a a b p a M M V l.XXE.^.J.).G.G.I.Q.E.Q././.",
"Q.(.OXP.G / [.Z.) z B f f g 4 4 3 3 s p 3 g g q p d a q 3 a v a R V R M M $.n.3.>.>.D.E.I.Q.~.!././.",
"Q.~.^.:.L / e.e.t t 8 3 3 7 4 3 4 3 k d a g p q q d g e a v a a b S V v b b N A G Y 0.I././.Q.Q./.Q.",
"Q.).F.5 g ` ~ 3 Z J f 2 r p 2 = < b N d p d 1 8 d d d w q v q v b b v v M b M u.2X@Xm.XXQ.J.Q.Q.~.~.",
"Q.Q.OX3.A 5.Z t g s w y 9 t r 2 t b s 8 3 t 3 1 f d d 8 a d 0 d S S o.S A o.*.s.r.T.T.^.Q.Q.Q.Q././.",
"(.Q.^.XX#.s 1 8 z 2 9 9 9 7 2 r t d 8 8 8 2 3 1 q s 8 8 p q q g e q o.:.&.~ ~ a.'.i.T.oX^.Q.~.!.~./.",
"Q.~.E.#X/ k ; 7 4 * 9 9 9 r r 2 r ; ; : 2 = * - < ; $ $ $ * 8 b M v L %./ P #.p.T.n.@XW.^.(.Q.~./.!.",
"~.(.OXY.G G A z k z s ; : t R E t X .   X .       o   .     - s d M b V S ~ *.' i.m.#XoX^.^.(./././.",
"~./.;X<.. 6 f z *.l u t : E D u O o                         . O s d V [ v./ M L o.P b.1XoX#X(.(.OX~.",
"/.!.=XD.h h $ k ) f t r R c u = o                             . * d b L o.%.K S m I I x.OXoX#XQ.(.(.",
"~.(.^.=XP.d [ g.~ g R E x f i =                                   * f n V V V M V n v w v @.(.;X^.~.",
"~.(.OX=Xn.G ^ f u ) { z R ( i =                                     % d h b g K V b h d e m A.-XQ.^.",
"(./.I.XXXXi.b ~ } W Z l x j i &                                 X     * s d q b a g p g 7.n.x.OXQ.~.",
"Q.Q./.^.@Xi.i.r.g z y z D l l &                                       . 2 4 q q g s b i.x.n.R.Y.S.~.",
"H.Q.^.XX0.&./ B z g 2 f l j i &                                       . @ 2 g N b p A :.5./ =.XXQ.Q.",
"Q./.E.XXv d B g ) j H y r i i =                                         . 4 g 8 * 3 d b #.%./ XX^.~.",
"Q.^.(.b.5 0 p S W g y j y l i ;                                     o   # Z J ^ ~ ;.A N o.*.L 8.(.~.",
"Q.E.^.3.a o.u.y.~ Z f r f x 7 .     o                           o o   . W i.%.;.S.N.y.;.&.5.6.=.(.^.",
"^.(.I.T p.N._.;._ z g y r j i +                                 o o   # W e.7.K.$X+X{.C.V.&.u..X^.^.",
"^.(.3.v %.=._ &.z t y x  .[ E :                                       < J [ 5.U.%X$X<X+X].C.b.#X^.~.",
"/.OX$.e V 3 ;.&.k y R -.t...c O                                 o   X Z ;.5.p.v.Y.+X`.<X.Xl.].XXOX(.",
"Q.;X/.m K u.N.{ f B a.h.t.] D O                                     < ) v.p.z.A.`.+X.X<X%X+XY..X%XOX",
"OXR.OXP p.s.y.&.-.-.e.2.w.} Q D : = o                             X t ^ g.p.p.m.U.b.U.+X#XS.A.Y.~.^.",
"^.OX#X6.;.` | y.2.W ] f.t.Q D l Q l : O                           # f ^ 5.6.:.u.A.:./ P S..XY.Y.^.Q.",
"^.^.R.e 1 8 q b ` ) -.h.w.E c r ]  .! ! u                       2 k f U [ *.#.%.` z.o.q I R.I.I.^.Q.",
"^.#X+.@ 5 < % 3 N | { y.( Z r x t.Q w. .! x = . .             & L [ J f b P V.&.O.R o.a S (.I.E.~.~.",
"I.OXF.k.>.U G k y.;.~ ) Z Z i ..-.! r.f.w. .) ] D D :     . O l ^ 2.<.n b P 6.#.R o.l.b.A.I.Q./.Q.Q.",
"*X/./.OXW.@X=XW.p.A A W W c Q e.]  .} ] r.f.2.f.f.w.] r     # h *.<.<.<.P _ 6..X.X$.b.XX^.^.Q.J.^.^.",
"Q.Q.!.J.E.I.W.}.n.G s 8 f f w.w.{ c 7 Z Q r.'.h.} ..q.} u i H f P 8.V.].6.6.Y.XXW.9.E.E.H.^.Q.).~.^.",
"/.Q.).E.J.I.).W.=X0.q k k B | } C C j i.i.r.B.h. .f.t...x z J G P 1.Y.+XV.p.Y.R.oXoXE.G.E.E.^.E.Q.Q.",
"E.).E.J.).E.E.W.oXd.6 d 3 s ( -.e.-.f.K.g.P.B.B.j.f.E c W &.^ P $.P 6.%X.Xz.A.OX/.Q.!.).E.W.).W.^.~.",
").E.E.).E.E.E.E.^.c.w 1 $ f e._.} } e.K.K.T.`.B.K.f.} X.-.i.1.<.d./ / +Xl.z.OXI.Q./.J.).).)././.~.^.",
"~.~.!.~.Q.~.Q.E.W.k.0 5 k ) B.a.z _ _ N.V.V.C.^ N.a.X.q.s.S.b.b.Y.S.S.%XY.3.R.I.H.E.~.~.).).(.(.(.~.",
"(.~.^.^.~.Q.H.H./.0., k <.7.N.h.;.v.s.&.d.K.C.O.y.{ a.s.l._.b.A.S.b..XY.z.b.R.R.H.Q.).).).~.(.#X(.(.",
"(.(.~.~.Q.Q.J.J.E.k.5 Y d.N.U.N.i.s.U.`.`.].p.B g | $XN.Z._.S._.S.u.+XS.A.#XXXE.Q.~.(.).*X*XOXOXOX).",
"(.XX~.Q.Q.H.J.J./.W.Y >.m.v.v.x.L.R.v.R.+X.Xy.L N.`.Z.`.S.A.Z.%Xb.a b.4X,X#X/.).*X).-X-X:X:X;X*XOX).",
"OXOX~.Q.J.J.J.Q.Q./.^.OXF.8.L.R.oXoXm.n.+X`.K.1.s.}.7.b S :.o..X:.M o.,X=XOX=X:X-X-X;X*X).(.(.OX(.(.",
"*X(.^.Q.H.H.Q.Q././.(.oXOX^.^.#X^.OX#Xx.b.p.x./ m.XXm e 0 %.l.:.S S S #XoX*X-X).-X*X(.Q.E.E.Q.Q.(.).",
"*X).~.^.Q.Q.Q.Q.Q.Q.^./.^.^.OX^./.!.OXXXY.o.n ' I W.W./.A.b.l.%.l.%XE.#X^.).~.).:X(.E.Q.!.!.~.Q.).).",
"(.(.(.(.~.~.~.Q.Q.(.Q.(.(.(.(././.E.(.OX^.A.T.R.W./.*XoXOX#Xz.l.#X#XOXQ./.J.J.Q.(.Q.I.Q.!.!.!.!.~.~.",
"~.(.OX(.(.(.(.~./.(.(./././././.~./.^.~.OXOXOXOXOX(.^.^.^.(.(.OX(.(.(.(.^.Q.Q.J.H.H.Q.H.E.Q.Q.Q.Q.Q.",
"!.^.~.(.(.(.(.(.(.(.(.(.(.~.(./.~./././.(.(.(.(.~.(.(.(.(./.^.(.(.(.(.(.(./.Q.Q.E.E.E.E.H.Q.Q.Q.Q.A."
};
