/* XPM */
static char *e0e7fe6e92754acdee8e83df53660937TxvCmQvet26QB1bX[] = {
/* columns rows colors chars-per-pixel */
"50 50 217 2 ",
"   c None",
".  c #1F1C0C",
"X  c #1C1D14",
"o  c #1F1F19",
"O  c #211B0B",
"+  c #2C1C0A",
"@  c #261408",
"#  c #351C0C",
"$  c #271B12",
"%  c #2A1E10",
"&  c #331D13",
"*  c #391F10",
"=  c #1F211C",
"-  c #2A230E",
";  c #23200F",
":  c #262213",
">  c #2B2514",
",  c #23231D",
"<  c #2B241D",
"1  c #2B2A1C",
"2  c #2B2A17",
"3  c #332416",
"4  c #3E2311",
"5  c #34231B",
"6  c #3A261B",
"7  c #332A1C",
"8  c #3B2B1C",
"9  c #372A14",
"0  c #2D3118",
"q  c #3C331D",
"w  c #37361C",
"e  c #2B2521",
"r  c #2C2C23",
"t  c #242622",
"y  c #342622",
"u  c #342E23",
"i  c #3B2B22",
"p  c #352A29",
"a  c #3B2D29",
"s  c #3E2521",
"d  c #343225",
"f  c #3B3323",
"g  c #3D3B22",
"h  c #35332B",
"j  c #3C3B2B",
"k  c #3A3329",
"l  c #3D3D35",
"z  c #42271A",
"x  c #432A1D",
"c  c #4A2E1A",
"v  c #402B16",
"b  c #422D24",
"n  c #462D29",
"m  c #462B22",
"M  c #443223",
"N  c #4B3426",
"B  c #45342A",
"V  c #4C332C",
"C  c #453C2B",
"Z  c #4A3C2B",
"A  c #443D24",
"S  c #55362B",
"D  c #5B3D2C",
"F  c #573623",
"G  c #423C31",
"H  c #433835",
"J  c #533831",
"K  c #653E2D",
"L  c #603E34",
"P  c #3C4139",
"I  c #424126",
"U  c #43442E",
"Y  c #4A412E",
"T  c #4B4C2E",
"R  c #4B4727",
"E  c #5A442C",
"W  c #444334",
"Q  c #4B4433",
"!  c #4C4B34",
"~  c #4A443B",
"^  c #4D4D3C",
"/  c #464B39",
"(  c #544234",
")  c #5F4237",
"_  c #524D3A",
"`  c #5B4939",
"'  c #4E5132",
"]  c #545537",
"[  c #53533B",
"{  c #565A3C",
"}  c #5A5B3D",
"|  c #59583B",
" . c #64472C",
".. c #644C3C",
"X. c #684835",
"o. c #724C38",
"O. c #67593C",
"+. c #705B3C",
"@. c #4B4842",
"#. c #544D43",
"$. c #5A4E47",
"%. c #4F5245",
"&. c #4F5348",
"*. c #535443",
"=. c #5C5342",
"-. c #565944",
";. c #5D5C43",
":. c #56554C",
">. c #5C5E49",
",. c #59574A",
"<. c #565852",
"1. c #5B5B57",
"2. c #625443",
"3. c #655C44",
"4. c #63584A",
"5. c #6B5E4D",
"6. c #685647",
"7. c #745F44",
"8. c #635B53",
"9. c #705E50",
"0. c #5D6143",
"q. c #626344",
"w. c #66644C",
"e. c #6D6E4D",
"r. c #696847",
"t. c #7D644E",
"y. c #6E714C",
"u. c #72744D",
"i. c #777A4F",
"p. c #6C6356",
"a. c #6A675A",
"s. c #756955",
"d. c #6F7358",
"f. c #727153",
"g. c #7A7D53",
"h. c #79755C",
"j. c #6C6A64",
"k. c #7A776A",
"l. c #7C7C78",
"z. c #797B72",
"x. c #806B57",
"c. c #87745A",
"v. c #907659",
"b. c #837463",
"n. c #877A6A",
"m. c #947E65",
"M. c #867D75",
"N. c #7F8054",
"B. c #7E8179",
"V. c #83855C",
"C. c #858561",
"Z. c #8C8C64",
"A. c #8D8D6B",
"S. c #868768",
"D. c #95826E",
"F. c #97846A",
"G. c #93936B",
"H. c #99986F",
"J. c #8E8A7F",
"K. c #9C8B75",
"L. c #8D9075",
"P. c #9E9C75",
"I. c #9D9D7B",
"U. c #909078",
"Y. c #A18671",
"T. c #AA997F",
"R. c #A6987B",
"E. c #A0A07E",
"W. c #928A88",
"Q. c #9C9284",
"!. c #9F9F80",
"~. c #888680",
"^. c #A69582",
"/. c #AD9B87",
"(. c #AC9C89",
"). c #A59A81",
"_. c #BA9E86",
"`. c #BBA48D",
"'. c #B4A289",
"]. c #B8A693",
"[. c #A5A581",
"{. c #B5B6B0",
"}. c #C5AD95",
"|. c #C9AB91",
" X c #C9B69C",
".X c #C4B399",
"XX c #DBBB95",
"oX c #D7B997",
"OX c #C1A88A",
"+X c #E1BE98",
"@X c #CCB6A1",
"#X c #D2BCA2",
"$X c #DABFA4",
"%X c #DAC09F",
"&X c #EBC69F",
"*X c #E2C29C",
"=X c #DFC4A4",
"-X c #DDC4AD",
";X c #D6C0A9",
":X c #C9C4B6",
">X c #DACAB5",
",X c #DCD0BA",
"<X c #EDC9A5",
"1X c #E5CAAB",
"2X c #EBCDAE",
"3X c #E4C7A9",
"4X c #F1CDA8",
"5X c #ECD0AB",
"6X c #F2D3AE",
"7X c #F5D2AA",
"8X c #E7CDB5",
"9X c #E0D3BD",
"0X c #EFD4B9",
"qX c #EFD2B4",
"wX c #F5D5B5",
"eX c #D4D4CE",
"rX c #E6D7C0",
/* pixels */
"                                                                                                    ",
"                                                                                                    ",
"                                                                                                    ",
"                                                                                                    ",
"                                                                                                    ",
"                                                                                                    ",
"                                                                                                    ",
"                                            h.A.G.I.[.E.).    w.                                    ",
"                                        e.r.u.g.V.Z.H.P.P.P.R.!.U.a.^                               ",
"                                    ;.} } r.u.i.u.N.Z.G.H.P.P.I.I.L.k.!                             ",
"                                    [ 3.| | r.y.i.g.V.V.C.Z.A.A.A.C.S.f.w                           ",
"                                  [ ! [ } 0.} | e.u.u.y.e.e.f.f.y.e.q.;.*.d                         ",
"                                  [ ! ! [ | } } q.r.e.y.e.e.e.e.e.u.} q.;.j j.                      ",
"                                O q g =.! [ ;.[ | } ;.0.q.q.q.q.| r.q.} [ ~ d                       ",
"                                  g - w.} g T ] { } { { } } } } } ] ! [ ! ~ h ~.                    ",
"                                  '.h.q w I T ! T ' ] ] { { | ] | ] [ -.^ ^ W @.                    ",
"                                0X1X>Xh.O 2 g T R T T U / ! ! _ _ ! ! _ _ / W h                     ",
"                              -X4XwX8X2.: > > f.O.q g ! W U Q Y Q ! Q U ! ! W r                     ",
"                            b.0X<X<X-X` 7 u O f q A w.>.j j C C f C g f j j r 1                     ",
"                            D.qX&X7XqXx.3 a B 6 @ + 7 7 > > - 3 3 3 > > > ; d k.                    ",
"                            T.2X4X&X3X`.M i b b V 8 7 < 7 i 7 q 6 6 3 3 : : 8.                      ",
"                            }.wX4XXX3X@X& i V n n b B B i f C M Z N b M f i p.                      ",
"                            .XoXv. .7.'.( 6 b b s & @ 5 i i M 8 N N x M B 7 ~                       ",
"                            (.F.O.c.h.(.9.5 6 6 5 6.` M 8 6 M m x N m b b 5 @.                      ",
"                            b.2.;.h.5.n.Q.8 6 & 6.].^...t.# x x m z m b b y j.                      ",
"                          <.#.f ,.:X:Xp.:X5.+ + m. X`.+.`.E * x z x x b 5 5                         ",
"                          <.*.G :.eX:Xs.>X/.q 9 c.T.+.m.1X_.X.4 4 x x b i e                         ",
"                          <.#.J.{.eXQ.n.,X#XK.T.` E v.%X3X2X|.v.c * m 6 a y                         ",
"                          1.M.p.W.M.p./.t.X.E 3. X#X3X5X6X<X2X$XY.x 6 5 y H                         ",
"                          ~ _ 4.~ $...c F D E v K.8X=X6X+X+X<X=X#Xc.3 y p W.                        ",
"                          ~ Z ( B M D X.o.o.D z x.-X2X*X&X<XoXoX}.^.B $ #.                          ",
"                          $.b ( .... .o.K F S 6 ..;X$XXXXXoXoXOX^.=.4.8.                            ",
"                            p ` ) X.X.L D S n 6 D. X.X X'.F.x.2.8.                                  ",
"                            p H N S ) J V B i & 6.w.3.R A M 3                                       ",
"                              a 6 6 i i a y $ O 7 q I w.w.;.d                                       ",
"                                k.4.< < < , u : [ [ g d.>.-.%.<.                                    ",
"                                    l , h r h j -.-.0 0.-.-./ P                                     ",
"                                    r r o h ,.7 [ [ 2 [ >.*.l t                                     ",
"                                    e h < k G > C Q > q f d j ,                                     ",
"                                    , < u u % Z 5.3.Y > f d < r l.                                  ",
"                                  l.h G G f 8 (.9XrX].q f C Q d j.                                  ",
"                                  k.h ~ #.=.8 K.,X9X^.Z Q #.W h 1.                                  ",
"                                  B.r r j W Y C k.s._ f j ~ G r 1.                                  ",
"                                    &.%.d 1 1 : . . . u 1 X d @.                                    ",
"                                        r X o , X 1 o , , , z.                                      ",
"                                      j., = o X X , = , t , l.                                      ",
"                                                                                                    ",
"                                                                                                    ",
"                                                                                                    ",
"                                                                                                    "
};
