/* XPM */
static char *open_removebg_preview__2___1_1706150380[] = {
/* columns rows colors chars-per-pixel */
"50 50 185 2 ",
"   c #010101",
".  c #0D0700",
"X  c #070803",
"o  c #0A0905",
"O  c #060509",
"+  c #09070A",
"@  c #0C0C0C",
"#  c #120B03",
"$  c #180F06",
"%  c #120D0B",
"&  c #0F100D",
"*  c #171006",
"=  c #11110E",
"-  c #1C150C",
";  c #1D190E",
":  c #0E0E11",
">  c #110F11",
",  c #0F1110",
"<  c #141313",
"1  c #1A1614",
"2  c #171812",
"3  c #1B1916",
"4  c #161619",
"5  c #181619",
"6  c #1C1C1B",
"7  c #20190F",
"8  c #231D13",
"9  c #231E1A",
"0  c #1F201B",
"q  c #252117",
"w  c #292416",
"e  c #23211E",
"r  c #2A251C",
"t  c #30291E",
"y  c #1E1F21",
"u  c #1D2120",
"i  c #242424",
"p  c #2A2624",
"a  c #2C2924",
"s  c #29272A",
"d  c #27282A",
"f  c #2C2C2C",
"g  c #262429",
"h  c #332D23",
"j  c #312D2A",
"k  c #393027",
"l  c #33322D",
"z  c #3A352D",
"x  c #363226",
"c  c #343333",
"v  c #393533",
"b  c #373833",
"n  c #3B3A35",
"m  c #363639",
"M  c #383639",
"N  c #3C3B3B",
"B  c #413D2C",
"V  c #423C33",
"C  c #423F3C",
"Z  c #3E403D",
"A  c #474133",
"S  c #494335",
"D  c #43413D",
"F  c #4A4439",
"G  c #4C483F",
"H  c #514A3D",
"J  c #58513F",
"K  c #3E3F42",
"L  c #413F41",
"P  c #444443",
"I  c #4A4543",
"U  c #464845",
"Y  c #4A4945",
"T  c #474749",
"R  c #4C4B4B",
"E  c #534C42",
"W  c #514E4C",
"Q  c #545046",
"!  c #5B5244",
"~  c #53524D",
"^  c #59554B",
"/  c #5E594C",
"(  c #4F4E51",
")  c #524E51",
"_  c #545353",
"`  c #5A5653",
"'  c #575955",
"]  c #5B5956",
"[  c #565458",
"{  c #59575A",
"}  c #5C5C5B",
"|  c #605B47",
" . c #655F51",
".. c #615E5B",
"X. c #676050",
"o. c #6D6757",
"O. c #64625D",
"+. c #6A655E",
"@. c #6B685D",
"#. c #736C5C",
"$. c #76715E",
"%. c #5F5E63",
"&. c #615E61",
"*. c #656462",
"=. c #696663",
"-. c #676863",
";. c #6B6A66",
":. c #69676A",
">. c #676968",
",. c #6C6B6A",
"<. c #716D63",
"1. c #726F6D",
"2. c #6F706B",
"3. c #7B7464",
"4. c #7F7A67",
"5. c #74726E",
"6. c #7B756B",
"7. c #757263",
"8. c #716F70",
"9. c #747472",
"0. c #797573",
"q. c #777976",
"w. c #7B7A75",
"e. c #7C7B7B",
"r. c #807766",
"t. c #817867",
"y. c #857C6C",
"u. c #887F6E",
"i. c #807A7A",
"p. c #857D72",
"a. c #938B5D",
"s. c #8A826F",
"d. c #958C64",
"f. c #978D6B",
"g. c #9A8E6C",
"h. c #9C9567",
"j. c #97916F",
"k. c #9C916D",
"l. c #868070",
"z. c #8C8472",
"x. c #8F8875",
"c. c #83827B",
"v. c #8A857C",
"b. c #8A887C",
"n. c #938C75",
"m. c #9C8E72",
"M. c #948C7A",
"N. c #928775",
"B. c #979174",
"V. c #9D9373",
"C. c #96907A",
"Z. c #9D947A",
"A. c #9F987E",
"S. c #A0936F",
"D. c #A1986D",
"F. c #A39575",
"G. c #A59876",
"H. c #A99A77",
"J. c #A3967A",
"K. c #A89779",
"L. c #A5997A",
"P. c #A99C7B",
"I. c #ACA17E",
"U. c #8C8785",
"Y. c #888886",
"T. c #8C8C8A",
"R. c #848482",
"E. c #928C83",
"W. c #9E9582",
"Q. c #9F9886",
"!. c #91908C",
"~. c gray57",
"^. c #999997",
"/. c #9D9D9C",
"(. c #A49B82",
"). c #AB9E82",
"_. c #A49D8A",
"`. c #A69B87",
"'. c #ADA185",
"]. c #ACA38B",
"[. c #B1A380",
"{. c #B2A88D",
"}. c #A7A191",
"|. c #ACA392",
" X c #B4AA93",
/* pixels */
"H.F.H.J.m.f.f.f.S.g.S.H.G.J.`.`.`.}.E.c.+.Y ~ [ R ' } ' Y Z q.b.|.`.`.L.k.h.a.h.D.S.S.F.V.V.k.V.F.F.",
"H.G.J.J.m.m.g.g.F.h.H.F.J.'.J.|.M.7.V n 9.0.~ :.,././.^.!.O.Y Q <.M._.J.V.k.D.a.h.k.g.k.B.k.h.V.F.F.",
"G.F.J.F.F.F.m.m.k.F.S.Z.Z.(.`.#.X.| <.^ ] +._ ~ [ q.e.e.O.+.!.<.^ V  .Z.V.B.d.V.g.h.g.g.k.k.k.k.H.J.",
"G.G.H.G.K.K.F.m.k.F.V.V.J.z.F F @.;.w. .W *.' Z P q.e.q.' Y !.Y v.E.H V l.Z.B.j.g.g.f.f.k.k.k.V.H.J.",
"G.G.P.L.F.K.F.g.k.k.Z.A.N.E $ j ..<.*.O.O.} ' Z R T.q.5.O.U 0.D 8.U.0...E z.A.B.m.f.d.j.h.V.S.G.J.J.",
"F.G.P.P.K.F.F.F.B.V.n.N.! ^ E 1 R =.' >.=.;.2.R W c.,.,.' *.2.U &.) &.i.1.G 7.n.B.j.f.h.k.F.F.G.G.H.",
"F.G.G.P.G.G.H.V.V.n.m.S ^ =.e.c p [ } =.5.5.2.D D q.:.5._ ;.] R { T :.i.w.I n l.C.B.j.j.V.D.F.G.J.G.",
"G.F.G.I.L.H.A.V.m.C.V C ~ W &.%.g K } =.[ n c 3 e R R *.n Y _ _ R ) 0.:.&.C q G C.B.j.k.F.F.V.F.H.H.",
"G.F.F.H.L.Z.V.Z.A.o.h x M K [ *.M d U U b 4 X   o @ = < 1 i M Y D 2.9.' [ M l x | A.Z.V.F.F.m.J.J.P.",
"G.G.F.S.G.I.L.A.z.Z / D c [ [ { K y u 4 <                 + < 9 U ;.>.' U f D ! w s.A.B.m.J.K.K.P.P.",
"F.F.F.G.A.Z.Z.M.H ; a U _ { *.%.K : +                       O O a ~ W R b f O.c.F Z (.J.Z.J.F.K.L.P.",
"K.F.G.G.L.Z.(.4.r a 0 a T ,.%.m 4 O O                             e Z D c U 9.c.o.w 7.(.Z.Z.).K.G.J.",
"K.H.P.Z.L.(.W.A x ' _ y y _ U < O                                   6 l l >.c.5.o.w A {.Z.K.'.K.J.P.",
"K.K.L.J.(.(.z.x D ..:.{ T f e                                   O   X = b 5.>.' Q O.G l.`.`.m.P.P.P.",
"P.K.J.H.(._.7.Q @.*.:.*._ d X                                     O   o b >...] i.5.x G  XJ.P.K.P.I.",
"H.P.L.(.A.].E V ] 5.e.,.M :                     O                       0 *.U.R.:.] G x `.[.S.P.P.P.",
"H.P.P.Z.`.x.V I W ~ } ,.g @                                     +       : _ T.2.O.} ~ 9 r.].).P.P.H.",
"H.I.P.A._.@.p _ ~ ~ } T 4                                             + O c :.,.=.*.W 1 p.|.P.[.F.F.",
"H.H.F.J._.E 3 C ` ] } c :                                                 5 C R Y N 9 % ! |.).H.F.F.",
"G.H.H.L.E.V 9 j b C C g O O                                           O O @ > < @ 4 6 h a Z.[.F.F.F.",
"F.F.F.K.M.h 6 6 3 3 9 6   O                                               O & 2 c U _ I t s.J.g.F.J.",
"S.F.m.L.M.a e v C b i < O                                                   6 Z q.w.<.W 8 N.Z.g.F.F.",
"S.F.F.L.s.x W ,.=.O.n +                                                 O   & Z 9.>.>._ 7 m.(.K.J.F.",
"G.F.Z.J.y.G O.` ;.q.N                                               O       & U 9.' } D 7 N.K.F.J.H.",
"K.F.F.J.7.x v l D ~ f                                               O     X O c P c b 9 - n.L.P.H.H.",
"K.m.Z.n.#.] ..,.5.*.P                                                       , ' e.:.,.` V y.'.Z.J.J.",
"K.K.g.n.o.^ _ { } O.N     O                                           O     , %.>.>.} Y h J (.L.G.G.",
"K.G.m.J.o.C I P _ ;.l                                                   O   @ R } } P D k ! '.G.G.J.",
"P.V.Z.A. .C W _ >.;.p   O                                                   @ U ( R K R z J '.J.P.P.",
"P.P.F.(.| r v M U l 2                                                       @ Z P P ( R q J '.J.P.P.",
"K.'.Z.].#.. 9 4 6 & <                                                   O   O 0 u u c d 3 s. X(.P.(.",
"L.K.H.].p.. % 4 2 e +                                                         4 , , & & - Q.Z.J.L.H.",
"H.L.Z.{.u.. 9 5 i 9 2                                                       @ 9 6 6 6 3 - n.Z.F.F.F.",
"F.H.F.(.u.7 p v N b 6                                                     O : s N [ } I 8 z.V.k.F.Z.",
"F.G.K.J.u.a j Y } ] d                                                 +     @ n ,.e.2.O.t z.V.f.Z.F.",
"G.G.J.J.x.r j W ,.O.6     X                                                 @ R %.%.[ Y 8 s.Z.V.H.J.",
"F.F.H.].z.r j M ' ~ 3   O                                         X     O   X c P n N v 7 n.P.Z.F.J.",
"H.P.H.(.4.8 v l D c <                                               O   O     f c d v l 8 N.Z.V.F.G.",
"F.H.F.J.u.z ..=.*.P 6                                   O   O   X   O + O   % W *.%.*.] x x.Z.H.J.J.",
"F.F.F.J.4.- 9 i 0 = & O                     O     X X O X X X + X X @ + O O @ P ( [ U D 7 x.I.F.H.H.",
"G.G.F.(.t.# 9 l l l 2                     X O   O O o + + @ @ @ + @ @ @ >   5 b b P P v - z.).F.J.F.",
"K.F.F.`.u.9 I ,.-.} f     O X       X O X + o + o + @ @ & @ & , = > : > 5 + @ d 6 f j < $ C.P.F.J.H.",
"F.H.F.L.r.h W ..] ' i             O X o + + @ @ & & , < < 4 4 4 2 3 6 5 5 > < b { ( P i ; M.Z.I.J.F.",
"G.F.F.'.t.9 h a c l &   X     X O X + + @ : , < < 2 4 6 6 6 0 6 0 6 y y i 6 X s R c c l ; C.].V.K.K.",
"F.H.H.).u.I 1.1.T.9.f X O   O X + @ & & < < 4 6 y 0 u i i d i d d f f f s 6 4 _ ~.q.e.U.S x.'.I.P.K.",
"I.K.F.'.z.V ` ..=.O.d     + o X @ @ < 4 2 6 6 u u g g f f f f c c f c c b i @ N :.*._ ` h N.].V.P.P.",
"K.P.P.(.z.V ] ' _ ' p   O + + & , < 4 6 y i g d f c c b m b M N N N K K L g 6 P } %.R W h Z.].I.P.).",
"P.K.P.L.y.h ~ ' Y Y 0   o @ & < 4 6 0 i d f c c M N N K P Z P U R T R U ( f 6 f R } ~ D 8 A.].I.).).",
"P.P.K.J.y.8 v Y N l 2 X O : 4 4 0 i d f c c n K P U P T T R R R R _ _ ~ ( c y f P T T z q (.'.).).).",
"P.I.P.(.6.# 6 9 3 2 +   + > 5 6 i d f f b M N K T R R ( ( ( _ [ _ [ [ { ' n u f d d f i r (.].'.).P."
};
