/* XPM */
static char *_1daed72a3e54afab9aa94bf5bcc7ecfBGTLndiFp25JsUc1[] = {
/* columns rows colors chars-per-pixel */
"50 50 213 2 ",
"   c None",
".  c #1D190E",
"X  c #1F1509",
"o  c #191A11",
"O  c #1C1E19",
"+  c #171A13",
"@  c #2C1C0C",
"#  c #251605",
"$  c #341E0C",
"%  c #261C12",
"&  c #2A1E14",
"*  c #1F211C",
"=  c #2D230E",
"-  c #2B2A0E",
";  c #3A220E",
":  c #2C2412",
">  c #2F2C16",
",  c #24241B",
"<  c #2B251C",
"1  c #2B291D",
"2  c #202217",
"3  c #332514",
"4  c #3B2414",
"5  c #3C2813",
"6  c #35251A",
"7  c #3C251A",
"8  c #342B1C",
"9  c #3C2A1C",
"0  c #2E3116",
"q  c #39321D",
"w  c #303016",
"e  c #242522",
"r  c #272B23",
"t  c #2D2C23",
"y  c #2D2E28",
"u  c #362622",
"i  c #342C23",
"p  c #3C2C23",
"a  c #2F3123",
"s  c #343224",
"d  c #3C3222",
"f  c #3C3925",
"g  c #33332B",
"h  c #3B362B",
"j  c #3C3C2D",
"k  c #36382B",
"l  c #3E3D31",
"z  c #3F3634",
"x  c #40240F",
"c  c #432B1C",
"v  c #462C17",
"b  c #45361E",
"n  c #432D23",
"m  c #492D22",
"M  c #453225",
"N  c #4A3224",
"B  c #443C25",
"V  c #44342B",
"C  c #4B352B",
"Z  c #443C2C",
"A  c #493C2B",
"S  c #513B2C",
"D  c #593D2D",
"F  c #513329",
"G  c #433C31",
"H  c #4C3C31",
"J  c #473E3B",
"K  c #483F3A",
"L  c #543C32",
"P  c #5A3E30",
"I  c #3B4133",
"U  c #3E443A",
"Y  c #424226",
"T  c #44432C",
"R  c #46492E",
"E  c #4A4B2E",
"W  c #5C452F",
"Q  c #57412C",
"!  c #4C522E",
"~  c #454234",
"^  c #464933",
"/  c #4B4C34",
"(  c #4C4238",
")  c #464B3A",
"_  c #4B4B3C",
"`  c #4B4233",
"'  c #5C4632",
"]  c #5B463B",
"[  c #524E3D",
"{  c #554837",
"}  c #4E5237",
"|  c #4F553B",
" . c #525535",
".. c #53543B",
"X. c #565A3C",
"o. c #5A5C3D",
"O. c #545837",
"+. c #624436",
"@. c #644A35",
"#. c #654B3C",
"$. c #66473A",
"%. c #65553C",
"&. c #634529",
"*. c #5A603E",
"=. c #61633E",
"-. c #4D4C44",
";. c #4E4F49",
":. c #544D43",
">. c #594C44",
",. c #4F5048",
"<. c #535541",
"1. c #5B5444",
"2. c #5C5C43",
"3. c #5A544C",
"4. c #57594A",
"5. c #555551",
"6. c #5D5C56",
"7. c #644D44",
"8. c #665242",
"9. c #6A5B4C",
"0. c #695547",
"q. c #735B45",
"w. c #635E58",
"e. c #675C56",
"r. c #715F51",
"t. c #5C6043",
"y. c #5D604B",
"u. c #5D6457",
"i. c #636444",
"p. c #646749",
"a. c #6C6D4C",
"s. c #676A49",
"d. c #71654F",
"f. c #6F714A",
"g. c #6E7144",
"h. c #73754C",
"j. c #696353",
"k. c #6B665C",
"l. c #696858",
"z. c #756354",
"x. c #786552",
"c. c #746F5E",
"v. c #796C55",
"b. c #737551",
"n. c #777657",
"m. c #726A65",
"M. c #73736E",
"N. c #7A7267",
"B. c #797872",
"V. c #777776",
"C. c #826B53",
"Z. c #886A50",
"A. c #84715B",
"S. c #8D735C",
"D. c #967B5D",
"F. c #877869",
"G. c #917B66",
"H. c #837E76",
"J. c #7E8058",
"K. c #83865A",
"L. c #848758",
"P. c #8A8C6A",
"I. c #878965",
"U. c #9C836E",
"Y. c #94966B",
"T. c #9A8B79",
"R. c #9A9D73",
"E. c #9A9B78",
"W. c #A98C75",
"Q. c #A4917E",
"!. c #AE947D",
"~. c #9EA178",
"^. c #A3A47E",
"/. c #828381",
"(. c #928E8A",
"). c #95958D",
"_. c #A99887",
"`. c #B59F84",
"'. c #AB9D92",
"]. c #BAA28F",
"[. c #B1A58D",
"{. c #A3A99F",
"}. c #B9A694",
"|. c #CBAE94",
" X c #CAAF9E",
".X c #D1AF93",
"XX c #C9B49B",
"oX c #C6B395",
"OX c #DCBA9B",
"+X c #D4B69A",
"@X c #C6A88E",
"#X c #E3BE9D",
"$X c #C5B7A5",
"%X c #DBBDA3",
"&X c #E1BFA4",
"*X c #DAC5AA",
"=X c #DACAB8",
"-X c #C9C8B6",
";X c #E4C3A4",
":X c #EAC6A5",
">X c #E3C6AB",
",X c #ECCBAC",
"<X c #EBC9A8",
"1X c #F1CDAB",
"2X c #ECCEB3",
"3X c #E7CFB7",
"4X c #EBD1B5",
"5X c #EBD3B9",
"6X c #F3D6BC",
"7X c #D1D3C5",
"8X c #DDDDD1",
"9X c #E2D2C5",
"0X c #E5D8C5",
/* pixels */
"                                                                                                    ",
"                                                                                                    ",
"                                                                                                    ",
"                                                                                                    ",
"                                                                                                    ",
"                                                                                                    ",
"                                                                                                    ",
"                                            ^.^.R.Y.P.I.    / j                                     ",
"                                      ~.R.R.~.Y.I.K.J.f.s.a.i...s                                   ",
"                                  E.E.R.R.R.Y.L.L.g.h.b.i.o.o.2.<.t                                 ",
"                              P.P.P.P.P.I.I.K.K.n.h.a.=.o.i.o./ [ h k.                              ",
"                            y.2.s.a.b.b.a.s.f.b.f.b.i. .o.2.../ [ c.3.                              ",
"                        ~ y.t.p.a.a.a.a.a.a.a.s.s.o. .o.2.../ / ..[ l.                              ",
"                      k j ....*.t.i.i.i.i.i.i.o.o...2.2./ / X.f > : j.                              ",
"                      a _ /  .!  .X.o.o.o.o.o.X.t.X./ R R 2.2.w Z c.                                ",
"                    ,.j / ..E o.X.O. ...X.....} R ../ / Y - Y b.[.0X                                ",
"                    g l _ ../ E / } / / / / / T ^ / R B q # v.*X4X5X                                ",
"                    y _ ~ ^ R T / / R T T T ^ ^ j 2.c.= # 5 @.4X,X2X*X                              ",
"                    e g h f T B f T T B f T 1.j.s s 8 : B 5 ' *X<X<X5X                              ",
"                    M.s < = = = 3 3 : : 3 : 8 3 : % d 7 9 ; C.2X1X1X4X                              ",
"                      w.% 3 @ 3 9 p 9 9 7 3 6 6 8 9 9 M c 5 ].2X:X:X4X                              ",
"                      k.i M n N M C M M n 9 M M V M n M 9 c  X>X<X<X6X                              ",
"                      K p p m c C C c M N 9 3 # # M 9 9 3 ' ].q.&.D.*X                              ",
"                      J p n m m n M n c 7 7 C { r.# 6 n @ z._.A.A.%.F.                              ",
"                      m.u n 7 N N 7 c c 4 x.8._.[.9.3 9 3 '.F.9.c.2.2.                              ",
"                        & p n 7 c N c $ Q ].8.}.$XG.@ @ z.$Xv.$X-X4.1   5.                          ",
"                        u p n n 7 $ 5 @.`.3XG.q._.A.q M _.=Xv.$X7X4.U ;.5.                          ",
"                        < p 7 7 5 b S.|.2X>X>XC.W %.Q.T.$X=XG.T.8X{.).-.6.                          ",
"                        z i p 6 v W.%X>X2X,X,X2X+XXXq.S #.x.Q.z.H.).6.H.w.                          ",
"                        (.< < 6 G.|.>X<XOX,X:X,X6XU.; W ' N D ] L ( e.:.K                           ",
"                          3.< p !..X+X#X#X#X:X#X&XZ.v @.@.#.+.P S C H C [                           ",
"                            6.1.8.W.@X|.OX;XOX;X%X#.x v D +.+.#.$.7.] p >.                          ",
"                                  9.9.x.U.`.oXXXXXU.4 N L F +.#.7.] 7.6                             ",
"                                      : b B { %.d.0.7 9 n C L L C V p p                             ",
"                                      k 2.p.i.Y q 8 X % 6 p p M M i i                               ",
"                                    u.) | p.a.Y 2./ 1 1 < i % i >.F.                                ",
"                                    I ) <.t.X.0 <.2.s l 1 1 1 h                                     ",
"                                    r I <.2...> [ 1.s -.k 1 , t                                     ",
"                                    , s s q q 8 ` ` < Z h < < 1                                     ",
"                                  B.< i 8 f 3 A 9.9.A 8 i 1 i ,                                     ",
"                                  m.i G H d 9 }.9X9X'.8 h ~ G g /.                                  ",
"                                  3.h ( ( 1.A _.9X=XT.h ( :.G i V.                                  ",
"                                  j.t l ~ G s [ F.N.G ~ _ h l t V.                                  ",
"                                    ,.y t , i . . . , s , g ;.,.                                    ",
"                                      B., , t O 2 , o 2 o g                                         ",
"                                      /.* e e O r + * * * O M.                                      ",
"                                                                                                    ",
"                                                                                                    ",
"                                                                                                    ",
"                                                                                                    "
};
