/* XPM */
static char *_1c368ead95e4c3ec49e1066a4c7df60SFhqgjdi5BnndXS5[] = {
/* columns rows colors chars-per-pixel */
"50 50 166 2 ",
"   c #897E5D",
".  c #8B815E",
"X  c #8E8362",
"o  c #928565",
"O  c #938A66",
"+  c #95876A",
"@  c #968C6A",
"#  c #9A8D6D",
"$  c #97906A",
"%  c #9B916E",
"&  c #9C8E71",
"*  c #9E9271",
"=  c #A09373",
"-  c #A09472",
";  c #A19472",
":  c #A19572",
">  c #A09473",
",  c #A09573",
"<  c #A19573",
"1  c #A29572",
"2  c #A29573",
"3  c #A09274",
"4  c #A09374",
"5  c #A19374",
"6  c #A09275",
"7  c #A09375",
"8  c #A19474",
"9  c #A19574",
"0  c #A09475",
"q  c #A19475",
"w  c #A19575",
"e  c #A29574",
"r  c #A29575",
"t  c #A19674",
"y  c #A29674",
"u  c #A29675",
"i  c #A39675",
"p  c #A29476",
"a  c #A29576",
"s  c #A39576",
"d  c #A29477",
"f  c #A39577",
"g  c #A19676",
"h  c #A39676",
"j  c #A39677",
"k  c #A39777",
"l  c #A49576",
"z  c #A49776",
"x  c #A49677",
"c  c #A49777",
"v  c #A29575",
"b  c #A39876",
"n  c #A59876",
"m  c #A49877",
"M  c #A69977",
"N  c #A49876",
"B  c #A39578",
"V  c #A39678",
"C  c #A39779",
"Z  c #A49678",
"A  c #A49778",
"S  c #A49679",
"D  c #A59779",
"F  c #A5977A",
"G  c #A49678",
"H  c #A59878",
"J  c #A59978",
"K  c #A59879",
"L  c #A59979",
"P  c #A69978",
"I  c #A69879",
"U  c #A69979",
"Y  c #A79979",
"T  c #A59A78",
"R  c #A69A79",
"E  c #A79A79",
"W  c #A5987A",
"Q  c #A4987B",
"!  c #A6987A",
"~  c #A6997A",
"^  c #A7997A",
"/  c #A6987B",
"(  c #A6997B",
")  c #A7997B",
"_  c #A59A7A",
"`  c #A79A7A",
"'  c #A79B7A",
"]  c #A79A7B",
"[  c #A79B7B",
"{  c #A7997C",
"}  c #A7997D",
"|  c #A79A7C",
" . c #A79B7C",
".. c #A79B7E",
"X. c #A69979",
"o. c #A89B78",
"O. c #A89B79",
"+. c #A89A7A",
"@. c #A89B7A",
"#. c #A89A7B",
"$. c #A89B7B",
"%. c #A99B7B",
"&. c #A99C7A",
"*. c #A99C7B",
"=. c #A89A7C",
"-. c #A89B7C",
";. c #A99B7C",
":. c #A89A7D",
">. c #A89B7D",
",. c #A99B7D",
"<. c #A89A7E",
"1. c #A99A7E",
"2. c #A89B7E",
"3. c #A99B7E",
"4. c #A89B7F",
"5. c #AA9B7F",
"6. c #A89C7C",
"7. c #A99C7C",
"8. c #A99C7D",
"9. c #A99D7D",
"0. c #AA9C7C",
"q. c #AA9C7D",
"w. c #AA9D7D",
"e. c #AB9E7D",
"r. c #A99C7E",
"t. c #A89D7E",
"y. c #AA9C7E",
"u. c #AA9C7F",
"i. c #AB9D7F",
"p. c #AB9E7E",
"a. c #AA9E7F",
"s. c #AB9E7F",
"d. c #AC9F7F",
"f. c #A99C7C",
"g. c #AAA07C",
"h. c #A99D80",
"j. c #AB9D80",
"k. c #AB9D81",
"l. c #A99E80",
"z. c #A99F81",
"x. c #AA9E80",
"c. c #AB9F81",
"v. c #AC9D80",
"b. c #AC9E80",
"n. c #AC9F80",
"m. c #AD9F80",
"M. c #AC9E81",
"N. c #AD9F82",
"B. c #AC9E81",
"V. c #ADA080",
"C. c #ADA181",
"Z. c #AEA081",
"A. c #AEA181",
"S. c #AFA281",
"D. c #AEA083",
"F. c #AFA183",
"G. c #AFA282",
"H. c #AEA383",
"J. c #AFA184",
"K. c #AEA182",
"L. c #B1A386",
"P. c #B1A585",
"I. c #B2A585",
"U. c #B1A485",
"Y. c #B3A788",
"T. c #B6A989",
/* pixels */
"= = h H M.M.M.u.:.H u.u.$.c u.G.H u.$.$.u.u.u.H $.u.$.u.u.h H $.H h h H H H H h h = h * * h * = # * ",
"= * = # & :.M.j.u.H :.H H c u.u.H H :.u.H H $.H H H H $.u.H $.H H c H H H H H H H h h c $.H H H h * ",
"h h * 1 # # # 3 u.u.$.H H u.H H $.:.:.$.$.$.$.*.$.$.$.H $.H $.c h *.H H H h h h c H H H H $.H H u.H ",
"H H H H c # @ o # = c H H I.G.$.u.$.H $.u.$.H H H $.H $.M $.$.H H $.u.u.h * * * * h H h h H h h $.H ",
"H $.u.c # @ @ # @ * h c H u.G.u.H c $.H $.$.H G.H h H $.$.$.$.H $.H H u.h * % @ % * h h * * h c H H ",
"H H c H # @ @ # # * = H $.H H $.H H $.h H H H G.h * = h H { { u.u.H u.H * % # @ * * % * * % % * H H ",
"H H S S = # # @ % h h c c $.$.$.H c H H S S V 3 3 * h h h S H $.$.u.$.h * # % * * % % % % % % # h H ",
"H h H h h H 1 % * 1 * * 1 h c h h h h h h S :.h V h H c c H H H c H H * % * = % @ @ @ @ % @ # = H H ",
"H H $.H h $.c * % % % * * % # # = h c H H H c h V H $.$.H h H H H H H % % * % @ $ $ @ @ % c h c H H ",
"h H H u.u.H h * % % % % % @ # % h $.u.$.H $.H h & h $.H h 3 H $.u.$.h * 1 1 # @ @ $ @ @ % * h H c H ",
"h H H u.H H H 1 @ % * # @ @ @ % # h $.$.H H h = = = h H M = u.u.u.c * * h 1 % % % % $ % b H * H H H ",
"H H H $.H H H * $ % % * * @ O o o * c $.u.c * = * * * h H H H u.$.h = 1 h h h H h * % % h h * h H H ",
"H H h c c H h * % % % # @ @ O o @ # * :.u.{ H h * = * * h c H H H h h 1 * 3 3 H :.H 1 * h = h H H $.",
"H h * S H H * % % @ # @ O @ @ # & * # :.j.j.$.S h H c = c $.u.j.M.u.H c c S V H u.$.H h h c H H H $.",
"h H H c H H * * * @ @ o o # = = * * H H u.j.:.:.H $.H c $.u.M.G.G.G.u.I.H u.G.G.G.d.d.M * c H H H h ",
"H H H H $.H H h c = = # # # * = = = h H H :.u.u.u.u.h c u.u.S :.u.u.:.$.h H $.u.u.u.M.u.V H u.H :.$.",
"u.H H H $.$.H H = # # # % # * h h h h h H u.u.j.M.u.:.u.u.:.{ :.:.:.H H H H $.H H $.:.j.u.:.H u.u.:.",
"$.u.H H $.H H H * # # # * h H $.h # h c H c H M.G.M.j.j.M.u.j.j.j.j.u.u.:.u.H M H :.:.u.u.u.u.3 :.u.",
"H u.:.H H H H H h * # * h H H H H * * h H :.u.3 :.J.M.u.u.{ u.{ H j.:.:.u.M.:.M H j.:.{ u.:.u.L.M.H ",
"$.u.u.H c H H c # * # # h H H H $.$.H H M.u.3 & # S H H $.H H H S j.{ H u.d.u.$.u.j.:.:.:.M.Y.u.& H ",
"M M h c H H H h % % # # H H H H H H u.u.3 # h c 1 * = h c h = 1 h H :.:.M.L.H u.:.H :.$.H u.U.* = H ",
"1 h = h H H c * O @ % * * h H H H h * = h h h 1 1 h h = h h * * * * h j.M.M.# & 3 $.I.H h & # * c h ",
"3 h 3 h h 1 % % % $ $ * * * h u.$.= * = h = # 1 = * h h = h * = * * h u.G.:.+ * c S * 3 3 3 3 h h h ",
"h 3 h h % $ $ @ @ % * * * * b H { H h h c h 3 3 h H = h = h 1 1 * * # @ h $.* c c c * = = = h h H H ",
"c h h h @ O O @ @ % % *.1 1 * * * 1 * * V h V h h h = = * # @ @ # # @ * h H u.$.h h h * h h H H H H ",
"H h 3 # O @ @ h b * * * 1 1 * * * * % % * h 3 V V c $.c # + o X @ @ # c H u.u.u.H * * * * h H H H H ",
"H S 3 @ @ * * 1 h * * 1 * % % * * % # % * h h * * c c h # # @ o + @ * c c $.H H u.c * # * c H H h c ",
"H H h * * b H h * * * * % % % * % $ % * 1 H H h = h h * # # + + @ * h h H H H H H h * h H H H $.H H ",
"u.H h = h H j.{ b 1 1 1 % % % % $ @ @ % 1 h $.M.S * h * # & = * * h S $.H u.u.u.H h H u.u.u.H u.d.u.",
"$.H $.H $.u.M.G.g.*.H H * % @ @ @ @ % 1 M b H u.M.u.H h * = * h H M H u.$.$.u.j.u.u.u.G.G.u.u.u.u.:.",
"H H u.u.u.:.u.u.G.L.M.S # @ O O @ * H u.M.u.u.G.G.M.M.$.H H h u.u.H H $.u.u.j.:.u.u.u.j.$.h h c S S ",
"H H H H $.:.H * & h G.H % @ @ @ % M M * M u.u.I.I.I.I.d.H H d.H c H S H $.h :.j.j.:.H h = * # * 3 3 ",
"h H H h c c h = 3 & M H * % * * * 1 @   X # # * I.H.I.$.H H u.u.H $.H H h & * M.H u.h # * * # # h V ",
"h H c H $.H h 1 * @ * h b b * % # @ X . @ * & 3 H + h u.H u.$.$.H u.H h * h h j.S H * * * * * h M H ",
"H H H u.$.H c = # # * h H H H * # O X   @ * # h = # o + h H H H H H H h * # h u.:.h c * * * = S H h ",
"H H H h h * h h # @ % M u.j.u.H # X X o # & h c h = # @ 3 H c H H H h = = * = $.M h = * * h h h 3 H ",
"H H h = = = * = 1 h h H u.M.G.u.# o o @ @ # = = = = & h H H H H c h # # h H V c H h * * * h H S H $.",
"H H c c h = = c H h h H u.L.I.H # # # # = = = h * # h h c H $.u.H h h c c H H H H c = # * h H H H 3 ",
"H H h c h h 1 1 * * h h h u.I.c * # & S c * * & = h H h H H H H h * h H h h * * h H H H c H H H H S ",
"c H h h c h h * h h * * h & H * # # * H c * h h h *.d.$.$.H H H h h * h * * # * 1 H H H G.H $.H H h ",
"H c h H M H h * * * # * h h * * # * # H H H h H u.d.u.u.$.H H $.h 1 % @ @ * # @ % * H u.u.u.u.u.:.H ",
"u.u.H *.M c * * * # @ # 1 h = h h H H * u.u.H M H { H H H h * * 1 % @ O O # * @ % % H G.d.:.u.u.:.:.",
":.H $.H c h * # # # * = H u.$.H c H $.$.H u.u.c c S H H H H = # * # @ @ * * h h h H u.L.I.J.G.M.u.u.",
"j.H $.h * * * = = h h u.d.d.u.$.H H $.c u.u.H c h M $.H u.h h = * # @ * $.H $.u.G.I.G.L.Y.Y.J.M.u.u.",
"u.u.:.* @ % % 1 c c $.G.G.u.H H c $.H h h H u.H * $.$.*.u.H $.c H # * H u.u.G.I.I.Y.T.T.G.M.M.J.u.:.",
"j.u.H h % * 1 = M *.$.$.H H H H H H H h h H $.H H $.u.u.G.G.u.H h h H :.u.M.Y.Y.I.I.:.* 3 # # { G.j.",
"G.u.H b b c h h 1 c h h H H *.u.u.H :.H h c *.u.u.u.u.d.d.d.u.$.H H $.u.M.j.{ G.T.U.@ # U.$.h = H J.",
"j.M.j.*.*.M h H h H H c $.u.h H u.c H $.H H $.H $.H H H H H H H H H $.H c * & * L.* * M h c M M $.u.",
"S :.M.:.j.:.H H H $.u.H H u.h H u.H h $.H u.H :.u.H u.H h H H $.u.u.H H H c c & @ # * 3 3 & = h h c ",
"= h H u.j.:.u.H u.u.u.u.H H u.u.$.:.H H H u.:.u.$.u.u.u.u.$.H $.u.G.u.$.$.H c 3 * * = & * = = = = * "
};
