/* XPM */
static char *b25809bb58c14d47d0e95a9b3e84201bumhzFRkyWeAYUjuX[] = {
/* columns rows colors chars-per-pixel */
"50 50 206 2 ",
"   c None",
".  c #1D160D",
"X  c #1B1F1A",
"o  c #1B1D15",
"O  c #231D0E",
"+  c #2A1D0D",
"@  c #24170E",
"#  c #351E0D",
"$  c #391F0E",
"%  c #211B11",
"&  c #2C1E15",
"*  c #361F13",
"=  c #1F231D",
"-  c #25210D",
";  c #3A200F",
":  c #262115",
">  c #2D2314",
",  c #22241D",
"<  c #2D251B",
"1  c #2D291A",
"2  c #332416",
"3  c #3C2412",
"4  c #35251B",
"5  c #3C271B",
"6  c #322B1C",
"7  c #3D2B1C",
"8  c #312817",
"9  c #2F301E",
"0  c #36321D",
"q  c #232622",
"w  c #262A24",
"e  c #2B2D26",
"r  c #2C2D28",
"t  c #352C23",
"y  c #3A2E23",
"u  c #362F29",
"i  c #2E322E",
"p  c #343324",
"a  c #3A3323",
"s  c #3C3926",
"d  c #35342A",
"f  c #3D362C",
"g  c #3D3B2C",
"h  c #36382D",
"j  c #3A3A31",
"k  c #363630",
"l  c #412617",
"z  c #422916",
"x  c #422718",
"c  c #442A1B",
"v  c #4A2D1E",
"b  c #552F1D",
"n  c #4A301F",
"m  c #57301F",
"M  c #422D23",
"N  c #4B2F21",
"B  c #453123",
"V  c #4D3123",
"C  c #453C26",
"Z  c #4F3A25",
"A  c #41342B",
"S  c #4B3529",
"D  c #433D2D",
"F  c #4C3A2B",
"G  c #533425",
"H  c #583625",
"J  c #573826",
"K  c #5C3A26",
"L  c #533629",
"P  c #543A2A",
"I  c #5C3C2A",
"U  c #4D3C31",
"Y  c #413932",
"T  c #5B3E31",
"R  c #553D33",
"E  c #603C27",
"W  c #623E2B",
"Q  c #3F4134",
"!  c #3E4139",
"~  c #43432D",
"^  c #4B432A",
"/  c #4A4A2F",
"(  c #4E4025",
")  c #564A2C",
"_  c #5B412C",
"`  c #4C502D",
"'  c #444533",
"]  c #464835",
"[  c #4B4C35",
"{  c #44443B",
"}  c #4B4B3A",
"|  c #494737",
" . c #5A4131",
".. c #584C3D",
"X. c #4B5436",
"o. c #4D533A",
"O. c #535535",
"+. c #545934",
"@. c #5B5A36",
"#. c #52543C",
"$. c #515A38",
"%. c #5B5D3A",
"&. c #65412D",
"*. c #69452F",
"=. c #634332",
"-. c #694531",
";. c #644833",
":. c #6D4933",
">. c #664B3A",
",. c #6B4B3A",
"<. c #65473A",
"1. c #635636",
"2. c #66563F",
"3. c #5D613C",
"4. c #68643F",
"5. c #4E4943",
"6. c #4C4E49",
"7. c #524C45",
"8. c #594E44",
"9. c #4F5245",
"0. c #535442",
"q. c #5A5445",
"w. c #565943",
"e. c #5B5B44",
"r. c #56524A",
"t. c #5C5B4D",
"y. c #5A544E",
"u. c #5A5850",
"i. c #6B5945",
"p. c #615D4B",
"a. c #64574E",
"s. c #775E4A",
"d. c #635D59",
"f. c #685D54",
"g. c #5E6057",
"h. c #646144",
"j. c #6A6544",
"k. c #646943",
"l. c #6B6A47",
"z. c #63634C",
"x. c #6B664A",
"c. c #666B4B",
"v. c #6A6A4A",
"b. c #76694F",
"n. c #75724F",
"m. c #6D6454",
"M. c #6C6B53",
"N. c #64615B",
"B. c #6A6B5D",
"V. c #686457",
"C. c #7E6653",
"Z. c #706F51",
"A. c #6E7152",
"S. c #747253",
"D. c #72735B",
"F. c #797558",
"G. c #6B6B64",
"H. c #666161",
"J. c #716962",
"K. c #747364",
"L. c #777962",
"P. c #7C7B62",
"I. c #71736A",
"U. c #7A756C",
"Y. c #78746A",
"T. c #787874",
"R. c #846F5E",
"E. c #86725C",
"W. c #857A67",
"Q. c #847B74",
"!. c #7C805D",
"~. c #7F8077",
"^. c #848265",
"/. c #898665",
"(. c #83816D",
"). c #8E8A6D",
"_. c #93826D",
"`. c #848071",
"'. c #8F8D72",
"]. c #898079",
"[. c #848476",
"{. c #938A74",
"}. c #9D8A74",
"|. c #95897C",
" X c #949075",
".X c #AB937D",
"XX c #898B85",
"oX c #8A8480",
"OX c #948A81",
"+X c #9E9488",
"@X c #A99884",
"#X c #B8A38C",
"$X c #B8A78E",
"%X c #BFAD9C",
"&X c #BBAB97",
"*X c #B2A9A0",
"=X c #B6B2AE",
"-X c #C1AB94",
";X c #CAB59E",
":X c #C6B497",
">X c #CDB9A2",
",X c #C6B3A4",
"<X c #D4BDA6",
"1X c #D2BDA9",
"2X c #D2C0AA",
"3X c #E3DAD0",
/* pixels */
"                                                                                                    ",
"                                                                                                    ",
"                                                                                                    ",
"                                                                                                    ",
"                                                B.B.G.U.                                            ",
"                                        0.z.L.^.^.P.(.(.B.r.t.U.                                    ",
"                                      P. X).^./././.^./.'.{.(.K.} I.                                ",
"                                    './.F.S.n.l.j.4.j.l.v.Z.F.W.[.V.0.                              ",
"                                  !.S.v.l.v.l.h.%.@.@.%.@.@.%.k.A.D.L.[ `.                          ",
"                              L.c.k.%.+.O.$.%.#.O.O.O.O.+.+.+.3.3.%.c.D.' K.                        ",
"                            D.z.$.$.$.X.o.#.0.0.w.0.#.#.O.+.+.+.+.%.%.#.z.'                         ",
"                        V.K.z.#.X.X.o.o.} ] ' ' ' ' ' ] [ X.O.O.` @.O.O.z.w.Q                       ",
"                      ' t.w.#.o.} [ ] ' ' ~ ~ D D D D g D ~ ] / [ / O.e.} e.g K.                    ",
"                    t.' 0.#.#.~ ' g p 1 > > > > 2 > > > 2 8 y a ~ ~ [ #.e.0.0.d                     ",
"                    d 0.#.~ / s > & > 5 c B V Z _ Z V B 7 4 * 2 8 0 g } ' } } e                     ",
"                    h ' g ' 0 - 5 M L <.>.>.;.=.;._ _ =.=.R R R B 8 > a } g ' d g.                  ",
"                    k Y f D + 7 P =.<.,.,.,.:.-.I &.&.&.=.;.,.,.>. .7 2 t f j r 6.                  ",
"                    r < t + # P I W =.&.&.&.-.&.W &.-.-.-.-.:.:.=.=.P 7 > t d , T.                  ",
"                      7.@ 2 F  .W =.W W W W &.&.*.:.:.:.-.-.&.&.&.=.=.B & % t G.                    ",
"                      Q.> F P I I W &.W W W &.&.&.*.-.-.-.&.&.W -.&.I F U t r.                      ",
"                      U.y B L I I I W &.W W E E K E W &.&.&.&.&.-.W J B U y 5.                      ",
"                      J.4 B P I K I I W W I I W W W W &.&.&.&.&.K b G L S y 7.                      ",
"                      ].y S V G H H K I I K I I &.&.W &.I I I I E H H P B 4 7.                      ",
"                        4 B V G G G H K K J H K K K K I K J G H m E G c S A y.                      ",
"                      J.4 M N L V P G V I L T G K P J L K P G G b H N S M y 7.                      ",
"                      7.& 5 S V L V G L L V P J V L L P P L V N G G V x B < u                       ",
"                      oXt & 4 5 L v L L v L L L P L V V V V N N v N c M & . 5.                      ",
"                          Y 8.M # c v N c V N N N N V V V V N N x l 3 F A V.                        ",
"                          N.OX|.R.s.z $ z n V N V z c V V v l $ c ..W.|.r.                          ",
"                            r.+X&X<X.XC.I 3 ; # x z N c # 3 >.C.@X%X&XV.                            ",
"                              q._.#X<X<X-X}.E.i.P 3 3 P C..X;X1X,X@X8.].                            ",
"                                W.2.E.#X1X>X>X;X#X}.}.#X>X2X&X}.f.a.                                ",
"                                    t a i._.@X$X:X:X&X@X{.m.D 8                                     ",
"                                  B.{ 8 C C ( ) 1.1.) ^ ^ D s f y.                                  ",
"                                ~.Q h ~ p.M.x.j.h.j.j.x.c.0.~ h { U.                                ",
"                                d 9.p ' #.z.M.S.S.S.Z.v.z.w.' p #.6                                 ",
"                              u.Q p 1 } #.e.h.h.c.v.z.e.e.w.] 9 6 D q.                              ",
"                            T.    V.O s } w.z.z.e.e.p.e.0.#.g - m.                                  ",
"                            G.=X3X|.> 6 6 6 0 s ' D s a p a a > `.                                  ",
"                              d.*Xm.> < t 6 1 p 6 < 6 p 6 < > O a.  a.                              ",
"                                V.A > t < a < < : . % : : p A t t f.                                ",
"                                  K.t f f d j d r h { { 5.7.| d d.                                  ",
"                                  T.o p j ! { { k h ! { j h d , H.                                  ",
"                                    I.= X , = , e i o w , = , N.                                    ",
"                                      e r q r , XX  w , w q w                                       ",
"                                      i = X w , [.XX, , w q q                                       ",
"                                                                                                    ",
"                                                                                                    ",
"                                                                                                    ",
"                                                                                                    "
};
