/* XPM */
static char *fae0b27116df4c12b61b74df4ee3d533tqExVK7annPl0Kp2[] = {
/* columns rows colors chars-per-pixel */
"50 50 177 2 ",
"   c #040503",
".  c #070807",
"X  c #0D0B07",
"o  c #0E0E0D",
"O  c #110F0B",
"+  c #16130C",
"@  c #141312",
"#  c #1B1A15",
"$  c #1E1D1A",
"%  c #211D19",
"&  c #24221D",
"*  c #29271E",
"=  c #262522",
"-  c #292723",
";  c #2B2A25",
":  c #272828",
">  c #2E2D2B",
",  c #312E26",
"<  c #312F2B",
"1  c #34332D",
"2  c #3A352D",
"3  c #2D2F30",
"4  c #353532",
"5  c #393632",
"6  c #373834",
"7  c #3B3934",
"8  c #3D3D3A",
"9  c #473E2E",
"0  c #423D33",
"q  c #413E3A",
"w  c #3F403B",
"e  c #444136",
"r  c #43423D",
"t  c #4A453C",
"y  c #4E483C",
"u  c #60523C",
"i  c #3F4140",
"p  c #454542",
"a  c #494743",
"s  c #4B4945",
"d  c #4D4D4A",
"f  c #524E45",
"g  c #514E4B",
"h  c #575345",
"j  c #5C5344",
"k  c #53514D",
"l  c #5A554B",
"z  c #5D594D",
"x  c #4F4F50",
"c  c #4F5050",
"v  c #555453",
"b  c #595754",
"n  c #575854",
"m  c #5B5955",
"M  c #575758",
"N  c #585759",
"B  c #5C5C5B",
"V  c #605541",
"C  c #665B4D",
"Z  c #625D53",
"A  c #605E5C",
"S  c #5F615C",
"D  c #65604E",
"F  c #646154",
"G  c #6C6256",
"H  c #62615E",
"J  c #6A665B",
"K  c #6D695C",
"L  c #70655B",
"P  c #706A5D",
"I  c #716D59",
"U  c #786E5C",
"Y  c #74705E",
"T  c #5E5E60",
"R  c #5D5E60",
"E  c #626160",
"W  c #636260",
"Q  c #626162",
"!  c #666361",
"~  c #656463",
"^  c #676662",
"/  c #676664",
"(  c gray40",
")  c #646463",
"_  c #686663",
"`  c #686766",
"'  c #696663",
"]  c #676867",
"[  c #686866",
"{  c #686865",
"}  c #6D6B67",
"|  c #6A6966",
" . c #666769",
".. c #696769",
"X. c #67686A",
"o. c #6A6A6A",
"O. c #6A6A6A",
"+. c #6C6B6B",
"@. c #6E6D6B",
"#. c #6B6C6C",
"$. c #6D6D6D",
"%. c #6F6F6D",
"&. c #6F6F6E",
"*. c #6D6D6E",
"=. c #6C6C6B",
"-. c #716C62",
";. c #716D65",
":. c #706F6E",
">. c #716E6C",
",. c #6F706E",
"<. c #747065",
"1. c #737167",
"2. c #7B7465",
"3. c #71716E",
"4. c #70706D",
"5. c #73716E",
"6. c #7A766F",
"7. c #7D796D",
"8. c #6A6E74",
"9. c #6D6E71",
"0. c #716F71",
"q. c #6F7071",
"w. c #737373",
"e. c #727271",
"r. c #747473",
"t. c #747471",
"y. c #767675",
"u. c #747473",
"i. c #787775",
"p. c #777875",
"a. c #797977",
"s. c #7A7A77",
"d. c #7C7D77",
"f. c #7A7976",
"g. c #767679",
"h. c #787778",
"j. c #77787A",
"k. c #7B7B79",
"l. c #7C7B7B",
"z. c #7C7B7B",
"x. c #81735E",
"c. c #817664",
"v. c #817A66",
"b. c #827A6C",
"n. c #817D76",
"m. c #807F7D",
"M. c #7E807F",
"N. c #8D8262",
"B. c #868177",
"V. c #898377",
"C. c #83817D",
"Z. c #8B847A",
"A. c #8F8A7E",
"S. c #7D7E80",
"D. c #7F8183",
"F. c #838483",
"G. c #898683",
"H. c #8A8A86",
"J. c #868688",
"K. c #848588",
"L. c #86888C",
"P. c #8C8B8A",
"I. c #908E8C",
"U. c #8E908E",
"Y. c #93918D",
"T. c #8C8E92",
"R. c #908F90",
"E. c #8E9090",
"W. c #909090",
"Q. c #939393",
"!. c #939499",
"~. c #9D9E9B",
"^. c #9D9D9A",
"/. c #A0A19E",
"(. c #AAAAAA",
"). c #A4A4A3",
"_. c #B1ADAA",
/* pixels */
"s k l f r 7 v M 8.8 p y.[ O.&.a.5.5.&.! a 2 a d v M [ Q Q ! H m k.m Q } k r ! O.M v v v k B B m k ' ",
"f H f h s 8 m k M < 7 m r.&.&.a.t.z.r.b a l Z s d r m ) Q ! 6 = &.O.` H ! d 8 d 6 6 Q B m s ) m r &.",
"f h z h a ; d B > M m d t.t.&.t.@.[ A r 5 f j a s a s B Q b s 7 H B ! b B d O.m 1 M ! m B d A 8 p &.",
"F J -.<.f > > p s ) T a &.y.z.a.m s 6 ) r , V r g d s k m l J v ' m v k k a a 1.q r.0 q B M g s s v ",
"P K K J h 4 6 p B B O.8 v :.H b m m 5.J.W.r.2 ; s s k f y l - s M v d k A 7 X 7 m 1 2 r d B a & # o ",
"J Z z D f 3 Q H m m B 8 8 A a ! #.y.d.+.a.~.m d p 5 e 2 s k B q 7 p ! ! v 8 v Q m 0 , a v d o > B T ",
"2.m 7.v.l O.H v v m m k 1 a k a.F.P.U.K.F.P.z.a r M v Q z.&.h.) - a r v 8 s B m v -.7 . @   4 ) B h.",
"2.F 1.1.p m m v H ) v m d 0 ' O.y.J.P.J.(.P.@.) z.q. .t.t.O.Q y.m l f l p j.t.m B B m e & i ) r s 5.",
"J Y ' m > M B [ B Q H m k Z 6.Q ) J.z.H.P.z.[ !.!.D.j.9.j.t.y.&.v r h q M @.Q B T A M u Z ) s a ) ! ",
"m b.F ; 6 ) t.r.! ) B v B f r.q.#.W.F.H.Y.P.v q.K.L.L.L.T.h.u.u.S.d 7 v @.v B ) Q H ! 5 c v s R T ) ",
"e h r - 6 O.y.5.m m m m ! 1 m [ B t.5.a./.P.H O.S.D.,.F.D.j.u.h.#.#.7 t.) m H Q #.O.O.8 B v B  .B t.",
"q 1 - < 4 @.&.) @.! ! m s 1 d O.B S ,.a.H.a.H q.u.F.z.h.u.t.u.z.S.F.d v Q m ) ] O.[ @.8 d 9. .d d ) ",
"Q [ p ; 4 B m y.H q r 7 k ! s ) @.H O.F.~.r.p y.O.p.y.q.q.) t.S.L.F.B Q ! B ) H B H 5.8 8 v 9.) u.9.",
"5.@.h.y.p 8 a r 8 B [ &.t.&.v m ! t.h.z.^.C.m q.j.O.O.S.j.#.Q h.u.j.M d ) B H ! m g ' 7 8 p ! z.O.O.",
"y.t.t.) ! q + d &.O.t.&.O.) [ k ) [ y.P.H.n.5.m Q B B j.D.u.y.t.) k.m r O.H ! [ H b A 7 4 p p @.M  .",
"O.[ ) B &.q.g m O.` &.O.Q &.[ s v ) &.y.f.n.H M k d B u.K.S.h.u.&.t.m s [ O.O.! B v m 7 ; s p b 5.H ",
"! ! O.A #.j.t.m Q O.t.) H a a k w t.u.b h r.B M M ) ) #.y.t.u.h.:.i.' d m [ [ ! B B ! q 4 d a d H s ",
"S =.&.&.y.S.u.M &.O.Q B k s M m s & e f r t B ! O.&.) z.y.O.j.&.+.>.;.r k @.) ) ) ! } s : m c s r p ",
") ) &.S.z.h.h.M B H ) m B ' I H m g H } B m t.O.&.u. .y.j.q.h.q.y.G.B.1 d ! @.) H H ' 7 $ s 7 8 d d ",
"n &.#.q.z.#.S.&.g B ) H d H N.Z ' r.y.m.5.2.y.=.) 9.) ) O.K.S.u.l.Y.Z.k v k O.@.@.m p 8 Q Q m v Q v ",
"Q u.O.u.z.O.h.z.m ! H Q h z H b @.O.k.d.I.b.O.L.#.) B ! O.+.z.S.L.C.2.B B 6 [ v 7 H ) B M v m m O.) ",
"S q.#.u.j.z.Q +.d H M d z l v ! O.[ O.h.F.H.H D.O.) Q ) ! B O.S.P.V.c.k O.> k s : &.O.B B m m m m Q ",
") u.S.j.j.y.#.t.s p s 2 * g z.t.r.h.+.d.5.d.b #.B B Q ! ! m ..z.G.b.Z m O.d k z.m m Q T ) m M M M O.",
"O.u.u.g.z. .O.J.v 2 2 7 +.M B r.@.5.a.C.&.d.s #.K.v B &.B v b A K t 8 ! v ! y.B k v Q ) ) B B T M P.",
" .q.j.) &.q.) y.H 7 r [ ! Q m 5.i.r.d.G.t.z.J s L.j.s #.F.B f 7 k [ z.5.p B z.@.M M ) )  .O.B T B P.",
"u.Q q.B ) ,.) O.O.k @.! d Y.r.&.a.5.5.5.5.y.b.1 k [ ! k k < 8 H h.t.h.Q.[ k m h.#.Q #.) ) &.9.T ) [ ",
"T.q.O.) ) m ) ! k k v r.[ y.z.H ) r.k.:.! @.2.m = 8 ) m a H a.C.P.d.a.F.m ! ) u.O.M 9.#. .9.#.m v M ",
"M =.O.) y.t.d 5 H O.m A @.! :.! &.k.[ ! ! ! J [ [ B :.a.C.H.z.z.y.C.a.r.5.v C.&.m w ) u.h.#.Q ) s B ",
"r r l r 7 $ = m a.B B ! ! d H :.5.t.[ ' A ! n.9 1.^.r.r.r.r.P.J.r.&.l.t.a.8 a a + O - 8 s p d B d M ",
")  .5.O.B 7 > Q B m H [ [ M H H H H [ ' H ' Y.x.C _.C.G.C.t.z.a.p.y.F.F.r.s d ' f.C.5.H h q o @ < ; ",
"O.O.#. .y.r.s ) t.O.[ t.) M M B k s m H d [ i.U j a.@.C.d.P.z.F.a.y.y.@.k.k B F.:.! ! A A H ; = H a ",
"&.#.&.Q  .j.v O.t.O.! B m m B M m B H ! H H Q l G :.t.m.F.~.F.F.5.O.t.Q a.M 8 k f k v v v a.d m C.5.",
"O.@.O.O.) &.s Q H M k k v v B B m B H B H m v b G >.! P.F.a.y.) &.t.O.O.&.B 7 g s s k m B ) Q y.7.>.",
"[ 5.u.&.) @.6 s B d k b v k M M ) H B B m v g k C H B z.F.t.y.u.&.z.h.j.z.! p B v d v m d 8 8 q C.[ ",
"@.&.t.t.#.) p M B v m B v v B ! Q :.B B m v k r L +.k r.i.C.y.u.&.t.J.L.&.H 6 v B m m H =.q.= 6 B ) ",
"B [ [ &.&.O.c r m B Q B m k @.I.B ' 5.b v B m s ;.J.v [ d.y.&.y.y.y.z.d.a.A = f Z ' k y.E.U.1 8 H ! ",
"v n ! u.h.h.v = 1 k [ ! v p 7 [ ` A a.m v a m = M P.r.B a.C.:.t.d.5.d 8 ; g 5.A.F.z.S.K.j.F.1 a v d ",
"r c H O.D.&.r # # 1 g d H O.7 7 a m q d v p m v ) m k.a.5.r.[ d r t a 1 ; q ,.J.K.D.j.z.t.z.7 a v a ",
"d B Q v S v & k B H m ' d.C.5.! m H Y.d.;.s 7 z.m 1 5 s a ! g 1 r k v A t , s a.z.S.K.y.t.z.6 v v B ",
"m ) ) [ O.v 6 r.t.[ H v A r.B ' H y.Q.Y.(.F.k ! ` @.H r < r 1 k m g k A 5.' 6 s O.O.y.t.z.t.> q.G.k.",
"7 5 q a g , 1 M B ! r.@.B H [ @.[ 5.@.+.5.Q.v Q F.r.a.:.- % q g k k A A [ [ ! 6 ; A t.z.y.) ; d ! M ",
"d s M r a.b 8 ) ! A H [ M B +.` O.+.O.r.G.C.M t.` H } @.r 7 s f m H A H r.B v ) 7 2 H.F.j.A > Q p q ",
") B k ! u.@.B B H m b m d.H.) [ @.y.P.I.).Y.k r &.v s ! B s H 5.H ' 5.B :.h.#. .A 2 1 :.!.m > m k s ",
"; p m M B y.t.A H B m m ! C.h.[ ! +.Q.R.(.F.$ = ! t.) Q :.d g H +.A >.:...y.S.) Q F r ; ! 1 > a r r ",
"8 d ! B ) y.M ! ` H ` [ M i.@.B y.t.&.0.~.5 8 a H z.t.) y.d a d m m B A g v H 8 a v B d 8 p 4 5 g s ",
"d s M B ) C.[ m r.&.+.! A M ! t.r.) d d v h.W.Q ) 5.r.O.&.! r b m g m J g s v d p M v B Q  .Q v v v ",
";.k v B M [ @.B F.u.>.r.r.t.` a v m d H ! H ! ) m &.t.&.r.! r ' m g a A m A Q  .M B m v v m A Q M M ",
"J b A m B d @.5.&.t.&.O.C.b d m B ! ) H B Q ..O.r M ) ! ` ! g k s g s b k m ) 0.v N M v x M m B m v ",
"t r m Q ! d B @.t.h.&.r.B ; m ) A B m B Q &.+.=.d 1 A ! v @.m s l g g m m ) ..q p Q M M v M B m M M ",
"- 7 8 d M s m r v k.[ k k p s B M H B B B O.` ..Q k s M +.v # 5 a q 5 a J s 1 0 p B m M M M M Q M v "
};
